/* XPM */
static char *a7aec08948454619f82e31ad829e280eYqtfMVOVz1pTZvn9[] = {
/* columns rows colors chars-per-pixel */
"64 64 221 2 ",
"   c #000001",
".  c #02050A",
"X  c #05090E",
"o  c #0A0A0B",
"O  c #0E100B",
"+  c #14130F",
"@  c #18160F",
"#  c #060C11",
"$  c #081019",
"%  c #0A131C",
"&  c #151512",
"*  c #191612",
"=  c #161914",
"-  c #1B1A15",
";  c #1B1C1A",
":  c #231C14",
">  c #1E211D",
",  c #33230F",
"<  c #21231D",
"1  c #2A2319",
"2  c #2D231A",
"3  c #352515",
"4  c #392616",
"5  c #362916",
"6  c #3A2A16",
"7  c #35261A",
"8  c #39271A",
"9  c #36291A",
"0  c #3C2B1B",
"q  c #3E301D",
"w  c #0C1B28",
"e  c #121F29",
"r  c #14232D",
"t  c #0D2338",
"y  c #152837",
"u  c #232423",
"i  c #262924",
"p  c #292C26",
"a  c #2C2E2B",
"s  c #342E24",
"d  c #3C2E22",
"f  c #322F29",
"g  c #2E322D",
"h  c #353225",
"j  c #3D3224",
"k  c #31322C",
"l  c #39332A",
"z  c #3C382A",
"x  c #2A343A",
"c  c #313331",
"v  c #3C3C3C",
"b  c #422E15",
"n  c #412E1D",
"m  c #43311E",
"M  c #49351E",
"N  c #4C381D",
"B  c #523C1E",
"V  c #412F21",
"C  c #443322",
"Z  c #493523",
"A  c #4C3A25",
"S  c #433528",
"D  c #473828",
"F  c #4D3B29",
"G  c #533C25",
"H  c #583E27",
"J  c #533E2A",
"K  c #533F31",
"L  c #4F4029",
"P  c #564126",
"I  c #55422B",
"U  c #5B452C",
"Y  c #5E492E",
"T  c #5B4631",
"R  c #584534",
"E  c #5E4A33",
"W  c #60462D",
"Q  c #62492F",
"!  c #634934",
"~  c #644D34",
"^  c #694E35",
"/  c #634E39",
"(  c #665034",
")  c #6A5137",
"_  c #66513A",
"`  c #6C543B",
"'  c #6E5A3D",
"]  c #71563D",
"[  c #735A3D",
"{  c #0F2D48",
"}  c #102B44",
"|  c #16334A",
" . c #143856",
".. c #2A4759",
"X. c #354855",
"o. c #18476E",
"O. c #154C7D",
"+. c #21496A",
"@. c #35637C",
"#. c #434343",
"$. c #4A4A4A",
"%. c gray35",
"&. c #6D5740",
"*. c #6E5A41",
"=. c #735C43",
"-. c #795D45",
";. c #726043",
":. c #7B6144",
">. c #75624A",
",. c #7D644B",
"<. c #7F6553",
"1. c #4E6877",
"2. c #636363",
"3. c #6D6D6D",
"4. c #767676",
"5. c #85684B",
"6. c #836B4D",
"7. c #866A52",
"8. c #836C52",
"9. c #8C7358",
"0. c #90775B",
"q. c #195988",
"w. c #1C5D94",
"e. c #255F8C",
"r. c #326789",
"t. c #38749A",
"y. c #1D67A8",
"u. c #1E71AC",
"i. c #2C73A9",
"p. c #1E7CC7",
"a. c #237CC5",
"s. c #3A87BB",
"d. c #5D8094",
"f. c #658B9F",
"g. c #528EB4",
"h. c #699BB6",
"j. c #74A5BE",
"k. c #1D8ED9",
"l. c #2782CC",
"z. c #3487C9",
"x. c #2285D6",
"c. c #268AD4",
"v. c #2186D8",
"b. c #3591D5",
"n. c #3795D7",
"m. c #1F95E4",
"M. c #1F99EA",
"N. c #2496E4",
"B. c #2498E6",
"V. c #2B99E3",
"C. c #2099EA",
"Z. c #329EE5",
"A. c #39A3E7",
"S. c #39ACF5",
"D. c #458EC9",
"F. c #539AC7",
"G. c #4598D4",
"H. c #599ED4",
"J. c #659DC9",
"K. c #58A7D9",
"L. c #6AADD6",
"P. c #79B5DF",
"I. c #43A5E5",
"U. c #45AAEB",
"Y. c #49AAE8",
"T. c #54A9E4",
"R. c #5CB1E6",
"E. c #54B1EC",
"W. c #4AB2F6",
"Q. c #45B3F8",
"!. c #44B4FE",
"~. c #53B5F4",
"^. c #5BBAF6",
"/. c #6EB7E7",
"(. c #67B7E9",
"). c #66BEF4",
"_. c #5FC6FF",
"`. c #61C5FC",
"'. c #6CC7FA",
"]. c #76C8F7",
"[. c #7DCAF4",
"{. c #838383",
"}. c #8D8D8D",
"|. c #9B9B9B",
" X c #8ABCD9",
".X c #84BEE5",
"XX c #88C0DF",
"oX c #99C2DC",
"OX c #88C5E9",
"+X c #96C8E9",
"@X c #9DD0EE",
"#X c #84CCF6",
"$X c #8CCBF2",
"%X c #90CBF1",
"&X c #86D2FC",
"*X c #91D2F6",
"=X c #98D5F8",
"-X c #96DAFF",
";X c #9BD9FB",
":X c #A9D4EE",
">X c #BAD8EA",
",X c #A7D9F7",
"<X c #ADDAF4",
"1X c #A6DBF8",
"2X c #B5DCF2",
"3X c #A6E3FE",
"4X c #B7E3F9",
"5X c #C8E0EF",
"6X c #D5E4EF",
"7X c #C1E3F4",
"8X c #C8E7F6",
"9X c #C4EBFC",
"0X c #CBEBFB",
"qX c #D6ECF7",
"wX c #DBF1F9",
"eX c #E5F4F9",
"rX c #E7F5F9",
"tX c #EDFAFC",
"yX c #F1F4F2",
"uX c #F4FCFD",
"iX c #FDFFFE",
/* pixels */
"k k k f h l l l l l l l l l l l l l l l l l l l l l l l l l f l l l l l l l l l l l k f f l l l l k f f f l l l l k g k k k k k ",
"g k j g g g g g g g g a a a a a g g g g g g g g g g g a g g g g g g g g g g g g g g g g k g g g g g g k k g g g g g g g k k k k ",
"g l C 6 A U T F C q R _ ~ / / _ P P E I I Z n I / T E _ F S 7 J I E E K F m n m Z Z j 5 5 j C j j d 7 9 8 0 D I I z g g g k k k ",
"g l C Z =.) I C C 7 Z ! ` ) ` ` ` ` H 0 5 0 0 4 C A n 6 , m 5 T _ I M 0 0 Z m 0 0 8 7 8 C m b -.7.9.] G C m 6 8 Z I m A I k k k ",
"g l m 5 D 0 7 7 d C 3 , 3 8 8 6 9 9 7 2 7 j j d 9 3 0 8 3 C S 8 6 8 0 8 8 n C C 0 3 3 C 0 8.,.B B G ( =.G m 0 3 0 F n 0 L k k k ",
"g l C 6 6 8 8 V m m C 8 3 8 0 d 0 8 7 8 d C S C 8 7 8 3 6 m C 5 0 0 0 8 6 C C C m C C C S E H W Q U P ^ ! C 0 3 5 Z 0 5 D k k k ",
"c l C V 4 n H :.5.:.6.~ C n 0 6 0 n N ` 9.0.9.) N n 0 0 C C C C n 6 0 C Z P =.9.7.E m C d F E ` ` ` ~ H n 6 j 8 0 m 0 0 m k k k ",
"g l n C C J :.=.~ ~ ` 8.U Z C C V C ( 9.0 }.%.{.3.c o         . a U U U U 9.=.Q ) ~ A C j J I ` ) ) ! G 5 6 C 6 0 q 0 0 m k k k ",
"g l C R Z U ^ U I I H H 5.0.M m C Z }.o     #.v       X % r $             = 3.{.Y Y n 0 C C F J Z m 0 0 6 6 C 0 0 q q 0 m k k k ",
"g j m n F ! Q ) ) ) ) W H ~ ) Z H ;     x 1.h.g.F.K.).`._._.`.`.K.t.@...X         o 4.|.C 0 5 6 6 0 8 0 3 6 C C 0 0 C 6 m k k k ",
"g j C n C Z U ( ) ) ) ~ P G G #.    x j.-X=X[._._._._._._._._._._._._._.`.R.r.@.e       4.C 0 0 0 0 0 6 3 0 C C 0 0 C 0 m k k k ",
"g j C n m m G Y ` ) ) ` U G     # f.-X-X-X-X1X1X_._._._._._._._._._._._._._._._.`.(.r.#     {.m q 3 3 6 C C C C C m C C m k k k ",
"g j C n A n Z I ~ ) ) ) %.    X.OX-X-X-X-X-X-X4X4X`._._._._._._._._._._._._._._._._._.`.@.    3.Z F F F F S C C Z D C Z D k k k ",
"g j 0 n / A C n n J 0 c   . d.-X-X-X-X-X-X-X-X-X9XqX]._._._._._._._._._._._._._._._._._._.t.%     {.6.6.,.~ M N ` >.I ;.>.k g k ",
"g j n 6 / ~ n C 0 0 .   x L.*X*X-X-X-X-X-X-X-X-X-XqXuX3X'.`._._.^._._._._._._._._._._._.`._.`.@.    {.H n n I ` ! T / E E k k k ",
"g h m 0 E ! J C 0     X.=X*X XOX-X-X-X-X-X-X-X-X-X;XrXiXiXuX8X:XoXL._.`._._._._._._._._.`.`.`.`.r.u $.3.V C Z I E / T Q _ k g k ",
"g h C 0 A ~ _ 0     1.-X-X*X+XXX-X-X-X-X-X-X-X-X-X-XuX,X-X:XwXyXiXiXuX8X4X-X'.`._._._.`.`.'.&X#X#XP.X.  2.q 0 Z A J Z G J k g k ",
"g h j n n I / a   1.-X-X-X-X-X-X-X-X-X-X-X-X-X-X-X1XiX^.!.!.!.W.].;X<XwXiXiXiXuX8X9XqXrXtX4XR.R.T.I.b.$   C C Z m 0 m m n k k k ",
"g h h C 9 0 6   . ;X-X-X-X-X-X-X-X-X-X-X-X-X-X-X-X0XtX!.!.!.!.!.!.!.!.!.W.].;X<XiXiX7XR.V.A.n.R.I.C.M.u.  o 0 0 6 6 6 5 6 k g k ",
"g l l C C 0 6   X.-X-X-X-X-X-X-X-X-X-X-X-X-X-X-X-XwX<X!.!.!.!.!.!.!.!.!.!.!.!.!.<XrXC.C.A.Y.I.A.C.C.M.M. .  %.4 0 C 0 0 C k g k ",
"g h k C C D 6   y '.3X-X-X-X-X-X-X-X-X-X-X-X-X-X;XiX;X!.!.!.!.!.!.!.!.!.!.!.!.!.0X7XC.C.E.I.C.C.C.C.C.C.c.X   C m C m m Z k k k ",
"g h g j 0 I =.    b.Q.#X9X-X-X-X-X-X-X-X-X-X-X-X9XiX).!.!.!.!.!.!.!.!.!.!.!.!.Q.uX@XC.C.C.B.C.C.C.C.C.C.C.q.    ` m C m m k k k ",
"g h k j 6 A =.v   r.!.!.E.=X9X;X-X-X-X-X-X-X-X-X0XuXQ.!.!.!.!.!.!.!.!.!.!.!.!.~.iX%XC.C.C.C.C.C.C.C.C.C.C.N.w   G m I N M k k k ",
"g h l j 0 Z ] )   r !.!.!.!.[.7X0X1X-X-X-X-X-X=XuX2X!.!.!.!.!.!.!.!.!.!.!.!.!.#XiX[.C.C.C.C.C.C.C.C.C.C.C.C.w.  #.C ~ U Z k k k ",
"g h j d 0 m ! E o   s.!.!.!.!.!.-XtXqX4X-X-X-X1XiX;X!.!.!.!.!.!.!.!.!.!.!.!.!.;XiX/.C.C.C.C.C.C.C.C.C.C.C.C.N.w   ` G ~ A k k k ",
"c l j j 0 C ! ) #.  | !.!.!.!.!.!.Q.1XiXtX9X;X9XiX).!.!.!.!.!.!.!.!.!.!.!.!.!.<XiXI.C.C.C.C.C.C.C.C.C.C.C.C.C.O.  %.H ^ A k k k ",
"g l C C 7 m T _ )   . I.!.!.!.!.!.!.!.~.,XiXiXuXuXQ.!.!.!.!.!.!.!.!.!.!.!.!.!.qXiXN.C.C.C.C.C.C.C.C.C.C.C.C.C.l.  ; H ! D k k k ",
"g k C C 6 6 C T ) v   t.!.!.!.!.!.!.!.!.!.[.7XiXiXuX4X;X[.W.!.!.!.!.!.!.!.!.Q.iXtXB.C.C.C.C.C.C.C.C.C.C.C.C.C.C.t   ` H Z k k k ",
"k k C C V 0 0 Z U )   r !.!.!.!.!.!.!.!.!.!.Q.tXiX5XiXiXiXiXqX,X*X~.!.!.!.!.^.iX6XC.C.C.C.C.M.M.C.C.C.C.C.C.C.C.q.  {.C C k k k ",
"k k j m C 0 4 0 n J &   s.!.!.!.).!.!.!.!.!.!.wX6XC.N.(.$X2XuXiXiXiXrX<X-X).&XiX<XC.C.C.C.C.C.C.C.C.C.C.C.C.C.C.u.  $.0 Z k k k ",
"k k j Z J Z 8 6 6 0 3.  y !.!.~./.!.!.!.!.!.!.0XqXC.C.C.C.C.B.K.OXoXtXiXiXiXiXiXiX2X<X:X@X%X$X$XOX/.(.(.R.Y.I.B.q.  2.0 Z k k k ",
"k k h C I E Z 6 6 6 `     s..X(.!.!.!.!.!.!.!.9XwXC.C.C.C.C.C.k.G.c.B.A.#X+XiXiXuXrX6X5X>X:X+X.XP.F.J.D.n.c.x.l.w   C C Z k k k ",
"g g l j m ) _ Z n 6 5 #.v X.~.!.!.!.!.!.!.!.!.1XrXC.C.C.C.C.C.m.c.k.C.C.C.#XiX>Xx.v.v.v.v.v.v.v.v.p.z.p.v.v.x.}   v C C Z k k k ",
"k g l j n J T Z C m 6 6 #.o n.!.!.!.!.!.!.!.!.*XrXC.C.C.C.C.C.C.C.C.C.C.C.rXiXH.v.v.v.v.v.v.v.v.v.v.v.v.v.l.y   u j T F C k k k ",
"k k k j m n n n n E E E v   +.!.!.!.!.!.!.!.!.[.tXC.C.C.C.C.C.C.C.C.C.C.$XiX+Xv.v.v.v.v.v.v.v.v.v.v.v.v.a.w   a ~ 8 =.T C k k k ",
"g g k j C C C n Z ~ ) ) `   . U.!.!.!.!.!.!.!.'.uXB.C.C.C.C.C.C.C.C.C.B.tXrXx.v.v.v.v.v.v.v.v.v.v.v.v.y.%   v ,.E 0 &.J C k k k ",
"g g k j C C 0 C E ~ ^ ~ ` v   e.!.!.!.!.!.!.!.`.uXB.C.M.C.C.C.C.C.C.C.$XiX.Xv.v.v.v.v.v.v.v.v.v.v.v.w..   $.! U G C I A C k k k ",
"g g k j C C 8 C ! ` ` ` ` `   % W.!.!.!.!.!.!.~.uXB.C.C.C.C.C.C.C.C.B.tXoXv.v.v.v.v.v.n.v.v.v.v.v.O.    3.T I Z C C S C S k k k ",
"g g k j C C n 0 Z J I I J ` a   t.!.!.!.!.!.!.W.tXV.C.C.C.C.C.C.C.C.$XiXz.v.v.v.v.v.G.D.v.v.v.v.o.    4.8 C F m C C C C S k k k ",
"g k l j m n n 8 4 0 n n 0 6 H   w Q.!.!.!.!.!.~.wXV.C.C.C.C.C.C.C.N.uXOXv.v.v.v.v.D.b.v.v.v.l.{     C 6.5 n Z 0 C S m C S k k k ",
"g h j j 0 A E m 0 6 3 3 3 6 H i   t.!.!.!.!.!.Q.0XZ.C.C.C.C.C.C.C.%X>Xv.v.v.v.c.J.D.v.v.v.u.w   & 0 ~ ) A n 0 6 0 D q m F k k k ",
"g h j C S / ` D n S A A ` =.=.0   r W.!.!.!.!.!.9XA.C.C.C.C.C.C.V.iXK.v.v.v.v.H.z.v.v.v.w..   v ` ) W U H n 6 3 0 F 0 m F l k k ",
"g h j m S ` =.J n E *.' =.[ ] ,.;   g.^.Q.!.!.!.4XI.C.M.C.C.C.C.%X+Xv.v.v.v.v.v.v.v.v.o.    2.! ` ` W U Z n 0 0 m F m m I k k k ",
"g k j n 0 A U D m D F A F J I U 0   x /.^.!.!.!.;XU.C.C.C.C.C.V.tXx.v.v.v.v.v.v.v.l.{     {.8 G / F m m A ) ` / J D E D J k k k ",
"g l j C n n C C n m m 0 V C C C n c v g.!.!.!.!.#XY.C.C.C.C.M.%X.Xv.v.v.v.v.v.v.y.w   o ) 3 6 n M 0 n I E ~ ) *.U A _ J F k k k ",
"g k h m C C n A *.8.6.6.Y n C V m ` . w W.!.!.!.].E.C.C.C.C.n.oXv.v.v.v.v.v.v.O.    v ) m 3 6 0 6 n =.` ~ ! U ~ I D E G F l k k ",
"g h l C C 0 n A Y ~ ( ( _ 8.M 0 ` Y a   r.!.!.!.'.E.C.C.C.M.%Xz.v.v.v.v.v.x. .    3.C J Z 3 8 0 m ,.) ~ ) ~ I G Z Z F m A k k k ",
"g k k q 6 0 G H U Y I G Y :.Z 6 =.P `   # U.!.!.^.E.C.C.C.n.OXv.b.x.v.v.y.w     0 0 n T Z 5 3 6 Z -.Q ) ) ^ I Z C C A m Z k k k ",
"g g k 0 3 Z ~ ^ ) ) ~ ~ U Y _ m U U ) v   +.!.!.W.E.C.C.C.K.v.v.v.v.v.O.    v 0 8 0 n I _ M 0 q 0 U ~ ` ` ~ A n m Z m n Z k k k ",
"k g k 0 3 Z ) ) ) ) ) ` U I T M n G ] `     b.!.Q.T.C.C.G.L.v.v.v.a.{     3.0 n m C n Z T :.,.n 6 m I U U G n 5 0 S n 0 S k k k ",
"k g k 0 3 Z ^ ) ) ) ) ` U I b n n m ` ` #.  | !.!.Y.C.C.l.v.v.v.w.$   o 0 0 6 0 0 C n Z E [ 0.m 0 0 m C l n 5 5 0 S 0 0 S k k k ",
"k g k d 3 n I U ~ ) ` ~ I C 6 V n 0 U U 0     i.!.U.C.I.x.v.l. .    #.) =.6.7.7.8.T n m E ` ] >.q 3 d 0 9 6 h g j S l j S k k k ",
"k k g h 6 4 m G P E E T Z 0 6 C n 3 M M 0 0   % U.Q.N.x.v.w.%     0 ~ ^ ) [ -.[ ` U Z 0 E ` ^ -.C 3 7 3 3 0 C m n C C n C k k k ",
"k k g s j 6 3 0 m D Z n 4 3 C K C 0 3 5 8 q v    .S.v.y.t     v 0 E ` ) ) ) ) ) Q M q 6 D E E m 0 C 0 6 m T =.) ` J U ` A k k k ",
"k k k a : 7 d 3 3 3 3 3 0 C 0 n *.>.6 C C C H ;   | t     o 0 S 0 A T ~ ~ ! ! T F n q 6 4 0 0 4 0 Z <.>.~ ( ~ Y ) I P ` F k k k ",
"k k k a ; ; j S j 0 6 V C S 8 0 ( ' ' m C C Z H u       0 Z 6 C V m A A G I A m 0 0 q 6 3 8 0 4 C n =.) ` ` E U E D I E D k k k ",
"k k g g g i - - 1 j C C C C C 0 m A / n C C C 8 0 0 0 0 0 0 0 C S 3 0 0 0 6 6 6 8 8 0 C C V n S 0 0 Z A Z Z Z m D Z m F Z k k k ",
"k k g g k g u - + @ 2 d S D D S 0 5 5 Z Z C d 3 3 3 3 3 6 8 3 C C 7 3 5 3 3 3 4 3 0 m C C C C n 3 0 0 0 0 0 0 0 0 C 0 0 C k k k ",
"k k k g k k g a i > ; * * & * : 7 h C D Z S S S Z Z S S S Z Z Z C Z S S D j d d s s j Z D Z Z n 0 n C C n 0 4 4 5 C 0 6 Z k k k ",
"k k k k k k k k k k p i < < ; = = = & & = @ = = & & & @ & * ; 1 1 - * + & & = ; ; ; ; - - - : 1 2 1 : : 2 s j z j 2 s j 2 k k k ",
"k k k k k k k k k k g g p p i u > > - = = & = = = = = = = = & & * + & & = ; > u u u u > < ; = = @ & + + O + = - ; = = ; & a k k ",
"k k k k k k k k k k k k k k k k k k g k k g k k c c c c k g g p p p p p a c k k k k k k k k k k k g p p i < < i g k g k k k k k ",
"k k k k k k k k k k k k k k k k k k k k k k k k g g g g g g g g g g g g g g g k k k k k k k k k k g g g g g g g g g g g k k k k ",
"k k k k k k k k k k k k k k k k k k k k k k k k k k k k k k k k k k k k k k k k k k k k k k k k k k k k k k k k k k k k k k k k "
};
