/* XPM */
static char *_68ad10c83bc4eb6e41abca199c4d21alMjlpy9tEg1HQu0u[] = {
/* columns rows colors chars-per-pixel */
"64 64 222 2 ",
"   c #000000",
".  c #0A0603",
"X  c #0D0905",
"o  c #050608",
"O  c #040A0C",
"+  c #0C0C0C",
"@  c #130600",
"#  c #180500",
"$  c #140D05",
"%  c #1A0D03",
"&  c #120E0A",
"*  c #08100F",
"=  c #1C1106",
"-  c #13100C",
";  c #1D140A",
":  c #1F180D",
">  c #0A0E11",
",  c #0D1113",
"<  c #0E141C",
"1  c #131313",
"2  c #191614",
"3  c #1B1816",
"4  c #161E1E",
"5  c #1C1C1B",
"6  c #230F00",
"7  c #241304",
"8  c #2B1502",
"9  c #2C1907",
"0  c #22160A",
"q  c #281709",
"w  c #23190D",
"e  c #2B1C0C",
"r  c #341D05",
"t  c #3A1D01",
"y  c #321E0C",
"u  c #241B11",
"i  c #2A1E11",
"p  c #211F1F",
"a  c #1F201F",
"s  c #3D2007",
"d  c #34210E",
"f  c #3A230E",
"g  c #2D2214",
"h  c #26211C",
"j  c #2C241B",
"k  c #342312",
"l  c #3B2511",
"z  c #3D2914",
"x  c #32281D",
"c  c #3C2D1C",
"v  c #3D301E",
"b  c #181D24",
"n  c #1D2124",
"m  c #1C232B",
"M  c #232323",
"N  c #262827",
"B  c #25282A",
"V  c #2C2C2C",
"C  c #332B24",
"Z  c #322E2A",
"A  c #2F302F",
"S  c #383127",
"D  c #32302E",
"F  c #3A332C",
"G  c #292D32",
"H  c #2E3032",
"J  c #2B323A",
"K  c #343433",
"L  c #34383B",
"P  c #3B3B3B",
"I  c #45280A",
"U  c #4C2C0C",
"Y  c #532902",
"T  c #502D09",
"R  c #5D3409",
"E  c #412711",
"W  c #442B13",
"Q  c #4A2E14",
"!  c #422F18",
"~  c #473117",
"^  c #4D3116",
"/  c #44321C",
"(  c #4B3319",
")  c #523316",
"_  c #5A3615",
"`  c #5D3916",
"'  c #553619",
"]  c #583718",
"[  c #54391B",
"{  c #5B3B1A",
"}  c #63360C",
"|  c #65390D",
" . c #623C17",
".. c #623D1B",
"X. c #443524",
"o. c #43392D",
"O. c #4E3D29",
"+. c #583E20",
"@. c #453C34",
"#. c #423D39",
"$. c #5D401F",
"%. c #65411D",
"&. c #6C441E",
"*. c #794613",
"=. c #71471E",
"-. c #74491F",
";. c #7C4D1C",
":. c #4E402F",
">. c #5D4221",
",. c #4E4338",
"<. c #574636",
"1. c #624523",
"2. c #6A4723",
"3. c #674925",
"4. c #6B4A24",
"5. c #6B4D29",
"6. c #714922",
"7. c #744A21",
"8. c #7B4E21",
"9. c #755027",
"0. c #7E5123",
"q. c #745029",
"w. c #7B542A",
"e. c #7E582C",
"r. c #614D3B",
"t. c #6E563A",
"y. c #363B42",
"u. c #3B4144",
"i. c #3D444C",
"p. c #444444",
"a. c #494643",
"s. c #42474B",
"d. c #46494C",
"f. c #4B4B4B",
"g. c #564D44",
"h. c #59524A",
"j. c #404750",
"k. c #444B52",
"l. c #484F56",
"z. c #4C5155",
"x. c #47515A",
"c. c #4C535B",
"v. c #525252",
"b. c #56595C",
"n. c #65584A",
"m. c #705B46",
"M. c #605B56",
"N. c #6A5F52",
"B. c #67615A",
"V. c #73685C",
"C. c #505760",
"Z. c #545B63",
"A. c #5A5E62",
"S. c #596067",
"D. c #5B626A",
"F. c #696867",
"G. c #63666B",
"H. c #636A6F",
"J. c #756D64",
"K. c #616770",
"L. c #656C73",
"P. c #696E75",
"I. c #6A7076",
"U. c #6D747B",
"Y. c #747473",
"T. c #70767D",
"R. c #75797C",
"E. c #797A7B",
"W. c #815223",
"Q. c #81562A",
"!. c #835B2E",
"~. c #885D2D",
"^. c #915E2A",
"/. c #835B30",
"(. c #8A5F30",
"). c #8C612F",
"_. c #9C662E",
"`. c #8D6231",
"'. c #926632",
"]. c #956A35",
"[. c #9A6D37",
"{. c #9C6F38",
"}. c #A47239",
"|. c #877054",
" X c #877765",
".X c #8C847E",
"XX c #968676",
"oX c #A4896D",
"OX c #6D7784",
"+X c #757B82",
"@X c #767D86",
"#X c #798188",
"$X c #7C838B",
"%X c #7E8792",
"&X c #858788",
"*X c #999088",
"=X c #848B93",
"-X c #888E95",
";X c #8B9196",
":X c #8C939A",
">X c #9B9692",
",X c #999896",
"<X c #91979E",
"1X c #93989D",
"2X c #A79889",
"3X c #A59E96",
"4X c #AFA499",
"5X c #959BA3",
"6X c #999FA6",
"7X c #9AA1A5",
"8X c #9EA5AB",
"9X c #A6A8AA",
"0X c #B9AFA5",
"qX c #BCB4AB",
"wX c #A5ABB1",
"eX c #A9AEB7",
"rX c #ACB2B7",
"tX c #B8B7B5",
"yX c #C4BEB7",
"uX c #C2C1BF",
"iX c #CACDD0",
"pX c #ECEBE9",
/* pixels */
"i.y.J J n l.4 < * O , B M B L u.x.c.D.L.+X$X:X%X$XU.0Xh.@.g w . k e x <.N.qXU.;X%X#XOXI.I.+X=X<Xc.n n n < b k.k.C.A.U.$X<X;X=X7X",
"+X=X<X6XwX6X7X8XwXrXrXwXwXwX8X7XrX-XK.@X@X*Xo.,..                               @./  X=X@XC.c.L.=XwXy.c.5XeX7X9XeX5X5X:X$X$X$XP.",
"5X8X5X-X7X$X7X7X7X1X1X;X:X:X&X+Xk.U.U.,..                                             @ g.U.U.C.K.c.i.$X5X=X5X$XP.+XL.P.P.L.H.I.",
":X@X$X$X@X$XL.P.I.U.R.#XT.L.H.+XU.2X      .   .                                 X . X X     3XU.k.y.y.I.U.=X+XL.+X@XU.U.U.T.T.U.",
"L.L.L.L.L.L.L.P.I.I.I.H.I.U.U.,.      $ $ 5 B $ .                             . = y.V ; =   .   N.b x.L.P.U.@X+XU.U.T.T.T.T.T.+X",
"I.U.U.T.U.U.U.U.U.U.U.L.U.*X*X  X & X $ $ + o $ .                             . ; + , 0 ; $ g 7 . 0X2Xc.C.T.+XU.I.U.I.I.I.I.I.L.",
"U.U.U.U.U.U.+X+XT.T.U.U.3X    $ = w $ = ; 0 = = .                             . w w y y e ; / d y # # uXU.D.D.C.A.D.D.D.D.D.D.A.",
"U.U.U.U.U.U.U.U.I.L.L.<.  $ % = = g $ ; 0 q ; ; .                             X w w d d y w ( l d l d   B.x.A.A.c.c.k.k.k.k.k.Z.",
"L.K.K.K.L.L.L.I.U.D.:.. X 0 0 e e z = e y y e w X                             X w y k l k w >.W ^ W ^ ; I J.k.k.k.k.l.c.k.l.Z.x.",
"A.C.C.C.Z.Z.C.C.C.:.@ w X 0 q e y ! - e e d e w .                             X w e d d d ; >.^ ^ Q ) w 1.t J.O < J s.i.L J m B ",
"c.A.A.A.A.S.Z.K.,.% 0 k & d d z z [ ; i d d w w .                             . w w k d i w 1.) ' ' { g w.%._ .XG > < < , < b m ",
"k.l.l.l.x.k.b.g.% w e z - l l W W +.w i k B s.w .                             . w d.N d i w 1.) ) ' { g !.&.4.r >Xk.y.J G m J y.",
"i.j.j.k.k.c.qX. ; k e +.; Q ^ Q Q >.; i i 5 1 w X                             X w 1 5 i i ; 1.Q ^ { ..g {.&.e.&.Y pXG.I.=X:XwXwX",
"b n n m G &X@ ; 0 k d >.; ^ ' W W 3.w i e 0 0 w &                             & w 0 0 i i w 4.W Q ....g [.&.e.&...F 4X5X6X5X<X;X",
"T.k.u.J L % . q e W W q.u { { Q z 3.: g i f y w &                             & w d f e g ; 3.z Q ....g {.7.8.7.7.y ) 1X$X&X=X@X",
"5XwXwXtX>Xw $ e y Q Q e.i &.{ Q z 5.w i e k e w $                             X w e d e i w 5.z Q { &.g [.7.0.&.&.z ).4X#XK.H.R.",
"$X&X$XyX  e $ d l { { `.z &.' ) z 3.w i d d d w .                             . w d d d i w 3.z ) ' &.W [.=.W.&.7.z '.k pXP.P.U.",
"l.i.i.g $ g - W z { { `.k &.{ ) W 5.w i d d 9 w X                             . w 9 r d i w 5.W ) { &.z [.6.8.&.W.z '. .n.L.U.L.",
"c.c.T.% = k = Q W { %.].g { ' ) Q 1.w i d c j w X                             . w x c d i w 1.Q ) ' { g [.7.6.&.0.z '.&.^ -XP.S.",
"c.c.U.$ 0 z ; ) ^ %.7.[.z ..^ ^ Q { w i l u.G.w X                             X w G.u.l i ; [ Q ^ ^ ..z {.W.7.&.0.z '.&...U.c.Z.",
"b.P.C ; 0 ! 0 { ^ %.8.[.z ..) ) W { w i l 3 Z w X                             X w Z 3 f i w { W ) ) ..z [.W.=...0.z '.=...V.T.D.",
"c..X. 0 q ( w 4.{ &.8.[.z %.) ' Q { w i l y s w X                             X w s y l i w { Q ' ) &.z [.8.=.&.`.z '.&.&.I iXc.",
"C.j $ q e [ e W...&.=.{.l &.' ) ^ { w e d g k u .                             . u k g d e w { ^ ) ' &.l {.7.=.&._.z '.&.7.[ n.k.",
"J . % e y { e ~...7.W.].g ..) ) U [ w j j 5 b 1                                 1 b 5 j x w [ U ) ) ..g ].W.7.&._.z '.&.&.U I J ",
"L.2 h y d 1.y W.&.&.0.`.e U I <.r.X.x D B D 3 +                                 + 3 Z B D x X.r.<.I U e `.0.=.7.^.z '.&.7.|.n.G.",
"U.5 H l l 4.k =.;.| *.!.o.N.n.H.A.H M 2 + F.N +                                 + N F.+ 2 M H A.H.n.N.o.!.*.| ;.;.z '.&.W.<XL.U.",
"&X& $ W z 6.8 1.|.oXoXO.v.E.I.Y.1 & - - o P M +                                 - M P o 1 - & 1 Y.P.E.v.O.oXoX|.5.r _.&.W.k X.tX",
"j = 7 r f t.V.,X9X1X-XM M X + 9Xp.o o o     $ ; X                             X e =     o o o p.9XX X M N -X1XwX9X X|.` R } | o.",
"= u F g.S L E.,XtXp.& 5 3 o o F.g.0 X $ w k e w .                             . w d d w $ . 0 g.F.o o 5 5 & p.uX,X&Xp.<.XXXXm.e ",
"; B B v.H 1 + . &Xb.1 o o $ $ 6 f 3.u W k y 9 w .                             . w e y k W w 3.f 6 $ % o o 1 b.&X. + 1 p.-XG.R.:.",
"+ 1 V V & 5 + o 2 ; j z $ ( ' { ' >.w l k i C w X                             . w C i d l w >.' { ' ( $ z g ; 1 o + 5 1 a.G.K N ",
"    s.H     . ; d %.&.{.k ^ { ^ ) 1.w l k L A.w X                             . w A.L d l : 1.) ) { ^ k {.&.%.W ; .   o d.1X  + ",
"    - . e ! k 2.%.&.~.~.g ^ ] Q ^ 1.: k i Z #.w X                             . w #.Z e l w 1.) ^ ' ^ g (.~.&.8.2.k ~ d 6 g X o ",
"  = e Q { ].! 7.8.&.Q.'.g ^ { Q ) >.; d i 0 7 w X                             . w 7 0 i d w 1.) Q { ^ g '.Q.&.8.7.! }.8.7.{ z $ ",
"$ e l ) ' ~.z 7.0.&.8.{.g ^ ^ ^ ) 1.w k i l e w .                             . w e l i g : 1.) ^ ^ ^ g {.8.&.W.7.z '.&.&.=.1.c ",
"- r r ) ' `.z &.Q.&.8.[.g ^ Q ^ ) $.w i u f e w X                             X w e f i i w >.) ^ Q ^ g {.8.&.Q.&.z '.&.=.| ;.X.",
"& u @.) { `.z 8./.&.Q.[.g ^ Q ^ ^ { w e e f e w X                             X w e f e e ; { ^ ^ Q ^ g [.Q.&./.8.z '.&.7. XO./ ",
"& P P.' { `.z 7.!.6./.[.g { ^ ) Q [ ; i y r = w .                             . w 7 d y u ; [ Q ^ ^ { g [./.7.!.7.z '.=.7.iX=X/ ",
"& C F ' ] ~.z &.!.8.!.].k { ^ ) Q ( w e d F a.; X                             X 0 a.F k e w ( Q ) ^ { k ].!.8./.&.z '.&.7.V.N./ ",
"& 0 r ) { ~.z 6.0.8.!.].z { ^ ^ W ' w y d M d.; X                             X w d.m k y 0 ' W ^ ^ { z ].!.;.0.=.z '.&.=.} ` v ",
"= e W ^ ' ~.z &.-.w.8.`.g ] Q Q Q ( 0 e e w u ; X                             X ; i w e e w ~ Q Q Q _ g '.8.w.-.&.z `.&.&.W.7.[ ",
"= e z ^ ^ !.l &.7.w.-.`.i ' W Q Q ~ w e e 9 8 ; X                             X ; 7 9 e e 0 ~ Q Q W ' i `.-.w.-.&.z `...&.8.&.{ ",
"$ e z W Q e.k &.&.q.=.w.i ) Q W W Q = 9 q h h 2                                 2 h h q q = Q W W Q ) i w.=.q.&.&.l ~.{ ..8.=./ ",
"& = 8 W Q w.k %...q.=.9.i ) Q t s W e D D 5 5 1                                 1 5 5 Z Z e W s t Q ) u 9.&.q...%.k ~.{ ..Y T c ",
"& K v.z z 9.k ....&...9.= r r M.h.#.Z M 5 L 1 +                                 + 1 K 5 M Z #.h.M.r r = 9. .&.....k Q.^ ] 9X&Xc ",
"$ 4 u.f l 9.d } Y R Y %.h.&XY.f.A 5 5 1 - Y.f.+                                 + f.Y.1 1 5 5 V f.Y.&Xh.%.Y R Y } k w.^ ) $Xi.c ",
"& 0 e E f -.8 g.>XtX3XF P K V E.5 - - -   , 2 X .                             . X 1 ,   - 1 & 5 E.V K P F 3XtX>Xg.8 ;.Q _ [ ^ c ",
"& 0 9 y 8 g.>X9XR.p.p.n 5 & & rXF.        X @ = .                             . = = X         F.rX& & 5 a p.p.Y.9X,Xh.r I _ _ c ",
"$ = e v.&X9XY.K f.K 5 5 5 , , s.O . . $ e e q = .                             . ; e e e $ . . O s., 1 5 5 5 K f.K E.wX9XY.[ W z ",
"1 B . 5 B V 5 1 p.p 5     w w d 9 Q = e e e 0 ; .                             . ; 0 e e e - Q 9 d w w     5 p p.1 5 D K M X B.#.",
"o + M D 1 2 1 1       i w Q E f f ~ = 9 e 0 7 X .                             . X 0 0 e 9 = ~ d f W Q w e       1 1 2 1 #.p.5 1 ",
"o   N       & i Q Q Q 5.w Q W f f / X 9 e 1 5 . .                             . . 5 1 e 9 X / d f E Q u 5.Q ^ Q i &       d.  + ",
"o     . w e e ..) ....5.e Q E d f / X 9 0 B v.X .                             . X z.B 0 9 X / f y f W e 5.....) ..e e e .     , ",
". $ 0 W Q 5.e  .Q ` ` 4.z z l y q k & ; 0 $ $ X .                             . X $ $ 0 ; & d q y f f z 4.` ` Q  .y q._ ' E e = ",
"& 0 q W Q 5.y { Q _ ) 4.z z f y e d $ 0 ; = % X                                 X @ = = 0 & k e y f z W 4.) _ Q ` k 5.' _ W ^ k ",
"= q e f W 4.$ Q W Q Q ' u f y e 0 e $ ; % $ $ .                   o o + + + + . . $ $ = = $ e 0 e y f u [ Q Q W Q $ 9.) ) Q Q Q ",
"= 9 8 z W $.- ) E W W ~ w y e 0 0 e X = = $ % .               o + + + 1 1 1 1     @ $ = = X e 0 q e y w ~ W W E ) = 1.Q ) t _ Q ",
"= + p.d f ' 0 W f W W z 9 e e ; = e X = . . o o + + + 1 1 1 5 5 5 5 5 5 5 5 5 M M n     = X e 7 ; 0 9 e z W W f W 0 { W W I.1 Q ",
"X d.Y.y d ~ ; W f f f W e 9 q 7 0 . .   o + + & , 1 1 5 5 5 5 5 5 M M M M M M M M M M M       % # e 9 e W E f f W 0 ( W W iX;Xi ",
"$ @ @ e 9 z ; f 9 y e W e . . o o + + 1 1 5 5 5 5 M M M M B B V V K K K K K K K K L L L P P P P P     e W y y 9 f ; ! f f % 7 z ",
"$ = % 0 e l ; d y f d . . o o + + 1 1 5 5 5 5 M M M M B B V K K K L L L P P L P P P P P P P P P P p.p.    8 8 6 f ; W d d r f l ",
"$ % $ 0 0 ^ X X   o o + + 1 5 5 5 M M M M B V K K L P P P P P p.p.p.p.p.p.p.p.a.f.f.f.f.f.f.f.f.f.f.f.v.v.z.z.z.    [ y y e d y ",
"$ = % . .     o o + + 1 1 5 5 5 5 M M B V K L K P P P p.p.p.p.p.p.p.p.d.f.f.f.f.f.v.v.f.f.f.f.v.v.v.v.v.v.v.v.v.b.A.      6 8 d ",
"      o   o + 1 1 5 5 5 5 M M B V K K L L P P P P P P p.p.p.p.p.p.p.p.p.p.p.p.p.p.p.p.p.p.p.p.p.p.p.p.p.p.p.p.p.p.p.v.v.v.f.s.. "
};
