/* XPM */
static char *_b64347950724155832034add4f8396bPG7qGK8tMBu5TkT3[] = {
/* columns rows colors chars-per-pixel */
"64 64 182 2 ",
"   c #000000",
".  c #090603",
"X  c #0D0905",
"o  c #040D0D",
"O  c #0C0C0B",
"+  c #130D06",
"@  c #180F07",
"#  c #130E09",
"$  c #08100F",
"%  c #1A1107",
"&  c #14100B",
"*  c #1C140A",
"=  c #040C13",
"-  c #0B1315",
";  c #0E141C",
":  c #141413",
">  c #181717",
",  c #1A1917",
"<  c #161E1E",
"1  c #1C1C1B",
"2  c #23160A",
"3  c #25190C",
"4  c #2B1B0C",
"5  c #311E0D",
"6  c #241B10",
"7  c #291E11",
"8  c #201F1F",
"9  c #35210E",
"0  c #3B240F",
"q  c #2D2012",
"w  c #24221F",
"e  c #332413",
"r  c #3B2611",
"t  c #372815",
"y  c #3D2A15",
"u  c #332718",
"i  c #372A19",
"p  c #3C2D1A",
"a  c #3F301D",
"s  c #151D25",
"d  c #191F27",
"f  c #1A2027",
"g  c #1C232B",
"h  c #242323",
"j  c #2A2621",
"k  c #212827",
"l  c #2B2825",
"z  c #21282C",
"x  c #2C2B2B",
"c  c #342D27",
"v  c #302F2E",
"b  c #32302E",
"n  c #3D352D",
"m  c #252B34",
"M  c #2B323A",
"N  c #343333",
"B  c #303837",
"V  c #3D3933",
"C  c #30373E",
"Z  c #3B3B3B",
"A  c #432B13",
"S  c #492E14",
"D  c #432E18",
"F  c #463017",
"G  c #45311A",
"H  c #4B341B",
"J  c #4D381E",
"K  c #523317",
"L  c #543518",
"P  c #533B1E",
"I  c #5A3B1B",
"U  c #613D1B",
"Y  c #543E25",
"T  c #453D34",
"R  c #403E3D",
"E  c #65401C",
"W  c #6E461E",
"Q  c #574022",
"!  c #5C4323",
"~  c #5F4728",
"^  c #45423F",
"/  c #614523",
"(  c #664925",
")  c #6A4C27",
"_  c #654B2A",
"`  c #6B4D28",
"'  c #72522A",
"]  c #79562B",
"[  c #7E5A2E",
"{  c #634A30",
"}  c #775934",
"|  c #313740",
" . c #343A42",
".. c #383F46",
"X. c #3A4145",
"o. c #3D444C",
"O. c #444444",
"+. c #4C4A47",
"@. c #41474F",
"#. c #4C4C4C",
"$. c #504B45",
"%. c #504F4F",
"&. c #5D5347",
"*. c #5D5449",
"=. c #404750",
"-. c #444B52",
";. c #484F56",
":. c #495056",
">. c #47515A",
",. c #4C535B",
"<. c #545454",
"1. c #585857",
"2. c #51565E",
"3. c #52585F",
"4. c #6C6153",
"5. c #726557",
"6. c #505760",
"7. c #545B63",
"8. c #585F66",
"9. c #596067",
"0. c #5B626A",
"q. c #666565",
"w. c #6A6967",
"e. c #64676C",
"r. c #636A6F",
"t. c #6C6B6A",
"y. c #616770",
"u. c #656C73",
"i. c #696E75",
"p. c #697076",
"a. c #6D747B",
"s. c #727171",
"d. c #70757D",
"f. c #72797E",
"g. c #7B7A7A",
"h. c #835E30",
"j. c #837563",
"k. c #8C7E70",
"l. c #9A8975",
"z. c #6D7784",
"x. c #727780",
"c. c #757B82",
"v. c #7A7F87",
"b. c #767F89",
"n. c #7A8186",
"m. c #77828D",
"M. c #7C838B",
"N. c #7D8590",
"B. c #7F8894",
"V. c #858584",
"C. c #888786",
"Z. c #80878E",
"A. c #81898E",
"S. c #8C8B8B",
"D. c #948F8A",
"F. c #848B93",
"G. c #888E96",
"H. c #8B9296",
"J. c #8C939A",
"K. c #9A9590",
"L. c #90979E",
"P. c #93999D",
"I. c #A39E99",
"U. c #959BA3",
"Y. c #999FA6",
"T. c #99A1A5",
"R. c #9CA2A6",
"E. c #9EA5AB",
"W. c #AEA8A1",
"Q. c #A1A7AF",
"!. c #A4AAAF",
"~. c #B1AFAD",
"^. c #A4ABB2",
"/. c #A9AEB7",
"(. c #ADB3B6",
"). c #ABB2BA",
"_. c #B4B8BF",
"`. c #C3BCB5",
"'. c #C3C3C2",
"]. c #CAC8C5",
"[. c #D5D5D5",
"{. c #D9D7D4",
/* pixels */
"o. .M M f ;.< ; $ o - k k k B X.:.,.0.u.x.m.J.B.M.'.V.Z l O .     . O l Z V.'.J.N.m.z.p.p.x.G.L.2.f f f ; s -.-.6.8.a.M.L.H.G.T.",
"c.F.L.Y.Q.Y.T.E.!.(.(.^.^.^.E.T.).H.y.v.b.<.1                                     h <.F.b.6.:.u.M.^. .,.U./.T.Q./.U.U.J.M.M.M.i.",
"U.E.U.G.R.M.R.R.T.P.P.H.J.J.A.c.-.a.a.t.l                                             x s.a.a.6.y.:.o.M.U.F.U.M.i.c.u.i.i.u.r.p.",
"J.v.M.M.v.M.u.i.p.a.f.n.d.u.r.c.[.:                                                         1 [.-...| p.a.F.c.u.c.v.a.a.a.d.d.a.",
"u.u.u.u.u.u.u.i.p.p.p.r.p.a.a.N 1                                                             h N s >.u.i.a.v.x.a.a.d.d.d.d.d.x.",
"p.a.a.d.a.a.a.a.a.a.a.u.a.c .                                                                     X n :.6.d.x.a.p.a.p.p.p.p.p.u.",
"a.a.a.a.a.a.x.x.d.d.a.a.K.  .                                                                     . X I.a.0.0.6.8.0.0.0.0.0.0.8.",
"a.a.a.a.a.a.a.a.p.u.u.. . . .                                                                     X + + O >.8.8.2.,.-.-.-.-.-.7.",
"u.y.y.y.u.u.u.p.a.0.n . . . .                                                                     + + % X T -.-.-.-.;.:.-.;.7.:.",
"8.6.6.6.7.7.6.6.6.. . . X X X                                                                   . + % * + + * = ; M @.o.C M g z ",
",.8.8.8.8.9.7.y.V . . . X X .                                                                   . + % 2 # * 2 ^ m = ; ; - ; s g ",
"-.;.;.;.:.-.3.2 . X X . + O 1                                                                   . l > 3 # 2 3 & H -.| M m g M  .",
"o.@.=.-.-.,.W.+ . + X X % O O .                                                                   O O 3 # 2 3 2 D `.e.p.F.J.^.^.",
"s f f g m &.+ % . + + X * + @ .                                                                   % % 3 # 2 4 * J y j.U.Y.U.L.J.",
"d.-.X.M C 7 + * X + + X * @ @ .                                                                 . % % 3 & 3 4 * P r _ P.M.A.Z.v.",
"U.^.^._.4.* + 2 + % * + 3 O &                                                                     # O 4 % 4 4 4 P A _ l.n.y.r.f.",
"M.A.M.].u * + 3 + * * # 2 : O                                                                     O : 3 % 3 4 4 P A _ } {.i.i.a.",
";.o.o.* 2 2 % q % * 2 . > O O                                                                     O O > . 3 3 4 P A _ [ H u.a.u.",
",.:.d.+ 3 7 * e # 2 2 1 : 1 O                                                                     O 1 : 1 3 3 * P A _ h.K H.i.0.",
"2.,.*.+ 7 e 2 y & 1 l O O   . .                                                                 . .   O O l 1 * P S ' h.K k.,.7.",
"3.i.q @ q t 2 t % l > . . . + .                                                                 . @ . . X 1 x * J A ' h.K { d.0.",
":.T @ % e y 4 j N : :   . + + .                                                                 . + + .   > > Z b A ' h.L U 5.,.",
"6.6 % * t D 4 O.1 x > X & + + .                                                                 . + + 3 X : x 8 #.A ' h.L U Y -.",
"M # 1 2 y l #.O O   X X * O 1 .                                                                 . 1 O 3 # X   O & w.T h.L w.R M ",
"u.1 l 2 p #.1 O O X * & 3 > l .                                                                   l > 3 & % X O O l s.} L V.t.e.",
"~.+ & h +., 1   X 4 3 & 3 + + .                                                                   X + 3 & 3 4 X   h h V.$.D D ].",
"w.% & Z 1 Z 1 2 # 4 3 & 3 + +                                                                   . + + 3 & 3 3 + 2 h #.v g.D I D.",
"2 , N O O   4 P * 4 3 & 3 + + .                                                                 . + + 3 & 2 4 * P q   : , C.*.G ",
"* x > O O e r P * 4 2 & 3 + + .                                                                 . + + 4 # 2 4 * P A y : : Z S.G ",
"l : >   # ! r P * 4 3 # 3 + + .                                                                   + + 3 # 3 4 * P A _ %   N v s.",
"O l > 2 / ( y P * 4 3 # 3 @ + .                                                                 . + @ 3 # 3 4 * P A ' h.t N t.h ",
".   * e ( ~ r P * 4 2 # 3 : 1 .                                                                 . 1 : 3 # 2 4 * P A _ h.P p   : ",
". % 4 r ( ~ r P * 4 3 # 3 O O .                                                                 . O O 3 # 3 4 * P A _ h.L I D : ",
"X 3 9 r ) ` A P * 3 3 & 3 + +                                                                     + + 2 # 3 3 * P A ' h.L U U 7 ",
"X 4 9 A ` ~ A P 4 3 2 + 2 + +                                                                     + + 2 # 2 3 3 P A _ h.I U E 7 ",
"# 2 3 A ` ~ S P 3 3 2 + 2 O &                                                                     : O 2 + 2 3 3 P S _ h.I F H G ",
"# 1 N r ` ~ S J * 3 2 + * : O                                                                     O : * + 2 3 * J S _ h.L w.^ G ",
"# > > r ) ~ F H * 2 2 . > X O                                                                     O O > . * 2 * H F _ [ K x N a ",
"# * 2 r ( ! F H % 2 * 1 & 1 O                                                                     O 1 # 1 * 2 % H F _ [ K D F a ",
"# 4 5 r ( / D F % 1 h O O   .                                                                     .   O O h 1 & F D ( [ K I W p ",
"# 4 4 9 / ! D F % N > X . . X .                                                                 . X . . O > N & F D ( ] S I W a ",
"% 4 3 5 ! Q r n Z : :   . X X                                                                     + X .   > > Z n r / ' S L W P ",
"% 4 4 5 Q P y #.8 b > . + X X                                                                     X X * . > b 8 %.A ! ' A L W P ",
"# > l 4 P V q.& O   . . + + X                                                                     X + * . .   O & w.T ) r <.N p ",
"# h N 3 e w.l O O X + . * O :                                                                     : X * X * X O O l s.D r t.1.p ",
"# % * N w.w h   . + % . % . .                                                                     . . % . * 2 X   h h V.+.y y p ",
"+ 2 * <.l +.h % . 2 % X % + .                                                                     . + % . % 2 . % h #.v g.p K i ",
"+ w O.: &   * y & 2 + . % . .                                                                     . . % . + 2 & y 2   : , V.*.i ",
"+ Z 1 O O 3 5 t * 2 @ . + . .                                                                     . . & . @ 2 * y 9 4 : : Z S.i ",
"h > 1   4 F 9 r * % + . + .                                                                         . + . + % * y 9 H e   N v t.",
"O N 1 * J D 9 r % % + . +                                                                             + . + % % r 9 F Q 3 b t.h ",
".   % 4 H D 5 e + + + .                                                                                 . + + + e 5 F Q r 4   - ",
". + 3 5 H D 3 7 + + X                                                                                   . X + X 7 4 D Y A S 4 : ",
". * 3 5 H y 3 3 + + .                                                                                       + + 3 3 y P r S r * ",
". * 3 4 F e 2 3 + .                                                               .                     .   . + 3 3 r P 0 A r * ",
"% 2 2 3 y 4 2 2 .                                               . . O O O O O O : : : : : > > > : > : : : : : . 2 2 e H 9 0 A D ",
"@ * * 2 t 4 2 .                                         . . . O O O : : : > > > > > > > 1 1 1 1 1 1 1 1 1 1 1 1 . 2 4 y 5 9 9 A ",
"% 1 x 2 7 3 .                           . . . O O O O : > > > 1 1 1 1 1 1 d f f d d w h f h h h h h h l l l l l l . 4 t 4 +.Z y ",
"+ O O * 4 .                         . . O O O : : > > 1 1 1 1 1 h h h l l l l l l l l l k k k l l x x x x x x x x x . e 3 > 1 q ",
"+ + @ @ .                 . . O O O : > > 1 1 1 1 h h l l l l x x N N N N N N N N N N N N N N N Z Z Z Z Z Z Z Z Z Z Z . 2 4 4 r ",
"+ + + .                 . . O O : > > 1 1 1 h h l l l x x N N N N N Z Z Z Z Z Z Z Z Z Z Z Z Z Z Z ..O.Z O.O.O.O.O.O.O.O.X 3 4 9 ",
"+ + .           . . O O O : > 1 1 h h l l l x N N N N Z Z Z Z Z O.O.O.O.O.O.O.+.+.+.+.+.+.+.+.+.+.+.+.+.#.+.+.+.#.#.#.#.#.X 2 4 ",
"+ .         . . O O O > > 1 1 h h l l x x N N N Z Z Z Z O.O.O.O.O.O.O.+.+.+.+.#.#.#.#.#.#.#.#.#.#.#.#.#.#.:.#.;.#.#.#.<.<.#.X 4 ",
".     . . O O : : > 1 1 1 h k l l x v N N Z Z Z Z Z Z X.O.O.O.O.O.O.O.O.O.O.O.O.O.O.O.O.+.+.+.+.O.O.O.O.+.+.+.+.O.O.O.O.O.O.O.+ "
};
