/* XPM */
static char *_27b86c70ae94600c9ef8c76433f3cebrP2puzzFlajsuEvR[] = {
/* columns rows colors chars-per-pixel */
"64 64 196 2 ",
"   c #020201",
".  c #090604",
"X  c #0D0A05",
"o  c #0B0B0B",
"O  c #110C06",
"+  c #180E06",
"@  c #140F08",
"#  c #1A1007",
"$  c #161009",
"%  c #1C1309",
"&  c #1F180F",
"*  c #141413",
"=  c #181716",
"-  c #191817",
";  c #10171D",
":  c #1B1A19",
">  c #23160A",
",  c #26190C",
"<  c #2C1B0C",
"1  c #321E0D",
"2  c #231B11",
"3  c #2C1F10",
"4  c #211F1E",
"5  c #35210E",
"6  c #3A230F",
"7  c #2D2012",
"8  c #21201E",
"9  c #2E271F",
"0  c #342311",
"q  c #3A2611",
"w  c #3E2B15",
"e  c #3E2D18",
"r  c #161C23",
"t  c #192027",
"y  c #1D242B",
"u  c #262524",
"i  c #282726",
"p  c #232B2C",
"a  c #2B2A28",
"s  c #342C22",
"d  c #382E25",
"f  c #302F2D",
"g  c #33312F",
"h  c #3B3229",
"j  c #242B33",
"k  c #282F36",
"l  c #2A3136",
"z  c #2E353C",
"x  c #353432",
"c  c #3B3937",
"v  c #30363E",
"b  c #363B3B",
"n  c #3C3B39",
"m  c #402711",
"M  c #442B13",
"N  c #4A2D14",
"B  c #432F18",
"V  c #4D3115",
"C  c #46311A",
"Z  c #4A341C",
"A  c #533316",
"S  c #583617",
"D  c #5B3817",
"F  c #543619",
"G  c #593718",
"H  c #55391B",
"J  c #5A3A1A",
"K  c #623E1C",
"L  c #4A3824",
"P  c #45392C",
"I  c #553D21",
"U  c #463D34",
"Y  c #66411D",
"T  c #6B431E",
"R  c #70471F",
"E  c #71481F",
"W  c #554124",
"Q  c #5B4223",
"!  c #4B443B",
"~  c #574A3C",
"^  c #634523",
"/  c #6C4721",
"(  c #6C4924",
")  c #634A28",
"_  c #6B4C28",
"`  c #704720",
"'  c #734921",
"]  c #7A4E22",
"[  c #734F28",
"{  c #6B502B",
"}  c #765127",
"|  c #7F5123",
" . c #76522A",
".. c #7C552A",
"X. c #7E582D",
"o. c #755937",
"O. c #7D6136",
"+. c #353B43",
"@. c #3D444C",
"#. c #444342",
"$. c #4A4745",
"%. c #484946",
"&. c #4C4B4A",
"*. c #52504F",
"=. c #454C54",
"-. c #484F56",
";. c #4A5156",
":. c #4C5259",
">. c #595755",
",. c #51575E",
"<. c #7F6449",
"1. c #7A6957",
"2. c #555B63",
"3. c #585F66",
"4. c #596067",
"5. c #5C636B",
"6. c #656464",
"7. c #61676F",
"8. c #666869",
"9. c #6C6B69",
"0. c #70706E",
"q. c #656C73",
"w. c #686F76",
"e. c #6A7177",
"r. c #6D747B",
"t. c #7C7975",
"y. c #71777E",
"u. c #72787E",
"i. c #7B7B79",
"p. c #835B2E",
"a. c #895E2E",
"s. c #845C30",
"d. c #9B642E",
"f. c #876133",
"g. c #8A6233",
"h. c #8C6939",
"j. c #926633",
"k. c #986A36",
"l. c #996C36",
"z. c #936C3B",
"x. c #9C713C",
"c. c #A2733A",
"v. c #AB7A3E",
"b. c #8F7140",
"n. c #9C7942",
"m. c #8A7053",
"M. c #A47F46",
"N. c #AE7D40",
"B. c #877D74",
"V. c #AC874C",
"C. c #B48E50",
"Z. c #B79051",
"A. c #BE9655",
"S. c #8F8376",
"D. c #89837E",
"F. c #978471",
"G. c #747A81",
"H. c #787F83",
"J. c #7A8187",
"K. c #7C838A",
"L. c #868585",
"P. c #80878F",
"I. c #948E87",
"U. c #94918E",
"Y. c #9C9388",
"T. c #858C93",
"R. c #898F96",
"E. c #8A9196",
"W. c #8E949B",
"Q. c #939290",
"!. c #989797",
"~. c #989897",
"^. c #90969C",
"/. c #93999E",
"(. c #9D9D9C",
"). c #A09688",
"_. c #B4A595",
"`. c #949AA2",
"'. c #AAA9A8",
"]. c #BAB0A4",
"[. c #B9B8B8",
"{. c #C5B8AB",
"}. c #C0BFBE",
"|. c #C5C2BF",
" X c #C3C2C2",
".X c #CFC9C4",
"XX c #CBCACA",
"oX c #D1CBC5",
"OX c #D6D5D4",
"+X c #DCDAD8",
"@X c #E3E3E2",
"#X c #E9E6E2",
"$X c #EFEEEE",
"%X c #F0EFEF",
"&X c #F0F0EF",
"*X c gray94",
/* pixels */
";.=.@.@.v 2.l p p y p b b b %.;.3.4.7.w.u.K.K.G.w.+XI.! h 2 % . 7 > 7 P ~ Y..XG.G.r.r.e.r.G.T.E.2.z p j j z 2.2.5.7.G.P.W.R.T./.",
"G.K.T.T.W.E.T.E.E.^.^.^.^.W.E.E.`.^.H.r.w.t.U + , + % $ # % % . C , < , > > , # 0 P 1.u.r.r.r.r.G.T.+.:.K.W.W.W.`.E.E.T.K.K.K.u.",
"W.`.W.T.`.K./././.^.W.E.E.E.P.H.7.q.G.U.$.# % O , % > # # % , . W , , < 1 1 < $ 0 > , ~ S.e.q.q.q.2.@.G.W.T.W.K.u.K.r.r.r.e.q.r.",
"E.K.K.K.K.K.r.y.u.H.H.J.u.r.e.y.#Xd # # # > , # 0 < 1 > >.&., X O.6.U.0 M M m < Z q q q 5 < L +X-.@.+.r.u.P.J.r.G.G.r.r.r.r.r.r.",
"r.e.e.e.e.e.e.e.e.r.r.e.r.r.r.Q.! % % > > < < & B 5 q < i u 3 O b.a *.w A V V 0 Q M m C w 5 < P ).j :.w.r.u.G.u.r.r.u.r.r.r.r.u.",
"e.r.r.r.r.r.r.r.r.r.r.u.r.D.s X , , , 1 1 q m < H B V w V F V @ V.T T T K T T 0 X.J Y J J N V > I L B.2.q.r.G.e.e.r.e.e.e.e.e.w.",
"r.r.r.r.r.r.u.u.u.r.r.r.OX# & O 3 < < q 5 M V 7 ^ V F B F F F @ Z.T T Y Y T / w a.Y E T T F J < H q 5 oX2.7.7.2.4.5.4.4.4.4.4.4.",
"r.r.r.r.r.r.r.r.e.q.q.d % > > # w q M V M J K q  .F J H H K J @ A.| | ' T ' ' C j.' ] X.] Y Y 0 _ A V w L :.3.2.2.,.=.=.=.=.=.2.",
"q.q.q.q.q.q.w.e.e.5.D.& > , < & C M N A V K Y w ..H K J H K J $ A.| s.' T E T C j.' | p.] T ] q  .J F M q S.=.:.-.=.=.-.=.-.,.;.",
"4.2.2.2.2.2.2.2.2.> & < 7 5 q , Q J K J J T T w X.H K H C M Z $ A.H H E ' T T C z.' | p.p.R R w s.T T F V V C ; y v =.@.+.v k l ",
",.2.2.2.3.4.3.5.I.% & 7 0 q N < ) J Y J Y ` ' C X.J K M $.c M 2 A.$.(.H T T K C z.' ' s.s.' | w s.T / J J F A Y.p r r t r r y j ",
"=.;.:.:.:.:.:.s 3 > , w C F A w p.T T K T T ' w p.J K e c g w $ A.c 9.Z T T J w z.' E s.p.| ' C j.` T J Y K K M m.+.v k j y j v ",
"=.=.=.=.=.=.OX+ 7 , < M Z J J e p.T T T ' T ' e j.J K Z w e Z $ A.Z Z ' T T H w x.' R | s.| E C j.' T T T Y T Z X.+X,.5.u.K.W.^.",
"y j j l v D.+ O 0 5 q F ^ T ' C x.' T T R T ' w j.J K Z K Z Z $ A.| ' ' T K J w N.' ' | p.| | C j.' T T R T R w j.V _.W.`.^.^.W.",
"5.+.z j j 9 + + 0 q M A ( ' ] w c.' T T ' T ' w j.H K J K H Z $ A.| ' R T J J e x.' ' ' p.| | w j.' T T ' T ' w p.V o.R.T.T.T.K.",
"E.^.^.^.U.+ # # C N A J  .T | B v.' T T ' K ' w z.Z J J K K Z $ A.| ' ' ' J J e N.' ' R p.' | w c.R T T ' K ' w f.C F ].e.e.e.G.",
"T.W.T.#XU # > % Z A J T ..' | w v.' R ' T K ' w z.Z J J K K Z $ A.| ' ' ' J K w N.' ' ' p.' | w c.' E ' T K ' w f.Z H 1.$Xw.w.r.",
"2.;.,.h % & < > Q J K T ] ' | w x.' ' ' K K ' w c.Z Z M $.c M $ A.$.(.H ' J T w N.' ' E | ' | w z.' ' ' K K ' w j.Z Z F <.r.r.e.",
",.:.:.# > , < , ^ J E T | ' | e v.' ' ' K K ' e c.Z Z e (.L.w @ A.(.XXZ ' K T w N.R | ' | ' | w c.E ' E K K ' w j.Z Z H J r.e.5.",
":.:.U.% , < 0 < ..' ] | | ' | w x.| ' ' K K ' w c.Z Z K e w J 2 A.Z Z ' ' T T e N.| | | | E | w z.| ' ' K K ' e j.Z Z K K {.5.2.",
"2.2.$.> , 5 q 3 p.' ] | ' ' | w x.| T ' T H T w c.Z Z K K K J 2 A.' ' E ' T R w N.| | | ' ' | w z.| T ' T J T w j.Z Z K Y F.,.3.",
":.B.+ > < q M 0 g.] ] | ' | | w x.' T ' T J ' e f.Z Z J K J K 2 A.R ' T E ' ' w N.| | | ' | | w z.' T ' T J R w f.Z Z J Y H _.2.",
"2.! + > < q V 0 j.p.| | ' | | w x.' T R T J ' w f.Z J J K J K $ A.| ' T R T ' w v.p.| | E | | w z.E T R T J R w f.Z J H K H m.=.",
"=.# # < 5 M F 0 x.d.| | ' | | w v.' K T T J E w f.Z J K K J J @ A.| E T ' T ' w c.d.| | ' | | e c.' K T T J ' w f.Z J K K J H -.",
"z # # > q N F q c.d.| | ' ' s.w v.' K T T K T w j.Z K K M M J @ A.H H T ' T ' w j.d.| | ' ' s.w c.R K T T K T e j.Z K K H H H l ",
"+X@ x n 3 V J w c.d.s.| ' | s.w c.| T K R K ' w f.Z K w (.L.e $ A.(.XXZ ' T ' w j.d.p.| ' | s.w c.| T K ' K R w f.Z K Z (.L.Z #X",
"U.@ * : 3 A J w x.p.p.s.' | s.w c.' T K E K ' w f.Z K e c g w $ A.c 9.Z ' T E e j.s.p.s.' | s.w c.' T K E K ' w f.Z K Z c g Z |.",
"2 > , q A F R w z.| s.p.' | | w j.' K J ' K ' w f.Z K K J Z J @ A.' | T | T | w f.| p.p.R | | w j.' K J ' K ' w f.Z K K J Z J H ",
"- > < q A G E w f.| p.p.' | | w j.' K J ' T ' C f.Z K K J Z Z @ A.' | T | T | w f.| p.s.' | | w j.' K J ' T ' C f.Z K K J Z Z H ",
"* - 4 x &.9.0.L.L.|.XX@X$X&X%X$X%X*X%X*X%X%X%X*X&XOX X~.L.i.i.  9.i.i.~.'.OX@X%X%X*X&X%X&X&X%X*X%X&X$X$X@XXX|.L.L.i.i.9.>.$.#.c ",
". . . . o o * : : 8 8 a a a a g g g g g g g g g g g g g g g g   g g g g g g g g g g g g g g g g g x x g g a a 4 : : - * * * * * ",
". . . L.6.* : : : : : XXL.: : : : : : (.XX  : : : : : (.XX  :   g : : XXL.: : : : : : XXL.: : : : : : (.XX  : : : : : (.XX  - * ",
". .   &.i * * * = =   9.g = = = = * = c 9.  = = * * = c 9.  =   g =   9.g = = = = =   9.g = = = = = = c 9.  = = * = = c 9.  * * ",
"X > < 0 w C Z , Q Z H H Z H Z , Q Z Z Z Z Z H < I C C C C C C $ ) Z H Z Z Z Z , Q Z H I Z H Z , Q Z Z Z Z Z H , Q C C C C C C 0 ",
"X < q A J K ' w j.R R p.T | T w j.K T T ' T ' w p.K J J H J J $ A.T s.' ' T ' w j.' E p.T | T w j.K T T ' T ' w p.K J H H J H H ",
"$ 0 q V K Y T w j.' ' | T s.' e f.J T T T ' ' w p.K J J J K J @ A.' s.T ' T E e j.' ' | T s.' w f.J T T T ' ' w p.K J J H K H H ",
"@ 5 q V J Y T w j.' ' | E | ' w z.J T T T ' ' C X.K J K J K J @ A.| | T E T T w c.' R | ' | ' w f.J T T T ' ' C p.K H K J K H H ",
"@ , i a C K T C c.' ' s.T | ' w c.J T ' K ' ' C g.H J M $.c M $ A.$.(.H R T T C c.' ' p.T | ' w c.H T ' K R ' C X.H J H $.c H H ",
"@ > *.6.e Y T w c.| R p.T | ' w z.J J ' K ' ' C j.H Z e (.L.w $ A.(.XXZ ' T T w c.| ' p.T | ' w z.J H ' K R ' C p.H Z Z (.L.Z H ",
"@ 1 , 0 J T T w c.R ' p.R p.R w z.H J R T R ' w j.Z Z T w e H $ A.Z Z ' ' R T w c.R R p.R p.R w z.H H ` T R R w p.Z Z T Z Z H H ",
"@ 5 q A J K Y w c.R R | ' p.R w z.K H ` T ' ` C g.Z Z T K K H $ A.p.p.' R T T w c.R R | ' p.R w z.K J R T ' T C p.Z Z T K K H H ",
"# < 5 V F K J w x.' T T ] p.T w s.T K T T ' T w g.C C T T K H $ Z.p.p.T T T J w x.' T T ] p.T w z.T K T T ` T w p.C C T T K F H ",
"# 1 5 V A K J w l.` T T ] X.T w s.T Y Y T T T w p.C F Y Y J F 2 Z.p.] T Y Y J w l.` T T ] X.T w h.T Y Y T T Y w p.C F Y Y J F H ",
"@ < 5 V A J J q k.T T T X.' ' B a.T J K T K T w X.C F K K J F $ C.X.T T K K J q a.T T T ..' ] B k.T J K T K T w X.C F K K J F F ",
"@ < < w V F J q k.T T ' ..E ' w p.T J K T K T w ..F J K B M F @ V.H H T K J J q p.T T ' ..' ' q k.T J K T K T q ..F J K H H F Z ",
"@ & n &.w A F 0 p.Y K R [ T R w p.K F J K F R q } V F w i.8.w % V.i.[.Z J F F 0 p.Y K R [ R R w p.K F J K F R q } V F Z i.6.Z Z ",
"@ % = : q N A 0 X.K K T [ T T w X.K F J K F K 0 [ V F q f i q % M.f *.C J V F 0 X.K K T [ T T w X.K F J K F K 0 [ V F C f a M C ",
"@ , < M V M M 0 ..K K J T J Y w ..J G S G A K 0 ( N N N A A N % n.T K J J N N 0 ..K K J T J Y w ..J S S G A K 0 ( N N N A A N M ",
"O , , M N M V 0 } J J J ( K Y 0 } J J J F A J 0 ( M N M A A M O n.Y J J J M A 0 } K J K ( J Y 0 } J J J F A J 0 ( M M N A A M M ",
"* : i &.>.6.9.9.i.[.XX@X$X$X$X$X$X%X$X*X&X*X*X*X$XOX X~.L.i.i.  9.i.i.!.'.OX@X*X*X%X%X&X&X&X$X$X&X$X$X$X@XXX}.L.L.i.i.9.9.9.6.c ",
". . . o o * * : : 4 8 a a a a g g g g g g g g g g g g g g g g   g g g g g g g g g g g g g g g g g x x g g a a 4 : : - * * * * * ",
". . . (.i.= : : : : :  X(.: = = = = = Q. X  = = * = = Q. X  =   g = * XXU.* = = = = =  X(.= = = = : : U. X  : : : : : U. X  - * ",
". .   #.a * * * = =   >.g = * = = * = c >.  = = * = = c >.  =   g =   >.g = * = = =   >.g * = = = = = c >.  = = = = - c >.  * * ",
"X # % < < 0 0 # B q q q 0 0 q # w 0 0 0 0 0 0 # e 0 0 0 0 0 3 @ C 0 0 0 0 0 0 & B q q q 0 0 q & w 0 0 0 0 0 0 & e 0 0 0 0 0 7 $ ",
"@ , , q N A F 0 ' K K K F F K 5 Y G A F A N F 0 ^ m N m N m m $ z.F F A F F F 5 ( K K K F F K 5 Y G A F A N F 0 ^ m N m N m m $ ",
"# , < q N A A # ..J A F J J J $ ( A V F A V V # ( N N m N N m O h.F F V F A A $ ..D F F J J J # ( A V F V A V # ( N N m N N m # ",
"# , < q M V A $  .J A A J J J $ / A N A N M N # _ N N m w M M O h.A D N A A F $ } J A A J J D # / A N A N M N # _ N N w w M M # ",
"# , > < m N N $ ^ V N N F V F # ^ N N N m m m # ^ N N q 5 1 m X O.q q M N N N # ( V N N F V F % ^ N M N m m m $ ^ N M q q q m # ",
"@ % * * 1 M N # J A N M N N A # J N M N M q M # Q q q 1 i 4 5 X o.i 6.q N N N # J A N M N N A # J N M N M m M # H q q q i 8 q # ",
"+ + * * > 6 m > F M m 6 N M M > V m 6 m 6 5 q , H 5 6 , 8 : , X { 8 #.< m m m > F M m 6 M M M > V m 6 m 6 5 6 , Z 6 5 1 4 : < > ",
"+ % # > 1 5 6 > Z m 6 6 m m m > M 6 6 6 6 6 6 > M 5 1 < , , < X ) 1 < 6 q 6 6 > V m 6 6 m m m & M 6 6 6 5 6 6 > M 1 1 < < < < & ",
"+ # % > , < 1 % B 6 1 1 6 1 6 % w 1 1 1 < < 1 & w 1 < , , < < X W 1 q 1 1 1 5 % B 6 1 1 6 1 6 % w 1 1 5 < < 1 % w 1 < , , < < # ",
"O + % > > , < # w 1 1 5 5 1 5 % q < < 1 , , , # 0 < < > > > , X H 1 q < 1 1 1 % w 1 1 5 5 1 5 % q < < 1 , , , # 0 < < > > > , # ",
". . . X X X X O O O O O O O O O O O O O O O O O O O O O O O O   O O O O O O O O O O O O O O O O O O O O O O O O O O O O O O X X "
};
