/* XPM */
static char *_4b950d72eb04225b78b3cde48ef4c8fGubulH69w3GSjPi9[] = {
/* columns rows colors chars-per-pixel */
"64 64 156 2 ",
"   c #0E100B",
".  c #14130F",
"X  c #18160F",
"o  c #151512",
"O  c #191612",
"+  c #161914",
"@  c #1B1A15",
"#  c #1C1C19",
"$  c #231C14",
"%  c #1E211D",
"&  c #2C210E",
"*  c #39240F",
"=  c #262117",
"-  c #2B2017",
";  c #21231D",
":  c #2D231A",
">  c #2E291C",
",  c #352515",
"<  c #392616",
"1  c #362816",
"2  c #3A2916",
"3  c #362619",
"4  c #392719",
"5  c #36291A",
"6  c #3C2C1B",
"7  c #3E301D",
"8  c #232522",
"9  c #262924",
"0  c #292C26",
"q  c #2C2E2B",
"w  c #342E24",
"e  c #3D2E21",
"r  c #322F29",
"t  c #2E322D",
"y  c #353225",
"u  c #3D3223",
"i  c #31322C",
"p  c #39332A",
"a  c #3C382A",
"s  c #2F3230",
"d  c #303330",
"f  c #412D16",
"g  c #412E1D",
"h  c #43311E",
"j  c #49341E",
"k  c #4C381D",
"l  c #523C1E",
"z  c #422F21",
"x  c #443322",
"c  c #4A3523",
"v  c #463824",
"b  c #4C3A25",
"n  c #433528",
"m  c #493628",
"M  c #473A2B",
"N  c #4D3B29",
"B  c #523C25",
"V  c #583E25",
"C  c #503B29",
"Z  c #523D2A",
"A  c #573C28",
"S  c #533D2F",
"D  c #583F28",
"F  c #583E29",
"G  c #533F31",
"H  c #4F4029",
"J  c #564126",
"K  c #584027",
"L  c #5B4126",
"P  c #52402A",
"I  c #54402B",
"U  c #57432B",
"Y  c #50402E",
"T  c #55412F",
"R  c #57452D",
"E  c #5A412A",
"W  c #5B442C",
"Q  c #5B462D",
"!  c #5E492E",
"~  c #544130",
"^  c #564431",
"/  c #584530",
"(  c #5B4531",
")  c #5A4731",
"_  c #5C4733",
"`  c #5E4933",
"'  c #5F4C31",
"]  c #5A4834",
"[  c #5E4A35",
"{  c #5E4B38",
"}  c #61462C",
"|  c #60452F",
" . c #62492E",
".. c #614730",
"X. c #624735",
"o. c #634A37",
"O. c #644C34",
"+. c #654D36",
"@. c #684C35",
"#. c #694E35",
"$. c #634E39",
"%. c #634D3B",
"&. c #664F39",
"*. c #6A4F39",
"=. c #675231",
"-. c #665135",
";. c #6B5136",
":. c #63523A",
">. c #665038",
",. c #655239",
"<. c #66503A",
"1. c #66513A",
"2. c #695039",
"3. c #6C533A",
"4. c #6D523C",
"5. c #6E543C",
"6. c #6F563D",
"7. c #6E593E",
"8. c #725037",
"9. c #71553B",
"0. c #72573C",
"q. c #78553A",
"w. c #725A3D",
"e. c #7A5D3E",
"r. c #6E5740",
"t. c #6E5942",
"y. c #705741",
"u. c #735843",
"i. c #735C43",
"p. c #765E40",
"a. c #795E45",
"s. c #7A5D46",
"d. c #7B5F49",
"f. c #746143",
"g. c #7B6145",
"h. c #75624A",
"j. c #7D6449",
"k. c #7C644B",
"l. c #7C684E",
"z. c #7F6553",
"x. c #806247",
"c. c #82664C",
"v. c #836A4E",
"b. c #896B4C",
"n. c #816650",
"m. c #846C52",
"M. c #856E54",
"N. c #886C54",
"B. c #896D55",
"V. c #906E51",
"C. c #897155",
"Z. c #8F735A",
"A. c #8C7458",
"S. c #907757",
"D. c #91755A",
"F. c #94795D",
/* pixels */
"i i i r y p p p p p p p p p p p p p p p p p p p p p p p p p r p p p p p p p p p p p p r r p p p p i r r r p p p p i t i i i i i ",
"t i u t t t t t t t t q q q q q t t t t t t t t t t t q t t t t t t t t t t t t t t t t i t t t t t t i i t t t t t t t i i i i ",
"t p x 2 b Q ) N x 7 ] <.O.&.&.<.K E _ ~ Y c g T $.) ` :.M n 3 C I ' ` S N h g h m c u 1 1 u u u u e 3 5 5 6 b P I a t t t i i i ",
"t p x c u.2.I x x 3 x X.4.3.5.5.5.5.D 4 2 6 6 , x b g 2 * h 2 ) <.I j 4 4 c h 4 6 4 3 4 x h f a.N.A.0.B x h 2 5 c R h b R p i i ",
"t p h 2 M 6 3 3 e x , & , 5 5 2 5 5 3 : 3 u u e 5 , 6 5 1 x m 4 2 4 6 4 4 g x x 6 1 , x 6 M.k.l l B -.p.B h 6 1 6 N g 6 H i i i ",
"t p x 2 2 4 4 z h h x 4 1 4 6 e 6 4 3 4 e x m x 4 3 5 , 2 h x 1 6 6 6 4 2 x x h h x x x m _ A | ..Q E #.o.x 6 1 2 v 6 2 b i i i ",
"s p x z < g A g.b.g.v.O.x g 2 2 4 g k 5.C.F.C.2.k g 4 4 x x x x g 2 6 x c J a.A.m.` h x e N ` 5.5.5.O.A g 2 u 4 6 h 6 6 h i i i ",
"t p g x h Z g.p.#.#.5.m.Q c x x z x -.A.p.#.;.a.;.j h g h o._ m x x x h Q A.p. .;.O.b x u Z I 5.2.;.X.B 1 2 x 2 6 7 6 6 h i i i ",
"t p x ^ c Q #.E I I D A x.D.j x x m 7.K  .2.#.Q w.a.b 6 9.8.q.Z h x x R 5. .=.;.9.! g 6 x x N Z c h 4 4 2 2 x 6 6 7 7 6 h i i i ",
"t p h g N o. .;.2.2.;.| V #.3.c x g I O.5.3.O.Q B b m g b { x 6 c c h g J ;.;.;.;.! j 6 x 6 2 2 2 6 4 6 1 2 x x 6 6 x 2 h i i i ",
"t u x g x c Q -.;.2.3.O.E D k.) x 6 C Q X.<._ Z x 1 g g m x 2 h x x h g N ! O.<.#.I h 4 x x 6 6 6 6 6 2 1 6 x x 6 6 x 4 7 i i i ",
"t u x g h h B ! 5.3.3.5.Q Z < 6 c 6 2 6 2 2 4 4 2 1 g x 6 x m b b c h g 6 c b b h 6 6 e x x m h 7 1 1 2 x x x x x h x x h i i i ",
"t u x g b g c I O.2.2.2.) b 6 1 x c 1 2 6 6 4 6 2 1 6 x x B B g.p.X.B h 2 2 6 6 2 6 4 e x x x h c N N N N m x x m b x m b i i i ",
"t u 6 g $.b x g g Z ) R h 6 6 , x x 6 1 1 2 2 6 2 1 6 x S 5.9. .|  .2.Y g 3 4 6 2 1 6 x x x x 7 v d.v.b.k.O.j k 3.h.P f.h.p t i ",
"t p g 2 $.O.g x 6 6 x 6 2 4 6 1 6 x m u 1 , , 5 3 , z x b Q 3.5.2.E D c x m x e h c Q <.$.c h , h y.#.D g g T 3.X.) $.` ` p i i ",
"t y h 4 ` o.C x x 4 2 2 6 6 6 1 1 x x x x 5 1 , 3 3 z 6 c O.;.;.3.#.Q x 6 x x x c <.M.N.A.;.B 2 g :.$.P z x m T _ $.) ..<.p t i ",
"t y x 4 b O.<.c x 4 , , 1 1 1 , 1 u h h c b b c x z x 1 S 4.3.;.;.2.<.x 4 x x g S ` E E B C.l.x 7 6 6 x x 7 6 c b S c B Z i t i ",
"t y u g g T $.m x g 2 1 1 1 3 1 < x N N Q #.#.| Q S m 2 x o.#.#.#.;.O.c 6 6 x x j B X.4.O.2.i.h h m Y x u 2 7 c h 6 h h g i i i ",
"t y y x 5 6 h x x b T ^ m x m h A ) t.O.o.#.#.2.k.b.) x 2 h m B I I B x 6 4 c Z m g x ~ ) T ] g z I k.N 6 4 4 4 2 2 2 2 2 i t i ",
"t p i x x 6 6 u 6 Q x.D.Q h h B a.X.V Q O.#.O.D D O.<.b 1 1 2 6 4 x x 6 2 2 N g.O.z m 6 1 7 N 6 x 6 b c x x 2 < 6 x 4 6 x i t i ",
"t y i x x b N 7 1 Z ;.a.O.h b u. .Q  .;.;.;.O.E B B Z c 6 5 2 2 3 2 2 2 4 g _ m.O.z m c h 4 h 2 6 6 2 5 x x x h h x h h c i i i ",
"t y t u 6 R u.h , b [ P b h o.X.#.5.;.;.;.5.O.I b h 2 h g b Z Z x < 2 2 6 c X.O.b h j I Q B g 6 2 m _ _ ) C z x h h x h h i t i ",
"t y i p 2 c p.T 1 2 6 , 6 h h _ 5.;.3.3.3.2.Q c 6 1 6 h Q 4.a.v.p.h x x 4 B O.Z 4 h j #.f.7.b x x S N.m.b.a._ Q B h I k j i i i ",
"t y p p 6 c 0.` 6 6 6 2 h x 4 Z O.X.X...Q Y x < 4 2 b X.a.u.9.f.k.g g 6 g O.4.C 4 6 j  .#.<.c x g o.9.#.;.w.p.w. .x O.Q c i i i ",
"t y p e 4 h o.` c u x x x x g < Z N c g 2 5 5 2 x b r.g. .#.;.2.I 4 4 g h <.o.g 2 6 b <.u.f 6 x 4 A 5.;.;. .J K O.N B O.c i i i ",
"t p u u 4 x o.2.&.b g x x x x 6 h 6 2 2 2 5 6 h m T 3.#.;.5.=.O.Z 6 2 h g Z b 2 6 h h O.3.c 4 x 1 c O.;.5.;.K E #.N D #.c i i i ",
"t p x x 4 h ) <.k.0.O._ c x x c 2 2 g h b ] S h 6 h E O.O.! I j 6 2 2 x x < 4 4 g h 4 m T 4 6 x 4 2 h I ` ` I | X.N A o.b i i i ",
"i i x x 4 2 x ) ;.e.F.D.B x x h x Z 3.w.k.F.a.c 6 6 c N c 6 2 4 6 5 6 c _ x g b o.A h 4 4 4 z x 6 , 5 2 h b P E A m Z A c i i i ",
"i i x x x 4 4 c Q  .0.k.R x x h z ) g.a.a.g.7.N 6 2 6 6 2 2 6 2 6 u e Z 3.c b O.f.2.) m g x ) Q O.6 3 5 2 6 c m x x m x x i i i ",
"i i u h x 6 < 4 g Z P T B h h c 6 h  .Q E B B c g 2 6 6 5 1 2 2 g x x T Q g N <.=.<.O.b z T k.q.x.` 2 1 , 5 2 2 6 x 6 6 c i i i ",
"i i y c Z m 5 2 2 6 c m g 4 x c 2 h <.;.<.Q b 2 6 6 6 4 h Z ` Q c g x ~ Z g h ! 2.X.j g g Q u.*.O.i.N 6 4 3 3 < 6 x 2 g c i i i ",
"i i y x T ` c 2 2 2 6 6 6 4 ^ x 2 h ! O.X.S c 2 6 h C O. .#.5.9.u.x h ~ N g g c N m g z z c <.*.Q O.Y h x g 6 g x x g x c i i i ",
"i i p u h 2.<.c g 2 2 1 2 c { h 2 6 c b b h 6 2 6 h &.k.#.E B #.V.k h 6 6 g h 6 4 4 6 x z h <.o.N b 7 c 0.2.m h x x x x c i i i ",
"i i p u g Z ) m x h 2 , ` <.b g 6 < g g g 4 6 2 6 h Q X.X.X.X.| e.j h 6 6 g g g x g g h x 6 N b h 6 c <.k.k.<.O.Z u ) N x i i i ",
"i i i u h g g g g ` ` _ l.a.h z x 1 6 6 6 4 4 1 6 6 b E #.3.4.E 0.f g b ) &.O.O.X.X.X.B h < 4 g 4 6 c <.2.2.g.M.$.4 i.) x i i i ",
"t t i u x x x g c O.2.2.O.X.g 6 x 6 4 2 2 4 6 6 6 2 B O.;.3.3.Q ` h Q  .#.#.3.5.9.0.w.#.#.h 1 4 < 6 m N 5.*.5.l.` 6 r.S x i t i ",
"t t i u x x 6 x ` #.#.O.O.o.4 2 m x g 4 g 4 h c 6 1 ] 3.3.3.5.I h x Z ;.#.X.O.O.;.;.5.O.#.c h 6 6 j m x T <.X.Q B x T b x i i i ",
"t t i u x x 4 x o.3.5.5.4.&.6 2 m x B 7.y.2.B h 4 2 ^ <.3.9.9.I 2 x 4 &.5.5.5.5.5.3.2.J h g x h b B 6 7 6 ) T c x x c x m i i i ",
"t t i u x x g 6 c Z T I Z m 6 2 x x Q 5.5.5.5.] 2 1 c Z O.3.3.E 6 x g m T Q _ ` _ Q Z h 4 z g X.<.! i.O.4 x N h x x x x x i i i ",
"t i p u h g g 4 < 6 g g 6 2 2 6 x 6 T #. .Q u.t.6 , 6 h B ` X.Q c x x 1 6 h h c h h g 6 2 x z <.#.E c.n.2 g m 6 x m h x m i i i ",
"t y p u 6 b _ h 6 2 1 , 1 2 6 6 x 1 Q 9.;.O. .B g 1 2 6 g h h Z c 6 x 2 1 6 4 6 6 6 6 6 2 x 6 Q o. .O.3.b g 6 2 6 b 7 h N i i i ",
"t y u x m $.3.b g m c c 3.i.i.r.6 6 b #.O.<.Z 2 7 6 2 3 6 6 6 h 6 1 6 x 2 < 2 2 6 6 6 6 5 u 4 Q 3.2.| Q A g 2 1 6 N 6 h N p i i ",
"t y u h m 3.i.S g { t.7.i.w.0.k.^ 6 6 R R R b 2 6 x 6 3 3 4 6 6 6 1 2 h 6 2 , , 2 2 4 < 1 u 4 X.5.5.| Q c g 6 2 h N h h P i i i ",
"t i u g 6 b Q b h b N b N Z P I m x 1 h h x 6 1 6 h Y N 4 4 4 3 1 6 h t.3.7.u.Q f 6 x z x 6 4 B &.N h h b <.3.$.Z b [ b Z i i i ",
"t i p x g g x x g h h 6 z x x x g h g , 1 < 1 1 g Q #.#.a.c g g 2 t.! X.O.<.5.<.7.T z x x 1 2 g j 6 g I ' O.2.t.Q v <.Z N i i i ",
"t i y h x x g b t.m.v.v.! g x z h ` h < 4 4 4 6 S 3. .| g.l.B g A w.O.| #.O.#.#.7.R g x h , 2 6 2 g a.5.O.X.Q O.I v ` Z N p i i ",
"t y p x x 6 g b ! <.<.<.<.m.j 6 3.! <.k.r.4 x x N Q #.;.O.5.p.f D E O.3.5.3.5.X.B x x Z c 1 5 6 h l.;.#.;.O.I B c c N h c i i i ",
"t i i 7 2 4 B A Q ! I B Q g.c 2 u.J #.p.i.T x z m I #.5.E c <.h f Q ` O.2.5.O.b 6 6 g ) c 2 , 2 c d. .;.3.*.I c x x c h c i i i ",
"i i i 6 1 c #.#.2.2.O.O.Q ! 2.h Q Q 2.#.Q T x x h x c x h 4 6 x h g x h x h h 6 5 6 6 T <.j 6 7 6 E O.5.5.O.b g h c h g c i i i ",
"i i i 6 1 m ;.;.3.3.;.5.Q I ) j g B 0.2._ 6 4 x 6 4 2 2 3 4 u x x 6 4 2 2 2 4 g h x g c ) g.k.g 2 h I Q Q B g 2 6 m g 6 m i i i ",
"i t i 6 1 c #.;.3.3.;.3.I I f g g h 5.5.o.1 4 x 6 1 3 3 2 x x h 6 6 6 6 6 4 2 4 6 x g c ` w.S.h 6 4 h x p g 2 2 6 m 6 6 m i i i ",
"i t i e 1 g A Q O.;.5.O.T x 2 z g 4 Q I j 1 2 x h g g c c x x ) p.3.2.3.p.v.N.m.m.) g h [ 5.9.h.7 1 e 6 5 2 y t p m p u m i i i ",
"i i t y 2 < h B E ` _ ) m 4 2 x g 1 j j 6 2 6 x T p.c.v.n.N x ) &.O.O.#.;.w.a.w.5.Q c 6 ` 5.;.h.x 1 3 1 , 6 x h g x x g x i i i ",
"i i t w u 2 1 6 h b c g < 1 x G x 6 , 1 5 7 m Q Q | ;.;.5.g 6 x 4 ` 3.2.;.;.;.;. .j h 2 m ` ` h 4 x 4 2 h ) u.;.5.Z Q 5.b i i i ",
"i i i q $ 5 e , , 1 , 1 6 x 6 g t.h.2 x x x x T <.;.2.2.X.g 1 m 6 b ) O.O.o.o.) N g 7 4 < 4 4 < 4 c z.k.O.<.O.! ;.Y J 5.N i i i ",
"i i i q # # p n u 6 2 z x m 4 6 <.7.7.h x x m ^ <.5.<.o.Q c 2 x z h b b B P b h 6 6 7 2 , 4 4 < x g i.3.3.3.` Q _ b I _ b i i i ",
"i i t t t 9 @ @ - p x x x x x 4 h b $.g x x x 4 6 6 6 6 6 6 6 x m 1 6 6 6 2 2 2 5 5 6 x x z g m 6 4 c b c c c h b m h N m i i i ",
"i i t t i t 8 @ . X : e n M m m g 2 2 c c x e 1 , , 1 1 2 4 1 x x 3 1 1 1 1 1 < , 4 h x x x x g 1 6 6 6 4 4 6 6 4 x 6 6 x i i i ",
"i i i t i i t q 9 % # O O o O $ 5 y x v c m m m m m m m m m m m x m m m m u e e w w u c m m m g 6 g x x g 6 < , 2 x 6 2 c i i i ",
"i i i i i i i i i i 0 9 ; ; # + + + o o + X + + o o o X o O # = = @ + . o o + # # # # @ @ @ $ - : - $ $ : w u a u > w u : i i i ",
"i i i i i i i i i i t t 0 0 9 8 % % @ + + o + + + + + + + + + o o . o o + # % 8 8 8 8 % ; # + + X o . .   . + @ # + + # o q i i ",
"i i i i i i i i i i i i i i i i i i t i i t i i d d d d i t t 0 0 0 0 0 q d d i i i i i i i i i i t 0 0 8 ; ; 9 t i t i i i i i ",
"i i i i i i i i i i i i i i i i i i i i i i i i t t t t t t t t t t t t t t t i i i i i i i i i i t t t t t t t t t t t i i i i ",
"i i i i i i i i i i i i i i i i i i i i i i i i i i i i i i i i i i i i i i i i i i i i i i i i i i i i i i i i i i i i i i i i "
};
