/* XPM */
static char *_da17cd958764563af128c6ff0264f435eSnDVIorPQSbtbC[] = {
/* columns rows colors chars-per-pixel */
"64 64 132 2 ",
"   c #100D0D",
".  c #15140F",
"X  c #151511",
"o  c #1B1616",
"O  c #161914",
"+  c #1C1B15",
"@  c #1C1C1A",
"#  c #201B14",
"$  c #1F211E",
"%  c #39240F",
"&  c #262117",
"*  c #2B2017",
"=  c #22231C",
"-  c #2D251B",
";  c #2E291C",
":  c #352515",
">  c #392616",
",  c #362816",
"<  c #3A2A16",
"1  c #35271A",
"2  c #39271A",
"3  c #35291A",
"4  c #3C2C1B",
"5  c #3E301D",
"6  c #232523",
"7  c #2D2727",
"8  c #262924",
"9  c #2A2C26",
"0  c #2C2E2A",
"q  c #342E24",
"w  c #3C2E22",
"e  c #322F29",
"r  c #2E322D",
"t  c #353225",
"y  c #3D3224",
"u  c #31322C",
"i  c #39332A",
"p  c #3C382A",
"a  c #2F3230",
"s  c #303330",
"d  c #591010",
"f  c #442E13",
"g  c #412E1D",
"h  c #43311E",
"j  c #48351E",
"k  c #4C391F",
"l  c #523C1E",
"z  c #422F20",
"x  c #443322",
"c  c #493524",
"v  c #463923",
"b  c #4C3A25",
"n  c #423528",
"m  c #483428",
"M  c #473A28",
"N  c #4D3B29",
"B  c #4B3D29",
"V  c #4A392C",
"C  c #523B23",
"Z  c #543A23",
"A  c #523C25",
"S  c #503B29",
"D  c #533E2A",
"F  c #573F29",
"G  c #533D2F",
"H  c #4F4029",
"J  c #564127",
"K  c #5B4126",
"L  c #52402A",
"P  c #54402B",
"I  c #55412B",
"U  c #56452D",
"Y  c #5A412A",
"T  c #5B412D",
"R  c #5B442C",
"E  c #5B462D",
"W  c #5E492E",
"Q  c #574433",
"!  c #584530",
"~  c #5A4731",
"^  c #5B4532",
"/  c #5E4932",
"(  c #5F4C31",
")  c #5A4834",
"_  c #5E4A35",
"`  c #5E4A39",
"'  c #60462C",
"]  c #634A2F",
"[  c #614730",
"{  c #644D33",
"}  c #634A37",
"|  c #654D36",
" . c #694E35",
".. c #634E39",
"X. c #675231",
"o. c #665136",
"O. c #6B5136",
"+. c #63523A",
"@. c #65503B",
"#. c #66503A",
"$. c #695039",
"%. c #6B533A",
"&. c #6D553A",
"*. c #70543A",
"=. c #72573C",
"-. c #725A3C",
";. c #6D5740",
":. c #6F5941",
">. c #705640",
",. c #735843",
"<. c #765E40",
"1. c #745D44",
"2. c #7A5D46",
"3. c #7C5F49",
"4. c #726043",
"5. c #7A6046",
"6. c #7D6145",
"7. c #74624A",
"8. c #7D644A",
"9. c #7C684E",
"0. c #BC1313",
"q. c #836B4D",
"w. c #856B53",
"e. c #866F52",
"r. c #856E54",
"t. c #896E56",
"y. c #8A7154",
"u. c #8B7358",
"i. c #8F735A",
"p. c #8C7458",
"a. c #DBCDCD",
"s. c #F0EAEA",
/* pixels */
"u u u q t i i i i i i i i i i i i i i i i i i i i i i i i i e i i i i i i i i i i i i q q i i i i u e e e i i i i u r u u u u u ",
"r u y r r r r r r r r 0 0 0 0 o o o o o o o 7 r r r r 0 r r r r r r r r r r r r r r r r u r r r r r r r u r r r r r r r u u u u ",
"r i x < b E ~ B x 5 ) #.| o o o o o o o 7 7 7 7 7 7 7 +.V n 1 S P ( _ D B h g h c c y , , y x y y w 1 3 , 4 b L P p r r r u u u ",
"r i x c ,.$.P x n 1 x o o o o o o 7 7 7 7 7 7 7 7 7 7 7 % h , ~ #.P j 4 4 c h 4 4 2 1 2 x h f 2.t.i.=.C x h < , c U h N U u u u ",
"r i h , M 4 1 1 w o o o o o o o 7 7 7 7 7 7 7 7 7 7 7 7 7 n n 2 < 2 4 2 2 g x x 4 : : x 4 r.8.l l C X.<.Z h 4 : 4 B g 4 H u u u ",
"r i x , < 2 2 z o o o o o o o o 7 7 7 7 7 7 7 7 7 7 7 7 7 7 x , 4 4 4 2 < x x x h x x x n ~ F ' [ T Y  .} x 4 : , v 4 , b u u u ",
"a i x z > g F 6.o o o o o o o 7 7 7 7 7 7 7 7 7 7 7 7 7 7 7 7 7 g < 4 x c J 1.u.e./ h x w N / &.&.&.| F g < y 2 4 h 4 4 h u u u ",
"r i g x h D 5.o o o o o o o o 7 7 7 7     7 7 7 7 7 7 7 7 7 7 7 7 x x h E p.<.] O.| N x y D P &.$.O.[ A , < x < 4 5 4 4 h u u u ",
"r i x Q c T o o o o o o 7 o 7 7 7 7         7 7 7 7 7 7 7 7 7 7 7 7 x U &.] O.O.*.W g 4 n x N D c h 4 4 < < x 4 4 5 5 4 h u u u ",
"r y h g N o o o o o o o 7 7 7 7 7 7   s.      7 7 7 7 7 7 7 7 7 7 7 7 7 J O.O.O.O.W h 4 x 4 , < < 4 2 4 : < x x 4 4 x < h u u u ",
"r y x g x o o o o o o o 7 7 7 7 7 7           7 7 7 7 7 7 7 7 7 7 7 7 7 7 W | o.{ P h 2 x x 4 4 4 4 4 < : 4 x x 4 4 x 4 h u u u ",
"r y x g o o o o o o o 7 7 7 7 7 7 7 7       7 7 7 7 7 7 7 7 7 7 7 7 7 7 7 7 b N h 4 4 w x x n h 5 : : < n x x x x h x x h u u u ",
"r y x g o o o o o 7 o 7 7 7 7 7 7 7 7 7 7 7 7 7 7 7 7 7 7 7 7 7 7 7 7 7 7 7 7 4 < 4 2 z x x x h c B N N N n x x c b x c b u u u ",
"r y 4 o o o o o 7 7 7 7 7 7 7 7 7 7 7 7 7 7 7 7 7 7 7 7 7 7 7 7 7 7 7 7 7 7 7 7 < : 4 x x x x 5 v 3.q.q.8.| j k $.7.L 4.7.u r u ",
"r y g o o o o o 7 7 7 7 7 7 7 7 7 7 7 7 7 7 7 7 7 7 7 7 7 7 7 7 7 7 7 7 7 7 7 7 7 c T #...c h : h >. .F g g P &.[ ~ ../ / u u u ",
"r t h o o o o 7 7     7 7 7 7 7 7 7 7 7 7 7 7 a.a.7 7 7 7 7 7 7 7 7 7 7 7 7 7 7 7 7 r.t.u.O.A , g +...L z x c P ~ ..~ [ #.u r u ",
"r t x o o o o 7         7 7 7 7 7 7 7 7       a.a.7 7 7 7 7 7 7 7 7 7 7 7 7 7 7 7 7 7 K Z y.9.x 5 4 4 x x 5 4 c N D c C D u u u ",
"r t y o o o o 7   s.      7 7 7 7 7 7           a.a.7 7 7 7 7 7 7 7 7 7 7 7 7 7 7 7 7 7 | $.1.h h c P x y < 5 c h 4 h h g u u u ",
"r t t o o o o 7           7 7 7 7 7         0.0.0.7 7 7 7 7 7 7 7 7 7 7 7 7 7 7 7 7 7 7 7 P ) g z P 8.N 4 2 4 4 < < < , < u u u ",
"r i i o o o o 7 7       7 7 7 7 7           0.0.0.0.7 7 7 7 7 7 7 7 7 7 7 7 7 7 7 7 7 7 7 7 B 4 x 4 b c n x < > 4 x 4 4 x u u u ",
"r t u o o o o o o 7 7 7 7 7 7 7 7             0.0.0.7 7 7 7 7 7 7 7 7 7 7 7 7 7 7 7 7 7 7 7 7 < 4 4 < , x x x h h x h h c u u u ",
"r t r o o o o o o o 7 7 7 7 7 a.a.            0.0.0.7 7 7 7 7 7 7 7 7 7 7 7 7 7 7 7 7 7 7 7 7 7 < c ~ ~ ~ S z x h h x h h u u u ",
"r t u o o o o o o o 7 7 7 7 7 a.a.    d d d d d 0.0.0.7 7 7 7 7 7 7 7 7 o o 7 7 7 7 7 7 7 7 7 7 7 G t.w.q.1.~ E C h P k h u u u ",
"r t i y o o o o o o 7 7 7 7 7 7 a.a.d d d d d d 0.0.0.7 7 7 7 7 7 7 7 7 o o 7 7 7 7 7 7 7 7 7 7 7 7 *. .O.-.<.-.] x | E c u u u ",
"r t y w o o o o o o 7 7 7 7 7 7 7 a.7 7 d d d d d 0.0.7 7 7 7 7 7 7 7 7 o o o 7 7 7 7 7 7 7 7 7 7 7 &.O.O.] J K { N A | c u u u ",
"r i y y 4 o o o o o 7 7 7 7 7 7 7 7 7 7 7 7 7 d d d 0.7 7 7 7 7 7 7 7 7   o o o 7 7 7 7 7 7 7 7 7 7 7 O.&.O.K K { N F  .c u u u ",
"r i n x 1 o o o o o o 7 7 7 7 7 7 7 7 7 7 7 7 7 d d 0.0.7 7 7 7 7 7 7 7   o o o 7 7 7 7 7 7 7 7 7 7 7 P / / E ' [ N F { b u u u ",
"u u x x < < o o o o o o 7 7 7 7 7 7 7 7 7 7 7 7 d d d 0.7 7 7 7 7 7 7 7   o o o 7 7 7 7 7 7 7 7 7 7 7 7 h b L Y F n D F c u u u ",
"u u x x z 4 4 o o o o o 7 7 7 7 7 7 7 7 7 7 7 7 7 d d 0.7 7 7 7 7 7 7 7 7   o o 7 7 7 7 7 7 7 7 7 7 7 7 < 4 c c x x n x x u u u ",
"u u y h x 4 > 7 o o o o o 7 7 7 7 7 7 7 7 7 7 7 7 7 d 0.7 7 7 7 7 7 7 7 7   o o o 7 7 7 7 7 7 7 7 7 7 7 : , < < 4 n 4 4 c u u u ",
"u u y c D c , < o o o o o o 7 7 7 7 7 7 7 7 7 7 7 7 7 7 7 7 7 7 7 7 7 7     o o o 7 7 7 7 7 7 7 7 7 7 7 2 1 1 > 4 n < g c u u u ",
"u u t x P _ c < o o 7 o o 7 7 7 7 7 7 7 7 7 7 7 7 7 7 7 7 7 7 7 7 7 7     o o o o o 7 7 7 7 7 7 7 7   7 x g 4 g x n g x c u u u ",
"u u i y j $.#.c o o o 7 7 7 7 7 7 7 7 7 7 7 7 7 7 7 7 7 7 7 7 7 7 7 7     o o o o 7 7 7 7 7 7 7 7     7 7 #.c h x n x x c u u u ",
"u r i y g D ~ c o o o 7 7 7 7 7 7 7 7   7 7 7 7 7 7 7 7 7 7 7 7 7 7     o o o 7 o 7 7 7 7 7 7 7 7   7 7 7 5.#.| D y ~ N x u u u ",
"u u u y h g g g o o o 7 7 7 7 7 7 7 7       7 7 7 7 7 7 7 7 7 7 7     o o o o 7 7 7 7 7 7 7 7 7     7 7 7 $.5.r...4 1.~ x u u u ",
"r r u y x x x g o o o o 7 7 7 7 7 7 7 7 7     7 7 7 7 7 7 7 7 7     o o 7 7 7 7 7 7 7 7 7 7 7     7 7 7 7 7 &.8.[ 4 ;.G x u u u ",
"r r u y x x 4 x o o o o 7 7 7 7 7 7 7 7 7 7     7 7 7 7 7 7 7   o   7 o 7 7 7 7 7 7 7 7 7 7 7   7 7 7 7 7 7 [ W C x P c x u u u ",
"r r u y x x 2 x } o o o 7 7 7 7 7 7 7 7 7 7 7     7 7 7 7 7 7     o 7 7 7 7 7 7 7 7 7 7 7       7 7 7 7 7 7 P c x n c x n u u u ",
"r r u y x x g 4 c o o o o 7 7 7 7 7 7 7 7 7 7 7   7 7 7 7 7 7     7 7 7 7 7 7 7 7 7 7 7     7 7 7 7 7 7 7 7 N h x n x x n u u u ",
"r u i y h g g 2 > o o o o o o 7 7 7 7 7 7 7 7 7     7 7 7 7 7 7       7 7 7 7 7 7 7       7 7 7 7 7 7 7 7 7 c 4 x n h x n u u u ",
"r t y y 4 N ~ h 4   o o o o o o 7 7 7 7 7 7 7 7 7     7 7 7 7 7 7 7                 7 7 7 7 7 7 7 7 7 7 7 7 4 < 4 b h h B u u u ",
"r t y x n ..&.b g n   o o o o o 7 7 7 7 7 7 7 7 7 7   7 7 7 7 7 7 7 7 7 7 7 7 7 7 7 7 7 7 7 7 7 7 7 7 7 7 7 < : 4 N 4 h N i u u ",
"r t y h n &.1.G g `     o o o 7 o o 7 7 7 7 7 7 7 7   7 7 7 7 7 7 7 7 7 7 7 7 7 7 7 7 7 7 7 7 7 7 7 7 7 7 7 4 < h N h h L u u u ",
"r u y g 4 N E b h b N     o o o o o o o o 7 7 7 7 7   7 7 7 7 7 7 7 7 7 7 7 7 7 7 7 7 7 7 7 7 7 7 7 7 7 7 7 &...D b ` b D u u u ",
"r u y x g g x x g h h 4     o o o o o o o o o 7 7 7   7 7 7 7 7 7 7 7 7 7 7 7 7 7 7 7 7 7 7 7 7 7 7 7 7 7 7 $.:.E v #.D N u u u ",
"r u t h x x g N :.w.q.q.o o     o o o o o o o o       7 7 7 7 7 7 7 7 7 7 7 7 7 7 7 7 7 7 7 7 7 7 7 7 7 7 7 E | P v / A N i u u ",
"r t i x x 4 g b W | o.o.o o o                     7 7 7 7 7 7 7 7 7 7 7 7 7 7 7 7 7 7 7 7 7 7 7 7 7 7 7 7 7 P A c c N h c u u u ",
"r u u 5 < 4 C F W W P A o o o o 7 7 7 7 7 7 7 7 7 7 7 7 7 7 7 7 7 7 7 7 7 7 7 7 7 7 7 7 7 7 7 7 7 7 7 7 7 7 P c x x c h c u u u ",
"u u u 4 : c {  .$.$.| | o o o o 7 7 7 7 7 7 7 7 7 7 7 7 7 7 7 7 7 7 7 7 7 7 7 7 7 7 7 7 7 7 7 7 7 7 7 7 7 7 N g h c h g c u u u ",
"u r u 4 : c O.O.O.O.O.&.o o o o o o o 7 7 7 7 7 7 7 7 7 7 7 7 7 7 7 7 7 7 7 7 7 7 7 7 7 7 7 7 7 7 7 7 7 7 7 g , 4 n g 4 n u u u ",
"u r u 4 : c  .O.O.O.O.$.o o o o o o o 7 7 7 7 7 7 7 7 7 7 7 7 7 7 7 7 7 7 7 7 7 7 7 7 7 7 7 7 7 7 7 7 7 7 7 , , 4 n 4 4 n i u u ",
"u r u w : g P E { O.&.| o o o o o o 7 7 7 7 7 7 7 7 7 7 7 7 7 7 7 7 7 7 7 7 7 7 7 7 7 7 7 7 7 7 7 7 7 7 7 7 t r y n i y n i u u ",
"u u r t < > h A Y / ~ ~ o o o 7 7 7 7 7 7 7 7 7 7 7 7 7 7 7 7 7 7 7 7 7 7 7 7 7 7 7 7 7 7 7 7 7 7 7 7 7 7 7 x h g n x g x u u u ",
"u u r q y < : 4 h b c g o o o 7 7 7 7 7 7 7 7 7 7 7 7 7 7 7 7 7 7 7 7 7 7 7 7 7 7 7 7 7 7 7 7 7 7 7 7 7 7 7 ,.O.&.D W &.N u u u ",
"u u u 0 # 3 w : : : : : o o o 7 7 7 7 7 7 7 7 7 7 7 7 7 7 7 7 7 7 7 7 7 7 7 7 7 7 7 o o 7 7 7 7 7 7 7 7 7 7 { W O.P J &.N u u u ",
"u u u 0 @ + y n y 4 < z o o 7 7 7 7 7 7 7 7 7 7 7 7 7 7 7 7 7 7 7 7 7 7 7 7 7 o o o o o o o 7 7 7 7 7 7 7 7 / W ~ b P ~ b u u u ",
"u u r r r 8 + + * y n n o o 7 7 7 7 7 7 o o o o o o o o o o o o o o o o o o o o , , 4 x o o o 7 7 7 7 7 7 7 c h b c h N c u u u ",
"u u r r u r 6 + . . - w o 7 7 7 7 7 7 o o o o : : : : : < 2 : x x 1 : , : : : > : 4 h x n o o 7 7 7 7 7 7 7 4 4 4 x 4 4 x u u u ",
"u u u r u u r 0 8 $ @ X o 7 7 7 7 7 o o o o o n c c n n n c c c x c n n n y w w q w y c m o o 7 7 7 7 7 7 7 > : , x 4 < c u u u ",
"u u u u u u u u u u 9 8 o 7 7 7 7 7 o o o o o O X X X . X X + & & + X . X X o @ @ @ @ o + o o o o 7 7 7 7 7 y p y ; q y - u u u ",
"u u u u u u u u u u r r o 7 7 7 7 o o o o o O O O O O O O O O X X . X X O @ $ 6 6 6 6 $ = @ o o o 7 7 7 7 7 O + + O o + X 0 u u ",
"u u u u u u u u u u u u o o 7 7 7 o o o o r u u s s s s u r r 9 9 9 9 9 0 s s u u u u u u u o o o 7 7 7 7 7 = 8 r u r u u u u u ",
"u u u u u u u u u u u u u o o 7 7 7 o o u u u u r r r r r r r r r u u r r a r u u u u u u u u o o 7 o 7 7 r r r r r r r u u u u ",
"u u u u u u u u u u u u u u o o o o o u u u u u u u u u u u u u u u u u u u u u u u u u u u u u o o o o u u u u u u u u u u u u "
};
