/* XPM */
static char *_84910984c7448eee7f901c099f027db14ITnmZGuqg0ggYg[] = {
/* columns rows colors chars-per-pixel */
"64 64 132 2 ",
"   c #100D0D",
".  c #15140F",
"X  c #151511",
"o  c #1B1616",
"O  c #161914",
"+  c #1C1A15",
"@  c #1C1C1A",
"#  c #221C15",
"$  c #1F211E",
"%  c #2C210E",
"&  c #262117",
"*  c #2B2017",
"=  c #22231C",
"-  c #2D251B",
";  c #2E291C",
":  c #352515",
">  c #392616",
",  c #362816",
"<  c #3A2916",
"1  c #35271A",
"2  c #39271B",
"3  c #36291A",
"4  c #3C2C1B",
"5  c #3E301D",
"6  c #232523",
"7  c #2D2727",
"8  c #262924",
"9  c #2A2C27",
"0  c #2B2E2A",
"q  c #342E24",
"w  c #3B2E22",
"e  c #322F29",
"r  c #2E322D",
"t  c #353225",
"y  c #3D3224",
"u  c #31322C",
"i  c #39332A",
"p  c #3C382A",
"a  c #2F3230",
"s  c #303330",
"d  c #591010",
"f  c #442E13",
"g  c #412E1D",
"h  c #43311E",
"j  c #48341F",
"k  c #4C391F",
"l  c #523C1E",
"z  c #422F20",
"x  c #443322",
"c  c #493624",
"v  c #463923",
"b  c #4B3A25",
"n  c #423528",
"m  c #483428",
"M  c #473A28",
"N  c #4D3C29",
"B  c #533C25",
"V  c #583D24",
"C  c #533D2A",
"Z  c #583E29",
"A  c #4F4029",
"S  c #554126",
"D  c #5B4126",
"F  c #55422B",
"G  c #584129",
"H  c #5A412A",
"J  c #59442D",
"K  c #5B442C",
"L  c #5B462D",
"P  c #5F492E",
"I  c #544130",
"U  c #574432",
"Y  c #5A4731",
"T  c #5C4733",
"R  c #5E4933",
"E  c #5A4834",
"W  c #5E4A39",
"Q  c #60452F",
"!  c #61492F",
"~  c #614730",
"^  c #624735",
"/  c #664C33",
"(  c #664E33",
")  c #634A37",
"_  c #624D37",
"`  c #644D34",
"'  c #674C37",
"]  c #694E35",
"[  c #664F39",
"{  c #665035",
"}  c #6A5136",
"|  c #64503B",
" . c #66503A",
".. c #695039",
"X. c #6A5238",
"o. c #6B533A",
"O. c #6D553B",
"+. c #6D523C",
"@. c #6E543C",
"#. c #6E5A3C",
"$. c #71573D",
"%. c #725A3C",
"&. c #795D3D",
"*. c #6D5740",
"=. c #6E5A41",
"-. c #705640",
";. c #735843",
":. c #755B40",
">. c #745C43",
",. c #785D44",
"<. c #7C5F49",
"1. c #726043",
"2. c #7F6041",
"3. c #7B6046",
"4. c #7D6145",
"5. c #74624A",
"6. c #7D6449",
"7. c #7E654B",
"8. c #BC1313",
"9. c #81654B",
"0. c #826B4B",
"q. c #836B4D",
"w. c #896B4C",
"e. c #836B53",
"r. c #846B52",
"t. c #856E54",
"y. c #886C54",
"u. c #8F735A",
"i. c #92755B",
"p. c #95795A",
"a. c #DBCDCD",
"s. c #F0EAEA",
/* pixels */
"u u u q t i i i i i i i i i i i i i i i i i i i i i i i i i e i i i i i i i i i i i i q q i i i i u e e e i i i i u r u u u u u ",
"r u y r r r r r r r r 0 0 0 0 0 r r r r r r r r r o o o o o o o o o o o o o r r r r r u u r r r r r r u u r r r r r r r u r u u ",
"r i x < b L Y N x 5 E  .' [ [  .H H T I F c o o o o o o o o o o o o o 7 o o o o c c y , , y y y y w 1 3 3 4 b F F p r r r u u u ",
"r i x c ;...F x x 1 x ^ +...@.@.@.@.Z 4 o o o o o o o o o o o o o o o 7 7 7 o 7 o 2 1 2 x h f ,.y.u.$.B x h < 3 c L h b L u u u ",
"r i h , M 4 1 1 w x : % : 3 3 < 3 3 o o o o o o o o o o o o o o o o 7 7 7 7 7 7 7 7 : x 4 t.7.l l B { :.B h 4 : 4 N g 4 A u u u ",
"r i x , < 2 2 z h h x 2 : 2 4 w 4 o o o o o o o o o o o o o o o 7 7 7 7 7 7 7 7 7 7 7 x c T Z Q ~ L H ] ) x 4 : , v 4 , b u u u ",
"a i x z > g Z 4.w.2.0._ x g < < 4 o o o o o 7 o o o o 7 7 7 7 7 7 7 7 7 7 7 7 7 7 7 7 7 w N R @.O.O.' Z g < y 2 4 h 4 4 h u u u ",
"r i g x h C 3.:./ / O.e.L c x x o o o o o o 7 7 7 o 7 7 7 7 7 7 7 7 7 7 7 7 7 7 7 7 7 7 y C F O...} ' C , < x < 4 5 4 4 h u u u ",
"r i x U c L ] H F F Z Z 9.i.j x o o o o o 7 7 7 7 7 7 7 7 7 7 7 7 7       7 7 7 7 7 7 7 7 x N C c h 4 4 < < x 4 4 5 5 4 h u u u ",
"r y h g N ) ! } ....} Q V / ..o o o o 7 7     7 7 7 7 7 7 7 7 7 7         7 7 7 7 7 7 7 7 4 , < < 4 2 4 : < x x 4 4 x < h u u u ",
"r y x g x c L { } ....' H Z o o o o o 7         7 7 7 7 7 7 7 7 7   s.    7 7 7 7 7 7 7 7 x 4 4 4 4 4 < : 4 x x 4 4 x 4 h u u u ",
"r y x g h h C P O.....@.L C o o o o 7 7   s.    7 7 7 7 7 7 7 7 7       7 7 7 7 7 7 7 7 7 7 c h 5 : : < x x x x x h x x h u u u ",
"r y x g b g c F ' ......Y b o o o o o 7         7 7 7 7 7 7 7 7 7 7     7 7 7 7 7 7 7 7 7 7 x h c N N N N c x x c b x c b u u u ",
"r y 4 g _ b x g g C Y L h 4 o o o o o o       7 7 7 7 7 7 7 7 7 7 7 7 7 7 7 7 7 7 7 7 7 7 7 x 5 v <.0.w.7._ j k ..5.F 1.5.u r u ",
"r y g < _ _ g x 4 4 x 4 < o o o o o o o 7 7 7 7 7 7 7 7 7 7 7 7 7 7 7 7 7 7 7 7 7 7 7 7 7 7 7 : h -.] Z g g F O.' Y _ R R u u u ",
"r t h 4 T ) C x x 4 < < 4 o o o o o o 7 7 7 7 7 7 7 7 7 7 7 7 7 7 7 7 7 7 7 7 7 7 7 7 7 7 7 7 , g  ._ F z x c F T [ Y ~ ..u r u ",
"r t x 4 b ' ..c x 4 : : : o o o o o o 7 7 7 7 7 7 7 7 7           7 7 7 7 7 7 7 7 7 7 7 7 7 7 x 5 4 4 x x 5 4 c b C c B C u u u ",
"r t y g g F _ c x g , : : o o o o o 7 7 7 7 7 7 7 7               a.a.7 7 7 7 7 7 7 7 7 7 7 7 7 h c F x y < 5 c h 4 h h g u u u ",
"r t t x 3 4 h x x b F U c o o o o o 7 7 7 7 7 7 a.a.              a.a.7 7 7 7 7 7 7 7 7 7 7 7 7 z F 7.N 4 2 4 4 < < < , < u u u ",
"r i u x x 4 4 y 4 L 9.i.L o o o o o 7 7 7 7 7 7 a.a.          8.8.  a.7 7 7 7 7 7 7 7 7 7 7 7 7 7 4 b c x x < > 4 x 4 4 x u u u ",
"r t u x x b N 5 , C } ,.' o o o o o 7 7 7 7 7 7 a.d d d d     8.8.7 7 7 7 7 7 7 7 7 7 7 7 7 7 7 7 4 < 3 x x x h h x h h c u u u ",
"r t r y 4 L ;.h : b W F b o o o o o 7 7 7 7 7 7 a.7 d d d d d 8.7 7 7 7 7 7 7 7 7 7 7 7 7 7 7 7 7 7 T T Y C z x h h x h h u u u ",
"r t u y < b :.F : , 4 : 4 o o o o o 7 7 7 7 7 7 7 7 7 d d d d 8.7 7 7 7 7 7 7 7 7 7 7 7 7 7 7 7 7 7 7 r.q.,.T L B h F k h u r u ",
"r t i y 4 c $.R 4 4 4 , o o 7 o o o 7 7 7 7 7 7 7 7 7 7 d d d 7 7 7 7 7 7 7 7 7 7 7 7 7 7 7 7 7 7 7 7 7 } %.:.%.! x ' L c u r u ",
"r t y w 4 h ) T c y x x o o o o o o 7 7 7 7 7 7 7 7 7 7 7 d d 7 7 7 7 7 7 7 7 7 7 7 7 7 7 7 7 7 7 7 7 7 } ! D D / N B ' b u u u ",
"a i y y 4 x ) ..[ b g o o o 7 7 7 7 7 7 7 7 7 7 7 7 7 7 7 d 7 7 7 7 7 7 7 7 7 7 7 7 7 7 7 7 7 7 7 7 7 7 7 } D H / N Z ] b u r u ",
"r i x x 1 h Y ..7.$.' o o o 7 7 7 7 7 7 7 7 7 7 7 7 7 7 7 7 7 7 7 7 7 7 7 7 7 7 7 7 7 7 7 7 7 7 7 7 7 7 7 R L Q ' N Z ) b u u u ",
"r u x x 4 < x Y } &.p.o o o o 7 7 7 7 7 7 7 7 7 7 7 7 7 7 7 7 7 7 7 7 7 7 7 7 7 7 7 7 7 7 7 7 7 7 7 7 7 7 7 F H Z c C Z c u u u ",
"u u x x z 4 4 c L ! $.o o o 7 7 7 7 7 7 7 7 7 7 7 7 7 7 7 7 7 7 7 7 7 7 7 7 7 7 7 7 7 7 7 7 7 7 7 7 7 7 7 7 7 c x x c x x u u u ",
"u u y h x 4 > 4 g C o o o o 7 7 7 7 7 7 7 7 7 7 7 7 7 7 7 7 7 7 7 7 7 7 7 7 7 7 7 7 7 o 7 7 7 7 7 7 7 7 7 7 7 < 4 x 4 4 c u u u ",
"u u y c C c 3 < < 4   o o o 7 7 7 7 7 7 7     7 7 7 7 7 7 7 7 7 7 7 7 7 7 7 7 7 7 7   o o 7 7 7 7 7 7 7 7 7 7 > 4 x < g c u u u ",
"u u t x F T c < < <   o o o 7 7 7 7 7 7 7 7     7 7 7 7 7 7 7 7 7 7 7 7 7 7 7 7 7 7   o o 7 7 7 7 7 7 7 7 7 7 g x x g x c u u u ",
"u u i y j .. .c g <   o o o o 7 7 7 7 7 7 7 7   7 7 7 7 7 7 7 7 7 7 7 7 7 7 7 7 7 7   o o o 7 7 7 7 7 7 7 7 7 h x x x x c u u u ",
"u r i y g C Y c x h   o o o o o 7 7 7 7 7 7 7   7 7 7 7 7 7 7 7 7 7 7 7 7 7 7 7 7 7   o o o 7 7 7 7 7 7 7 7 7 _ C y Y N x u u u ",
"u u u y h g g g g R   o o o o o 7 7 7 7 7 7 7   7 7 7 7 7 7 7 7 7 7 7 7 7 7 7 7 7 7   o o o o 7 7 7 7 7 7 7 7 t._ 2 >.U x u r u ",
"r r u y x x x g c '   o o o 7 7 7 7 7 7 7 7 7   7 7 7 7 7 7 7 7 7 7 7 7 7 7 7 7 7 7   o o o o 7 7 7 7 7 7 7   7.R 4 *.C x u r u ",
"r r u y x x 4 x R / o   o o o o 7 7 7 7 7 7 7   7 7 7 7 7 7 7 7 7 7 7 7 7 7 7 7 7 7   o o o 7 7 7 7 7 7 7 7   L B x F b x u u u ",
"r r u y x x 2 x ) ..O.    o o o 7 7 7 7 7 7 7   7 7 7 7 7 7 7 7 7 7 7 7 7 7 7 7 7 7   o o o 7 7 7 7 7 7 7   7 c x x c x c u u u ",
"r r u y x x g 4 c C F F   o o o o o 7 7 7 7 7   7 7 7 7 7 7 7 7 7 7 7 7 7 7 7 7 7 7   o o o 7 7 7 7 7 7     N h x x x x x u u u ",
"r u i y h g g 2 > 4 g g   o o o o o 7 7 7 7 7   7 7 7 7 7 7 7 7 7 7 7 7 7 7 7 7 7 7   o o o 7 7 7 7 7   7 7 c 4 x c h x c u u u ",
"r t y y 4 b T h 4 < : : o o   o o o o 7 7 7 7   7 7 7 7 7 7 7 7 7 7 7 7 7 7 7 7 7 7   o o o 7 7 7     7 7 7 4 < 4 b 5 5 N u u u ",
"r t y x c _ O.b g c b b o o 7     o o 7 7 7 7   7 7 7 7 7 7 7 7 7 7 7 7 7 7 7 7 7 7 7   o 7 7 7   7 7 7 7 7 < : 4 N 4 h N i u u ",
"r t y h c O.>.C g W =.#.o o o 7 7   o o 7 7   7 7 7 7 7 7 7 7 7 7 7 7 7 7 7 7 7 7 7 7           7 7 7 7 7 7 4 < h N h h F u u u ",
"r u y g 4 b L b h b N b o o o o 7 7           7 7 7 7 7 7 7 7 7 7 7 7 7 7 7 7 7 7 7 7 7 7 7 7 7 7 7 7 7 7 7 O._ C b W b C u u u ",
"r u y x g g x x g h h 4 o o o o 7 7 7 7 7 7 7 7 7 7 7 7 7 7 7 7 7 7 7 7 7 7 7 7 7 7 7 7 7 7 7 7 7 7 7 7 7 7 ..=.L b  .C N u u u ",
"r u t h x x g b =.e.q.0.o o o o o 7 7 7 7 7 7 7 7 7 7 7 7 7 7 7 7 7 7 7 7 7 7 7 7 7 7 7 7 7 7 7 7 7 7 7 7 7 L ' F b R C N i u u ",
"r t i x x 4 g b P ' { { o o o o o 7 7 7 7 7 7 7 7 7 7 7 7 7 7 7 7 7 7 7 7 7 7 7 7 7 7 7 7 7 7 7 7 7 7 7 7 7 F C c c N h b u u u ",
"r u u 5 < 4 B Z L P F B o o o o o o 7 7 7 7 7 7 7 7 7 7 7 7 7 7 7 7 7 7 7 7 7 7 7 7 7 7 7 7 7 7 7 7 7 7 7 7 F c x x b h c u r u ",
"u u u 4 : c / ] ....' ' o o o o 7 o 7 7 7 7 7 7 7 7 7 7 7 7 7 7 7 7 7 7 7 7 7 7 7 7 7 7 7 7 7 7 7 7 7 7 7 7 b g h c h g c u u u ",
"u r u 4 : c } } ....} O.o o o o o o o 7 7 7 7 7 7 7 7 7 7 7 7 7 7 7 7 7 7 7 7 7 7 7 7 7 7 7 7 7 7 7 7 7 7 7 g , 4 c g 4 c u u u ",
"u r u 4 : c / } ....} ..o o o o o o o 7 7 7 7 7 7 7 7 7 7 7 7 7 7 7 7 7 7 7 7 7 7 7 7 7 7 7 7 7 7 7 7 7 7 7 , , 4 c 4 4 c u u u ",
"u r u w : g F L / } O.' o o o o o o 7 7 7 7 7 7 7 7 7 7 7 7 7 7 7 7 7 7 7 7 7 7 7 7 7 7 7 7 7 7 o o 7 7 7 7 t r y c i y c u u u ",
"u u r t < > h C H R T Y o o o 7 7 7 7 7 7 7 7 7 7 7 7 7 7 7 7 7 7 7 7 7 7 7 7 7 7 7 7 7 7 7 o o o o 7 7 7 7 x h g x x g x u u u ",
"u u r q y < : 4 h b c g > o o o 7 7 7 7 7 7 7 7 7 7 7 7 7 7 7 7 7 7 7 7 7 7 7 7 7 7 7 o o o o o o 7 7 7 7 7 ;.} O.C L @.b u u u ",
"u u u 0 # 1 w : : : : : 4 o o o 7 7 7 7 7 7 7 7 7 7 7 7 7 7 7 7 7 7 7 7 7 7 7 7 o o o o o o o o o 7 7 7 7 7 ' P } F S @.N u u u ",
"u u u 0 @ + y n y 4 < z x o o 7 7 7 7 7 7 7 7 7 7 7 7 7 7 7 7 7 7 7 7 7 o o o o o 4 5 < : o o o o 7 7 7 7 7 7 L T b F T b u u u ",
"u u r r r 8 + + * y x x x o o 7 7 7 7 7 7 o o o o o o o o o o o o o o o 4 < < < 3 3 4 x x z o o 7 7 7 7 7 7 7 h b c h N c u u u ",
"u u r r u r 6 + . . - w n o 7 7 7 7 7 7 o o o o : : : : < 2 : x x 1 : , : : : > : 4 h x x x o o o 7 7 7 7 7 7 4 4 x 4 4 x u u u ",
"u u u r u u r 0 8 $ @ X X o 7 7 7 7 7 o o o o o c c c c c c c c x c c c n y w w w w y c m c o o o o 7 7 7 7 7 : , x 4 < c u u u ",
"u u u u u u u u u u 9 8 = o 7 7 7 7 7 o o o o o X X X . X X + & & + X . X X o @ @ @ @ o + + # o o o 7 7 7 7 7 p y ; q y - u u u ",
"u u u u u u u u u u r r 9 o 7 7 7 7 o o o o o O O O O O O O O X X . X X O @ $ 6 6 6 6 $ = @ o O o o 7 7 7 7 O + + O o + X 0 u u ",
"u u u u u u u u u u u u u o o 7 7 7 o o o o u u s s s s u r r 9 9 9 9 9 0 s s u u u u u u u u u u o 7 o 7 = = 8 r u r u u u u u ",
"u u u u u u u u u u u u u u o o 7 7 7 o o u u u r r r r r r r r r r r r r a r u u u u u u u u u u r r r r r r r r r r r u u u u ",
"u u u u u u u u u u u u u u u o o o o o u u u u u u u u u u u u u u u u u u u u u u u u u u u u u u u u u u u u u u u u u u u u "
};
