/* XPM */
static char *_7e175de51ba49b3ef3fe67eb183b32fx9Ji3gto2nyLNyo2[] = {
/* columns rows colors chars-per-pixel */
"64 64 150 2 ",
"   c #16140E",
".  c #18160F",
"X  c #131313",
"o  c #191611",
"O  c #161914",
"+  c #1B1B15",
"@  c #1B1C19",
"#  c #221100",
"$  c #201A13",
"%  c #1E211D",
"&  c #39240F",
"*  c #262117",
"=  c #2B2017",
"-  c #20231D",
";  c #2E231B",
":  c #352515",
">  c #392716",
",  c #352816",
"<  c #3A2916",
"1  c #35261A",
"2  c #392719",
"3  c #36291A",
"4  c #3C2C1B",
"5  c #3E301D",
"6  c #262726",
"7  c #262923",
"8  c #292C27",
"9  c #2B2E2A",
"0  c #322F25",
"q  c #3D2E22",
"w  c #322F29",
"e  c #2E322D",
"r  c #353225",
"t  c #3D3224",
"y  c #31322C",
"u  c #39332A",
"i  c #3C382A",
"p  c #2F3230",
"a  c #303330",
"s  c gray24",
"d  c #422E15",
"f  c #412E1D",
"g  c #43311E",
"h  c #49351E",
"j  c #4C381D",
"k  c #523C1E",
"l  c #571C27",
"z  c #422F21",
"x  c #443322",
"c  c #493523",
"v  c #463923",
"b  c #4C3A25",
"n  c #433528",
"m  c #493728",
"M  c #473A2B",
"N  c #4B3D29",
"B  c #4D3C29",
"V  c #4A392C",
"C  c #523B23",
"Z  c #543A23",
"A  c #523C25",
"S  c #583D24",
"D  c #503B29",
"F  c #533D2A",
"G  c #573C28",
"H  c #533D2F",
"J  c #583E29",
"K  c #4F4029",
"L  c #574127",
"P  c #584027",
"I  c #5B4126",
"U  c #52402A",
"Y  c #54402B",
"T  c #50402E",
"R  c #55412F",
"E  c #57452D",
"W  c #584129",
"Q  c #5A412A",
"!  c #5B412D",
"~  c #5B442D",
"^  c #5B462D",
"/  c #5F492E",
"(  c #574432",
")  c #5A4731",
"_  c #5B4732",
"`  c #5C4733",
"'  c #5E4A33",
"]  c #5F4C31",
"[  c #5D4A36",
"{  c #5E4A38",
"}  c #60462D",
"|  c #60452F",
" . c #634A2E",
".. c #614730",
"X. c #604633",
"o. c #634A37",
"O. c #644C34",
"+. c #684C35",
"@. c #694E35",
"#. c #634D3B",
"$. c #664F39",
"%. c #6A4F39",
"&. c #655031",
"*. c #6A5136",
"=. c #63523A",
"-. c #665038",
";. c #66513A",
":. c #695039",
">. c #6D533B",
",. c #6C543B",
"<. c #6E543C",
"1. c #6E583D",
"2. c #725037",
"3. c #71553B",
"4. c #72573C",
"5. c #78553A",
"6. c #725A3D",
"7. c #795D3D",
"8. c #6D5740",
"9. c #6E5842",
"0. c #705640",
"q. c #735843",
"w. c #765E40",
"e. c #745D43",
"r. c #7A5D46",
"t. c #7C5F49",
"y. c #726043",
"u. c #796146",
"i. c #75614A",
"p. c #7D6449",
"a. c #7C644A",
"s. c #7C684E",
"d. c #891E2B",
"f. c #C42430",
"g. c #806247",
"h. c #80654B",
"j. c #856B4D",
"k. c #806650",
"l. c #856B53",
"z. c #856E54",
"x. c #896D56",
"c. c #897155",
"v. c #8F735A",
"b. c #8D7558",
"n. c #907757",
"m. c #90755C",
"M. c #937A5C",
"N. c #FFA214",
"B. c #FFC825",
"V. c #FFEB57",
/* pixels */
"y y y 0 r u u u u u u X X u u u u u u u u u u u u u u u u u w u u u u u X X u u u u u 0 0 u u u u y w w w u u u u y e y y y y y ",
"e y t e e e e e e e X X X X 9 9 e e e e e e e e e e e 9 e e e e e e e X X X X e e e e y y e e e e e e y y e e e e e e e y y y y ",
"e u x < b ^ ) N x X X X X $.$.-.P W ` ( T c f R #.) [ =.V n 1 D Y ] [ H X X X X m c t , , t x t t q 1 3 3 4 m U Y i e e e y y y ",
"e u x c q.:.Y x X X s X X >.<.<.<.<.J 4 > 4 4 : x b f < & g > ) -.Y h 4 X X s X X 2 1 2 x g d r.x.v.4.C x g < 3 c E g b E y y y ",
"e u g > M 4 1 X X s X X : 3 3 < 3 3 1 ; 1 t t q 3 : 4 3 , x n 2 < 2 4 2 2 X X s X X : x 4 z.a.k k A &.w.Z g 4 , 4 N f 4 K y y y ",
"e u x > < 2 X X X s X X , 2 4 q 4 2 1 2 q x n x 2 1 3 : < g x , 4 4 4 2 < X X s X X X x n ` G | X.! W +.O.x 4 , > v 4 > m y y y ",
"p u x z > f X X s s X X x f < < 4 f j ,.c.M.c.:.j f 4 4 x x x x f < 4 x c X X s s X X x q B ' <.,.,.$.G f < t 2 4 g 4 4 g y y y ",
"e u f x g X X X s s X l.^ c x x z x &.b.w.+.*.r.*.h g f g o.` m x x x g ^ b.X s s X X X t F Y ,.:.*.X.F , < x < 4 5 4 4 g y y y ",
"e u x ( c X X X s s X G h.m.h x x m 1.P  .:.+./ 6.r.b 4 3.2.5.F g x x E ,. .X s s X X X x x B F c g 4 4 < < x 4 4 5 5 4 g y y y ",
"e t g f X X X X s s X | S +.>.c x f Y $.,.,.$.! A b m f b { x 4 c c g f L *.X s s X X X X 4 > < < 4 2 4 , < x x 4 4 x < g y y y ",
"e t x f X X X X s s X X W S a.( x 4 D ! X.-.` F x , f f m x < g x x g f B X X s s X X X X x 4 4 4 4 4 < , 4 x x 4 4 x 4 g y y y ",
"e t x X X X X X s s X X ^ F > 4 c 4 < 4 > > 4 4 < , f x 4 x m b c c g f 4 X X s s X X X X X n g 5 , , < x x x x x g x x g y y y ",
"e t x X X X X X s s s X X b 4 , x c , < 4 4 4 4 < , 4 x x A C u.w.X.A g X X s s s X X X X X x g c N B B B n x x m m x m m y y y ",
"e t 4 X X X X X X s s X X 4 4 : x x 4 , , < < 4 < , 4 x H <.3. .|  .:.T X X s s X X X X X X x 5 v t.j.j.a.O.h j ,.i.U y.i.y e y ",
"e t f X X X X X X s s s X X 4 , 4 x n t , : : 3 1 : z x m / >.<.:.W S X X s s s X X X X X X g : g 0.+.S f f R ,.X.) #.' ' y y y ",
"e r g X X X X X X X s s X X 4 , , x x x x 3 , : 1 1 z 4 c $.*.*.>.+./ X X s s X X X X X X X A > f =.#.U z x m R ` #.) X.,.y e y ",
"e r x 4 X X X X X X s s s X X : , t g g c b b c x z x , H <.>.*.*.:.X X s s s X X X X X X c.s.x 5 4 4 x x 5 4 c b H c A F y e y ",
"e r t f X X X X X X X s s s X X > x B B ^ +.+.| ! H m < x o.+.+.+.X X s s s X X X X X X X :.w.g g n T x t < 5 c g 4 g g f y y y ",
"e r r x X X X X X X X s s s s X X X 9.O.X X X X X X X X X g m X X X s s s s X X X X X X X R ) f z Y a.B 4 2 4 4 < < < > < y e y ",
"e u u x x X X X X X X X s s s s X X X X l l l l l l l l l X X X X s s s s X X X X X X X , 5 N 4 x 4 b c x x < > 4 x 4 4 x y e y ",
"e r y x x X X X X X X X s s s s s s X X l d.d.d.l l l l l l X s s s s s s X X X X X X X g 4 g < 4 4 < 3 x x x g g x g g c y y y ",
"e r e t 4 E X X X X X X X s s s s s X l d.d.d.d.d.d.d.l l l X s s s s s X X X X X X X Y ^ A f 4 < m ` ` ) D z x g g x g g y e y ",
"e r y t < b X X X X X X X X s s s X l d.d.f.f.f.f.f.d.d.d.l l X s s s X X X X X X X X +.w.1.b x x H x.l.j.r.` ^ C g Y j h y y y ",
"e r u t 4 c 4.X X X X X X X X s s X l d.f.f.f.f.f.f.f.f.d.d.l X s s X X X X X X X X h  .+.-.c x f O.3.+.*.6.w.6. .x $.^ c y y y ",
"e r t q 4 g o.[ X X X X X X X X X l d.d.f.f.f.f.f.f.f.f.f.d.d.l X X X X X X X X X 4 m ,.0.f 4 x 2 G ,.*.*. .P P O.B A $.b y y y ",
"p u t t 4 x O.:.$.X X X X X X X X l d.f.f.f.f.f.f.f.f.f.f.d.d.l X X X X X X X X 4 g g O.>.c 4 x , c O.*.,.*.P W +.B S +.b y y y ",
"e u x x 1 g ) ,.a.4.X X X X X X l d.f.f.f.f.f.f.f.f.f.f.d.d.d.d.l l X X X X l X f g 4 m R 4 4 x 2 < g Y ' ' ^ | X.B G o.m y y y ",
"e y x x < < x ) *.7.M.X X X X X l l d.d.f.f.f.f.f.f.f.d.d.l l l l l l l l l l l X G g 4 4 2 z x 4 : 3 < g m U W G n F G c y y y ",
"y y x x z 4 4 c ^  .4.a.E X d.l N.N.l d.d.f.f.d.f.f.d.d.l N.N.N.l d.l l l l l l l X ) m f x ) / $.4 1 , < 4 c m x x n x x y y y ",
"y y t g x 4 > 4 f F U R X d.d.l N.B.N.l d.d.f.d.f.d.d.l N.N.B.N.l d.d.l l l l l l X O.c z R a.5.g.' < , : 3 < < 4 x 4 4 c y y y ",
"y y t c F m 3 < < 4 c n X d.d.l N.V.B.N.l d.d.d.d.l l N.B.V.B.N.l d.d.l l l l d.l l X f f ^ q.%.O.w.B 4 2 1 1 > 4 x < 4 c y y y ",
"y y r x R [ c < < < 4 4 X d.d.l N.B.V.B.N.l d.d.l N.N.B.V.V.B.N.l d.d.d.l l l d.d.l l X z c -.%.! O.T g x f 4 f x x f x c y y y ",
"e y u t h :.-.c f < > , X d.d.l l N.N.N.N.l d.d.l N.B.V.V.B.N.l d.d.d.d.l l l l d.d.l X z g -.O.B b 5 c <.-.m g x x x x c y y y ",
"y e u t f F ) m x g < : X d.d.d.l l l l l d.d.d.d.l N.N.N.N.l d.d.d.d.d.l l l l l d.d.l X 4 B b g 4 c -.a.a.,.O.F t ) B x y y y ",
"y y y t g f f f f ' ' X f.d.d.d.d.d.d.d.d.d.d.d.d.d.l l l l d.d.d.d.d.d.d.l l l l d.d.l l X 2 f 4 4 c >.:.:.u.z.#.2 w.( x y y y ",
"e e y t x x x f c $.:.X f.d.d.d.d.X d.X d.d.X d.d.d.d.d.d.d.d.d.X X d.d.d.l l l l X d.d.l X , 2 > 4 m B <.%.<.s.' 4 8.H x y y y ",
"e e y t x x 4 x ' +.X f.d.d.d.d.X B.X B.X d.X d.X d.d.X X X d.X N.N.X d.d.l l l X X d.d.l l X 4 4 h n x R -.X./ A x R c x y y y ",
"e e y t x x 2 x O.,.X f.l d.d.X N.B.X V.X X B.X B.X X B.B.X X B.B.N.X d.d.l l l X >.X d.d.l l X b A 4 5 4 ) R c x x c x n y y y ",
"e e y t x x f 4 c X f.d.l l d.X N.B.B.V.B.X V.X V.B.X V.V.X B.V.B.N.X d.l l l l X ! X f.d.l l l X / w.O.2 x B g x x x x n y y y ",
"e y u t g f f 2 X f.d.l l # d.X N.B.B.B.V.B.V.B.V.V.B.V.V.V.V.V.N.X d.d.l l l X g g X f.d.l l l X W h.k.> f m 4 x n g x n y y y ",
"e r t t 4 b ` X f.d.l # # l d.d.X N.B.X B.B.V.V.V.B.V.V.V.B.V.B.X d.d.l l l l X 4 4 4 X f.l l l X  .O.>.b f 4 < 4 m g g N y y y ",
"e r t x n #.>.X f.# # l l l l d.d.X N.X B.X B.B.B.X B.B.B.X B.X d.d.d.l l l X < 4 4 4 X f.d.l l l X | / G f < , 4 B 4 g B u y y ",
"e r t g n >.w.X d.d.l l l l X l d.d.X d.X d.X B.X d.X X X d.X d.d.d.l l l l X : > > 4 X f.d.l l l l X / c f 4 < g B g g U y y y ",
"e y t f 4 b ^ m X d.l l # l X X l d.d.d.d.d.d.X d.d.d.d.d.d.d.d.d.l l l l l l X d 4 x X f.d.l l l l l X b -.,.#.F m [ m F y y y ",
"e y t x f f x x X d.l l l # l X l l l d.d.d.d.d.d.d.d.d.d.d.d.d.l l l l l l l X 1.R z X f.d.l l l # l X ] O.:.9.^ v -.F B y y y ",
"e y r g x x f b X d.l l l l l l X l l l l d.d.d.d.d.d.d.d.d.l l l l l l l l l X 1.E X f.f.d.# # # l X ,.O.X.^ $.Y v ' F B u y y ",
"e r u x x 4 f b X d.l l l l l X l l l l l l l l d.d.d.l l l l l l l d.d.d.l l X A x x X d.d.l l l l X +.*.$.Y F c c B g b y y y ",
"e y y 5 < 4 A G X d.l l l d.d.d.d.d.l l l l l l l l l l d.l l l f.d.d.d.f.f.f.l X 4 f ) X X d.l l l l X *.+.Y c x x b g c y y y ",
"y y y 4 , c +.+.X d.l d.f.f.f.f.f.d.d.d.l l X l l l l d.f.f.d.f.f.f.d.f.f.f.f.d.X 4 f R -.h X d.l l l X <.$.b f g c g f c y y y ",
"y e y 4 , m *.X d.l d.f.f.f.f.f.f.f.d.d.l l X X X X X f.f.f.f.f.f.f.d.f.f.f.d.d.X x f c ) u.X d.l l l X ^ A f > 4 n f 4 n y y y ",
"y e y 4 , c +.X f.d.f.f.d.f.f.d.d.f.f.d.d.l X x 4 X d.f.f.d.f.f.f.d.d.f.f.f.d.d.l X f c ' 6.n.X d.l l X u f > > 4 n 4 4 n y y y ",
"y e y q , f X f.f.l f.d.d.f.f.d.l d.f.d.d.l X x g X f.f.f.l f.f.f.l l f.f.d.l d.l X f g [ ,.3.X l d.l l X < r e t n u t n y y y ",
"y y e r < > X f.f.l f.d.l f.f.d.l l d.d.d.d.l X R X f.f.d.X f.f.f.l l f.f.d.l l l l X 4 [ ,.*.i.X l l l X 4 x g f x x f x y y y ",
"y y e 0 t < X d.f.l f.f.l d.f.d.l l l d.d.d.l X ^ X f.f.d.X f.f.f.l l s X l d.l d.l l X m [ [ g 4 X l l X ) q.*.,.F / <.b y y y ",
"y y y 9 $ 1 q X s X d.f.l X s X X l l d.d.d.l X -.*.X s X X X s X d.l l X d.l d.d.d.l l X 4 4 > 4 c X l X X X X X X X X X X X y ",
"y y y 9 @ @ t n X X X s X X X X X X l f.d.d.l X -.<.-.X X X < X X X l d.d.d.l d.d.d.d.l l X X > x f X l X X X X X X X X X X X X ",
"y y e e e 7 + + = X x X X X x X g b X f.d.d.X 2 4 4 4 4 X 4 4 x X X l f.d.l l d.d.d.d.d.l l l X X X X X 7 7 7 6 7 6 6 6 7 7 7 X ",
"y y e e y e 7 +   . ; q X M n n f X s d.d.l X , : : , , < 2 , x x X d.f.d.X X l l d.d.d.d.l l l X X 7 7 s s s s s s s s s 7 X X ",
"y y y e y y e 9 7 % @ o o X o $ X s X l X X n n m m n n n m m m x X s d.l X q X l l l d.d.d.l l l l X X 7 s s s s s s s s 7 X X ",
"y y y y y y y y y y 8 7 - - @ O O X X X O . O O o o o . o o @ * X s X l X o O @ X X l l l l d.d.l l X X X 7 s s 6 s 6 6 7 X X y ",
"y y y y y y y y y y e e 8 8 7 7 % % + O O o O O O O O O O O O o o X X X O @ % 7 7 6 X X X l l l l l l X X 7 7 7 6 7 X 7 7 X X y ",
"y y y y y y y y y y y y y y y y y y e y y e y y a a a p y e e 8 8 8 8 8 9 a y y y y y y y X X l l l X X X X X X X X X X X X y y ",
"y y y y y y y y y y y y y y y y y y y y y y y y e e e e e e e e e e e e e e e y y y y y y y y X X X X X X X X X X X X X X y y y ",
"y y y y y y y y y y y y y y y y y y y y y y y y y y y y y y y y y y y y y y y y y y y y y y y y y X X X X X X X X X X y y y y y "
};
