/* XPM */
static char *_0a5c53bdcc34301faf95b2fa19e015aLRWpZkH3KenZKNFj[] = {
/* columns rows colors chars-per-pixel */
"64 51 213 2 ",
"   c #131313",
".  c #1B1515",
"X  c #1E1B16",
"o  c #1B1B1B",
"O  c #231C16",
"+  c #281D16",
"@  c #271619",
"#  c #2D161B",
"$  c #231E1A",
"%  c #2A1819",
"&  c #3D171C",
"*  c #37181E",
"=  c #2B2216",
"-  c #25211D",
";  c #2C231B",
":  c #352515",
">  c #392616",
",  c #362816",
"<  c #3A2A16",
"1  c #352619",
"2  c #3A2719",
"3  c #35291B",
"4  c #3C2C1B",
"5  c #3D3316",
"6  c #3E301D",
"7  c #252525",
"8  c #2A2623",
"9  c #2A2A26",
"0  c #2C2C2B",
"q  c #332B21",
"w  c #3D2F22",
"e  c #2E322C",
"r  c #343225",
"t  c #3D3223",
"y  c #31322C",
"u  c #3B312A",
"i  c #2F3230",
"p  c #333333",
"a  c #3A3531",
"s  c #3C3C3C",
"d  c #45191E",
"f  c #45231E",
"g  c #4A231F",
"h  c #462D19",
"j  c #412E1D",
"k  c #59281E",
"l  c #43311E",
"z  c #4A351E",
"x  c #413818",
"c  c #4C381D",
"v  c #543A19",
"b  c #643519",
"n  c #431A21",
"m  c #4E1D22",
"M  c #571C27",
"N  c #5B1C26",
"B  c #5E1C28",
"V  c #631C28",
"C  c #6C1D29",
"Z  c #731C27",
"A  c #731D29",
"S  c #7C1E2A",
"D  c #4C2321",
"F  c #422E20",
"G  c #4A2C22",
"H  c #522324",
"J  c #532A24",
"K  c #592A26",
"L  c #592428",
"P  c #5C2B2B",
"I  c #443322",
"U  c #4A3523",
"Y  c #463923",
"T  c #4C3925",
"R  c #423629",
"E  c #4D3C29",
"W  c #593724",
"Q  c #523C25",
"!  c #5F312E",
"~  c #533D2A",
"^  c #5A3D2B",
"/  c #5B2D33",
"(  c #463D31",
")  c #553E32",
"_  c #632224",
"`  c #6B2525",
"'  c #6B2825",
"]  c #7A2527",
"[  c #752229",
"{  c #732B2B",
"}  c #67382E",
"|  c #7A3424",
" . c #75322C",
".. c #7F2731",
"X. c #613C32",
"o. c #7D3431",
"O. c #713A30",
"+. c #554618",
"@. c #724D19",
"#. c #564126",
"$. c #5B4126",
"%. c #55412C",
"&. c #5B442C",
"*. c #5F492E",
"=. c #564431",
"-. c #5B4631",
";. c #5E4932",
":. c #5A4938",
">. c #60452C",
",. c #6A402D",
"<. c #62492E",
"1. c #614432",
"2. c #644C34",
"3. c #654E35",
"4. c #6A4937",
"5. c #694E35",
"6. c #634E39",
"7. c #774837",
"8. c #665035",
"9. c #695136",
"0. c #6B5136",
"q. c #66513A",
"w. c #6A5239",
"e. c #6C533A",
"r. c #6D553A",
"t. c #6E593D",
"y. c #755339",
"u. c #70553B",
"i. c #725A3D",
"p. c #6E5740",
"a. c #6E5941",
"s. c #715341",
"d. c #745C43",
"f. c #7A5B46",
"g. c #776347",
"h. c #7B6145",
"j. c #74634A",
"k. c #7D644A",
"l. c #7F6553",
"z. c #841E2A",
"x. c #8A1E2B",
"c. c #941F2C",
"v. c #991F2C",
"b. c #84222A",
"n. c #87282A",
"m. c #8C2A2B",
"M. c #94212C",
"N. c #9C222C",
"B. c #972B2C",
"V. c #87372A",
"C. c #98392F",
"Z. c #853636",
"A. c #963632",
"S. c #983832",
"D. c #A4212D",
"F. c #AC222E",
"G. c #A32B2F",
"H. c #B4232F",
"J. c #BB232F",
"K. c #BF2430",
"L. c #A93937",
"P. c #C32430",
"I. c #8B6D1D",
"U. c #91631D",
"Y. c #A56B14",
"T. c #B0631D",
"R. c #884321",
"E. c #984A21",
"W. c #875E24",
"Q. c #9F5120",
"!. c #88423B",
"~. c #8D7827",
"^. c #987E24",
"/. c #CF7F1B",
"(. c #85674A",
"). c #84664E",
"_. c #856B4E",
"`. c #816650",
"'. c #856C53",
"]. c #896E56",
"[. c #897155",
"{. c #8C7458",
"}. c #91775B",
"|. c #A5801F",
" X c #B08B1F",
".X c #AF8B21",
"XX c #BC9420",
"oX c #BEA12F",
"OX c #DB8919",
"+X c #E99116",
"@X c #E8A019",
"#X c #FFA515",
"$X c #FFA817",
"%X c #F2AB1E",
"&X c #FFAA19",
"*X c #FFB41C",
"=X c #D7AA24",
"-X c #CDB43C",
";X c #E7B623",
":X c #F1BD24",
">X c #FFC127",
",X c #FFC926",
"<X c #FFCC2F",
"1X c #F3CC37",
"2X c #FFCA34",
"3X c #FFD537",
"4X c #FFD63A",
"5X c #DAC94C",
"6X c #E6CD46",
"7X c #FFDE44",
"8X c #FFE24A",
"9X c #FFE751",
"0X c #FFEA56",
/* pixels */
"i u I F > j ^ h._.h._.6.I 4 1 2 2 j c r.[.}.[.w.c j 2 2 I I I I j 1 3 I U #.d.{.'.;.l I w E ;.t.r.r.2.^ j 2 t 3 4 l 4 4 l y y y ",
"e u j I l ~ h.d.2.2.r.'.&.1 . 3 F I 8.{.d.9.9.d.9.z l j l 6.-.U I ;   2 &.{.d.<.9.2.T I t ~ #.r.w.9.2.Q , 2 I 2 4 6 4 4 l y y y ",
"e u I =.U &.5.&.#.#.~ ^ R 9 + I I U r.$.<.e.5.&.i.d.T 4 u.y.y.~ l I   9 %.<.9.9.u.*.j 4 I I E ~ U l 2 2 2 2 I 4 4 6 6 4 l y y y ",
"e t l j E 2.<.9.w.w.9.3 p - 6.U I j #.2.r.e.2.&.Q T U j T :.I 4 U U 3 7 9 -.9.9.9.*.z 4 I 4 < 2 2 4 3 4 : 2 I I 4 4 I 2 l y y y ",
"e t I j I U &.8.9.w.I   s X k.=.I 4 Q &.2.q.-.~ I : j j U I 2 l I I 4 7 9   2.8.2.#.l 3 I I 4 4 4 4 4 2 : 4 I I 4 4 I 2 l y y y ",
"e t I j l l Q *.r.2.q p s ; > 4 U 4 2 4 < < 2 2 2 : j I 4 I U T T U j 8 s o 4 T l 4 4 w I I I l 6 : : 2 I I I I I l I I l y y y ",
"e t I j T j U #.2.=.  p s T 4 : I U 1 3 4 4 2 4 2 : 4 I I Q Q h.d.2.Q R s o   4 2 4 3 w I I I l U T E E E I I I U Y I U Y y y y ",
"e t 4 j 6.T I j j X   p s 4 4 : I I 4 1 : 2 2 4 2 : 4 I ~ t.u.<.>.<.w.( s o   + 2 : 4 I I I I 6 Y f._._.k.6.z c e.j.#.g.j.y e y ",
"e t j < 6.6.j I 4     p s . 4 : 4 I I t : : : 3 1 : F I Y &.e.t.w.&.Q 7 s o   X l U &.q.6.U l : l s.5.~ j j %.e.2.-.6.;.;.y y y ",
"e r l 2 ;.2.E I       p s $ 3 : : I I I I 3 , : 1 1 F 4 U 2.9.w.e.2.I 9 s o     ; q.].].{.9.Q < j q.6.#.F I U %.-.6.-.1.q.y e y ",
"e r I 2 T 2.q.U       7 s a O : : t l l U T T U I F I : ~ e.e.9.9.w.  s p o     3 ;.&.$.Q [.k.I 6 4 4 I I 6 4 U T ~ U Q ~ y y y ",
"e r t j j %.6.U         s s 9 = > I E E &.5.2.>.&.~ U 2 I 6.5.5.5.q p s 9       ; Q 2.e.2.w.d.l l U %.I t 2 6 U l 4 l l j y y y ",
"e r r I 3 4 l I           s 0 1 ^ -.a.6.2.5.5.w.k._.-.I 2 l U Q #.X s p         ; j I =.-.%.-.j F #.k.Q 4 2 4 2 2 2 2 < 4 y y y ",
"e u u I I 4 4 t 4         a s 9 :.2.Q &.2.5.2.^ ~ 6.8.Y , : 2 2 + s s 9       8 2.F I 4 : 6 T 4 I 4 T U I I 2 > 4 I 2 4 I y y y ",
"y r y I I Y E 6 ,         o s s 9 I 2.e.e.e.2.&.Q Q ~ U 4 3 1 - a s s         q 2.F I U l 2 l 2 4 4 2 3 I I I l l I l l U y y y ",
"y r e t 4 %.d.l = ;         0 s s 0 3 %.9.P P K H D D G j ; ; a s s 7         E Y l z #.&.Q j 4 2 U :.:.-.Q F I l l I l l y y y ",
"e r y t 2 T d.%.: :         9 s s s s 9 X M M M M M M M # a s s s s           ~ 3 l z 2.d.t.T I I ~ ].`._.d.-.&.T l #.c z y y y ",
"e r u t 4 U i.;.4 4 =         9 s s s 9 M x.x.x.C B B M # a s s s o         q.Q 3 4 z <.2.q.U I j 2.u.5.9.i.d.i.<.I 2.&.U y y y ",
"y r t w 2 l 2.;.U t 3 .         9 s 0 * S x.N.N.x.x.z.C B . s a o         ; 2.j 2 4  .!.y.j 4 I 2 ^ r.9.9.<.#.$.2.E Q 2.T y y y ",
"e u t t 2 I 2.e.6.Y j 3           9 8 N z.F.P.P.H.x.x.x.S n 9 o         O T T < 2 l J.J.n.J 2 I : U 2.9.r.9.$.&.2.E ~ 5.T y y y ",
"e u I I 1 l -.q.k.i.2.-.4           % A H.P.P.P.P.J.x.x.x.N           O F > 2 2 j l k P.D.z.j I 2 2 l #.;.;.&.>.2.E ~ 2.Y y y y ",
"y y I I 2 2 I -.5.H.!.{.Q 4       . C F.P.P.P.P.P.P.J.x.x.x.m       . H -.I j T ;.^ l J.F.x.x.I 4 : 3 2 l Y #.&.^ I Q ^ U y y y ",
"e y I I F 2 2 U P.F.x.!.} I I ; @ # x.J.P.P.P.P.P.P.F.z.S S V m % @ N N X.U T 2.g.w.-.{ P.N.x.} 2.4 1 1 2 4 U U I I U I I y e y ",
"y y t l I j > 2 P.x.S z.x.` ' ' N T.E.x.J.P.F.P.P.D.z.V.T.T.A z.V N N M { n.m.S.C.S.A.c.P.N.x.n.(.;.2 , : 3 2 2 4 I 4 4 U y e y ",
"e y t U ~ U 3 n.P.z.B B V V V S B #X%XE.x.P.x.F.D.x.| +X*X#XB x.C M B F.J.P.c.c.c.c.c.z.M.J.x.x. .d.E 4 3 1 1 > 4 I 2 j U y e y ",
"e y r I %.;.U D.P.S M M M M M A B &X7X*X| z.V x.V M &X4X3X#XB x.x.B V H.x.V M M M M M M z.P.c.x.x.O.%.l I j 4 j I I j I U y y y ",
"e y u t l w.q.m.P.S M M M H L A B OX<X2X$XM M M /.&X4X9X<XOXC x.x.B M V C M M M M M M M S J.c.x.x.x.G U t.q.U l I I I I U y y y ",
"y y u t j ~ -.U P.z.B M M q.T [ A _ T.T.T.C C C Q.*X2X>X/.[ x.x.x.A M M M M M M H M M M M N.c.x.x.x.' q.k.k.q.6.~ t -.E I y y y ",
"y y y t l j j j P.F. .^ s.d.l ` x.S S S S x.x.x.S R.R.R.] x.x.x.x.x.M M M M X.P 1.L M M M N.x.x.x.x.x.o.w.w.h.].6.3 d.=.I y y y ",
"e e y t I I I j P.H.o.w.2.2.j j b.S & d Z z.* x.x.z.z.z.x.x.. d x.x.M M M M e.e.u.e.M N ! B.x.x.x.x.x.b.e.5.t.k.;.4 p.~ I y y y ",
"e e y t I I 4 I ;.J.Z.5.2.2.2 2 [ v  X^.x Z h k _ Z 5 = M l $XY.B z.M M M >.2.2.9.9.r.L } B.x.x.x.b.] [ %.q.2.&.Q I %.T I y y y ",
"e e y t I I 2 I 2.L.F.7.e.6.4 2 I #X=X-X~.X oX~.^.  4X^.+.1X>XY.B B M M M 4.r.r.r.e.w.#.l B.x.z.{ W 4 6 4 -.%.U I I U I I y y y ",
"e e y t I I F j U ^ B.n.Q U 4 2 I U.,X<X7X.X6X-X8X.X0X5X6X0X@Xb S B M M K &.-.;.-.&.~ l 2 B.x.O.8.*.d.6.2 I E l I I I I I y y y ",
"e y u t l j j 2 > 4 G [ j 2 2 4 I v *XI.=X,X0X0X3X9X0X7X8X<X> z.C N M M D l l U l l j 4 ' N.J q.5.&.).`.< j U 4 I I l I I y y y ",
"e r t t 4 T -.l 4 2 : : 1 2 4 4 I , W.@.XX+ ;X:Xv =X;XI.|.: x.z.C M M M g 4 4 4 4 4 4 4 ] M.F &.2.<.2.e.T j 4 2 4 Y l l T y y y ",
"e r t I I 6.e.Y j I T T e.d.d.p.4 4 F n * z.v @.Z & & B M z.A C M M M M M 2 < 2 4 4 4 4 k K 3 &.e.w.>.&.^ j 2 : 4 E 4 l E y y y ",
"e r t l I e.d.~ j :.a.t.d.i.7.Z.{ ` _ M M C S Z x.x.x.S C C M.A A M.M.z.M D : : < < 2 > : t 2 2.t.r.>.&.U j 4 2 l E l l 3 y y y ",
"e y t j 4 T &.Y l Y E T E n.H.J.J.H.z.z.B M V A x.x.M.H.c.F.P.D.D.P.P.F.C M d.&.h 4 I F I 4 2 Q 6.E l l T 6.q.6.~ Y :.X X y y y ",
"e y t I j j I I j l j j z.P.P.P.P.P.H.x.V M M M M N P.P.P.P.P.F.F.P.K.x.C M M 8.t.%.F I I : 2 j z 4 j #.;.2.w.p.%.U ; 9 X y y y ",
"e y r l I I j T a.).L.c.K.F.D.P.c.z.J.D.x.M M D L v.P.D.F.P.J.S F.P.F.S C V N 1.t.%.j I l : 2 4 < j d.r.2.2.&.E q o 7 9 X y y y ",
"e r y I I 4 j T *.7.P.S J.z.M.P.c.N z.c.x.A G I T P.J.n.G.P.H.M N.P.z.B V S A P Q I I ~ U : 3 4 l k.9.2.9.E 3 o 7 9 9 o X y y y ",
"e y y t 2 2 Q #.&.,.F.S J.D.A H.c.M N S x.z.I F I P.J.o.G.P.H.M / d V A M S x.A D 4 j -.U < : < U f.<.9.%.- 7 9 9 9 o   X y y y ",
"y y y 4 : U 2.5.w.w.:.7 z.H.! ( o &.M A x.z.I I l I a ; l s @ A M . z.M M M x.x.A G j %.q.z 4 6 4 &.2.q.o 9 9 9 9 9 o   U y y y ",
"y y y 4 : U 9.9.e.e.9.t #.a ; z O Q 4.B.c.z.2 I 4 3 1 + 1 3 O G S x.S g g M N z.x.C V G ^ d.k.j < l Y o 9 7 7   o 9     I y y y ",
"y e y 4 : U 5.9.e.e.9.e.&.Q : j j l q.Z.x.C 3 I 4 : 1 1 2 I I J D.c.D 4 4 f M B S x.x.C C } y.g D g . o o       o o   + I y y y ",
"y e y w : j ^ &.2.9.r.2.%.I 2 w j 2 a n K f 2 I l j j U U I I ) ..C w.e.d._.f.M B V x.x.x.S S S S V n               - w I y y y ",
"y y e t 2 > l Q &.;.-.-.U 2 2 I l : I l < 2 4 I %.d.).).`.E I 0 n 1.2.5.9.i.f.4.M M N N N N N N N N M             ; t j I y y y ",
"y y e q t 2 : 4 l Y U j > : I ) I 4 : , 3 6 U &.&.>.9.9.t.j 4 I 2 ;.e.w.9.9.9.9.<.H M M M M M M M M M m X $ - $ r.~ &.t.T y y y ",
"y y y 0 O 3 w : : : : : 4 I 4 j a.j.< I I I I %.q.9.w.w.2.l : I 4 T -.6.2.6.2.-.E j 6 2 D D D g f U l.k.2.8.2.*.9.%.#.t.E y y y ",
"y y e 0 o X t R t 4 2 w I I 2 4 8.t.t.l I I U =.q.p.q.2.&.U 2 I F l T T Q #.T l 4 4 6 4 : 2 2 > I j d.e.e.e.;.&.-.Y #.-.Y y y y ",
"y y e e e 9 X X = t I I I I I 2 l T 6.j I I I 3 4 4 4 4 4 4 4 I I : 4 4 4 2 2 2 3 3 4 I I F j U 4 2 U T U U U l Y U l E U y y y "
};
