/* XPM */
static char *_fdd41f1c6804dc2f89cc0604ef54f2dUAZwyplpNNxIcJwq[] = {
/* columns rows colors chars-per-pixel */
"64 64 131 2 ",
"   c #100D0D",
".  c #15140F",
"X  c #151512",
"o  c #1B1616",
"O  c #161914",
"+  c #1C1A15",
"@  c #1C1C1A",
"#  c #201B14",
"$  c #1F211E",
"%  c #2C210E",
"&  c #262117",
"*  c #2B2017",
"=  c #22231C",
"-  c #2D241A",
";  c #2E291C",
":  c #352515",
">  c #392616",
",  c #372816",
"<  c #3A2A16",
"1  c #35261A",
"2  c #39271B",
"3  c #36291B",
"4  c #3C2C1B",
"5  c #3E301D",
"6  c #232523",
"7  c #2D2727",
"8  c #262924",
"9  c #2A2C27",
"0  c #2C2E2B",
"q  c #342E24",
"w  c #3C2E22",
"e  c #322F29",
"r  c #2E322D",
"t  c #343226",
"y  c #3D3224",
"u  c #31322C",
"i  c #39332A",
"p  c #3C382A",
"a  c #2F3230",
"s  c #303330",
"d  c #591010",
"f  c #442E13",
"g  c #412E1D",
"h  c #43311E",
"j  c #48341F",
"k  c #4C381D",
"l  c #523C1E",
"z  c #422F20",
"x  c #443322",
"c  c #4A3624",
"v  c #463823",
"b  c #4B3A25",
"n  c #423528",
"m  c #483428",
"M  c #473A28",
"N  c #4D3C29",
"B  c #523C25",
"V  c #583D24",
"C  c #533E2A",
"Z  c #583E29",
"A  c #4F4029",
"S  c #554126",
"D  c #5A4126",
"F  c #55422B",
"G  c #59412A",
"H  c #59442D",
"J  c #5B452C",
"K  c #5B462D",
"L  c #5D492E",
"P  c #574431",
"I  c #5A4731",
"U  c #5C4733",
"Y  c #5E4933",
"T  c #5A4834",
"R  c #5D4A36",
"E  c #5E4A39",
"W  c #60452F",
"Q  c #61492E",
"!  c #614730",
"~  c #624735",
"^  c #664C33",
"/  c #634A37",
"(  c #624D37",
")  c #644C34",
"_  c #674C37",
"`  c #684F34",
"'  c #634F39",
"]  c #634D3B",
"[  c #664F39",
"{  c #665035",
"}  c #6A5137",
"|  c #66503A",
" . c #66523B",
".. c #695039",
"X. c #6B533A",
"o. c #6D553B",
"O. c #6D523C",
"+. c #6E543C",
"@. c #6E593B",
"#. c #71573D",
"$. c #735A3C",
"%. c #795D3D",
"&. c #6D5740",
"*. c #6F5B41",
"=. c #735843",
"-. c #755B40",
";. c #735D43",
":. c #775D41",
">. c #785D44",
",. c #726043",
"<. c #7F6041",
"1. c #7B6046",
"2. c #7D6145",
"3. c #74624A",
"4. c #7D644B",
"5. c #BC1313",
"6. c #81654B",
"7. c #826B4B",
"8. c #816B4E",
"9. c #896B4C",
"0. c #826B51",
"q. c #836B53",
"w. c #886C54",
"e. c #897155",
"r. c #8F735A",
"t. c #8D7458",
"y. c #91755A",
"u. c #95795A",
"i. c #917A5E",
"p. c #DBCDCD",
"a. c #F0EAEA",
/* pixels */
"u u u q t i i i i i i i i i i i i i i i i i i i i i i i i i e i i i i i i i i i i i i q q i i i i u e e e i i i i u r u u u u u ",
"r u y r r r r r r r r 0 0 0 0 0 r r r r r r r r r r r 0 r o o o o o o o o o o o o o o u u r r r r r r u u r r r r r r r u r u u ",
"r i x < b K I N x 5 T | _ [ [ | D G U P F c g F ' I Y o o o o o o o o o o o o o o o o o , y y y y w 1 3 3 4 b F F p r r r u u u ",
"r i x c =...F x x 1 x ~ O...+.+.+.+.Z 4 < 4 4 : x o o o o o o o o o o o o o o o o o 7 o o h f >.w.r.#.B x h < 3 c K h b K u u u ",
"r i h < M 4 1 1 w x : % : 3 3 < 3 3 1 - 1 y y w o o o o o o o o o o o o o o o o o 7 7 o o o o l l B { :.B h 4 , 4 N g 4 A u u u ",
"r i x < < 2 2 z h h x 2 , 2 4 w 4 2 1 2 w x m x o o o o o 7 o o o o o o o o o 7 7 7 7 7 7 o 7 o ! K G ` / x 4 , < v 4 < b u u u ",
"a i x z > g Z 2.9.<.7.( x g < < 4 g k o.e.i.e.o o o o o o 7 7 7 o o 7 7 7 7 7 7 7 7 7 7 7 7 7 7 7 o._ Z g < y 2 4 h 4 4 h u u u ",
"r i g x h C 1.-.^ ^ o.q.K c x x z x { t.:.` o o o o o o 7 7 7 7 7 7 7 7 7 7 7 7 7 7 7 7 7 7 7 7 7 7 _ B , < x < 4 5 4 4 h u u u ",
"r i x P c K ` D F F Z Z 6.y.j x x c @.D Q ..o o o o 7     7 7 7 7 7 7 7 7 7 7 7 7     7 7 7 7 7 7 7 4 4 < < x 4 4 5 5 4 h u u u ",
"r y h g N / Q } ....} W V ^ ..c x g F _ o.o o o o 7         7 7 7 7 7 7 7 7 7           7 7 7 7 7 7 2 4 , < x x 4 4 x < h u u u ",
"r y x g x c K { } ...._ G Z 4.P x 4 B K o o o o 7 7   a.    7 7 7 7 7 7 7 7 7   a.    7 7 7 7 7 7 7 7 < , 4 x x 4 4 x 4 h u u u ",
"r y x g h h B L o.....+.K C > 4 c 4 < 4 o o o o o 7         7 7 7 7 7 7 7 7 7         7 7 7 7 7 7 7 7 < x x x x x h x x h u u u ",
"r y x g b g c F _ ......I b 4 , x c 1 2 o o o o o o       7 7 7 7 7 7 7 7 7 7 7     7 7 7 7 7 7 7 7 7 N N m x x c b x c b u u u ",
"r y 4 g ' b x g g C I K h 4 4 : x x 4 o o o o o o o 7 7 7 7 7 7 7 7 7 7 7 7 7 7 7 7 7 7 7 7 7 7 7 7 7 7 4.( j k ..3.F ,.3.u r u ",
"r y g < ' ( g x 4 4 x 4 < 4 4 , 4 x m o o o o o o 7 7 7 7 7 7 7 7 7 7 7 7 7 7 7 7 7 7 7 7 7 7 7 7 7 7 7 g g F .._ I ' Y Y u u u ",
"r t h 4 Y / B x x 4 < < 4 4 4 , , x x o o o o o o 7 7 7 7 7 7 7 7 7 7 7 7 7 7 7 7 7 7 7 7 7 7 7 7 7 7 7 z x c F U ' I ! | u r u ",
"r t x 4 b _ | c x 4 : : , , , : , y h o o o o o 7 7 7 7 7 7 7 7   7           7 7 7 7 7 7 7 7 7 7 7 7 7 7 5 4 c b C c B C u u u ",
"r t y g g F ' c x g < , , , 1 , > x N o o o o o 7 7 7 7 7 7 p.p.              p.p.7 7 7 7 7 7 7 7 7 7 7 7 < 5 c h 4 h h g u u u ",
"r t t x 3 4 h x x b F P m x m h Z I o o o o o o 7 7 7 7 7 p.p.                p.p.7 7 7 7 7 7 7 7 7 7 7 7 2 4 4 < < < < < u u u ",
"r i u x x 4 4 y 4 K 6.y.K h h B >._ o o o o o 7 7 7 7 7 7 p.d d         5.5.  p.7 7 7 7 7 7 7 7 7 7 7 7 7 x < > 4 x 4 4 x u u u ",
"r t u x x b N 5 , C } >._ h b =.Q K o o o o o 7 7 7 7 7 7 p.7 d d d     5.5.7 7 7 7 7 7 7 7 7 7 7 7 7 7 7 x x h h x h h c u u u ",
"r t r y 4 K =.h : b R F b h / _ ^ o o 7 o o o 7 7 7 7 7 7 7 7 7 d d d d 5.7 7 7 7 7 7 7 7 7 7 7 7 7 7 7 7 B z x h h x h h u u u ",
"r t u y < b :.F , < 4 : 4 h h U o o o o o o o 7 7 7 7 7 7 7 7 7 d d d d 5.7 7 7 7 7 7 7 7 7 7 7 7 7 7 7 7 7 U K B h F k h u u u ",
"r t i y 4 c #.Y 4 4 4 < h x 4 C o o o 7 7 7 o 7 7 7 7 7 7 7 7 7 7 d d d 7 7 7 7 7 7 7 7 7 7 7 7 7 7 7 7 7 7 :.$.Q x _ K c u r u ",
"r t y w 4 h / Y c y x x x x g o o o o 7 7 7 7 7 7 7 7 7 7 7 7 7 7 7 d d 7 7 7 7 7 7 7 7 7 7 7 7 7 7 7 7 7 7 7 D ^ N B _ b u u u ",
"r i y y 4 x / ..[ b g x x x x o o o o 7 7 7 7 7 7 7 7 7 7 7 7 7 7 7 d 7 7 7 7 7 7 7 7 7 7 7 7 7 7 7 7 7 7 7 7 7 ^ N Z ` b u u u ",
"r i x x 1 h I | 4.#._ U c x x o o o 7 7 7 7 7 7 7 7 7 7 7 7 7 7 7 7 7 7 7 7 7 7 7 7 7 7 7 7 7 7 7 7 7 7 7 7 7 7 _ N Z / b u u u ",
"r u x x 4 < x I } %.u.y.B x o o o o 7 7 7 7 7 7 7 7 7 7 7 7 7 7 7 7 7 7 7 7 7 7 7 7 7 7 7 7 7 7 7 7 7 7 7 7 7 7 7 m C Z c u u u ",
"u u x x z 4 4 c K Q #.4.K x o o o 7 7 7 7 7 7 7 7 7 7 7 7 7 7 7 7 7 7 7 7 7 7 7 7 7 7 7 7 7 7 7 7 7 7 7 7 7 7 7 7 x m x x u u u ",
"u u y h x 4 > 4 g C F F B h o o o 7 7 7 7 7 7 7     7 7 7 7 7 7 7 7 7 7 7 7 7 7 7 7 7 7 7 7 7 7 7 7 7 7 7 7 7 7 7 7 4 4 c u u u ",
"u u y c C c 3 < < 4 c m g   o o o o 7 7 7 7 7 7 7     7 7 7 7 7 7 7 7 7 7 7 7 7 7 7 7 7 7 7 7 7 7 7 7 7 7 7 7 7 7 o < g c u u u ",
"u u t x F Y c < < < 4 4 4   o o o o o 7 7 7 7 7 7 7   7 7 7 7 7 7 7 7 7 7 7 7 7 7 7 7 7 7 7 o 7 7 7 7 7 7 7 7 7 7 7 g x c u u u ",
"u r i y h ..| c g < < , <   o o o o o 7 7 7 7 7 7 7   7 7 7 7 7 7 7 7 7 7 7 7 7 7 7 7 7 7   o o 7 7 7 7 7 7 7 7 7 7 x x c u u u ",
"u r i y g C I c x h < : Y   o o o 7 7 7 7 7 7 7 7 7   7 7 7 7 7 7 7 7 7 7 7 7 7 7 7 7 7 7   o o 7 7 7 7 7 7 7 7 7 7 I N x u u u ",
"u u u y h g g g g Y Y U 4.o   o o o o 7 7 7 7 7 7 7   7 7 7 7 7 7 7 7 7 7 7 7 7 7 7 7 7 7   o o o 7 7 7 7 7 7 7 7 7 ;.P x u r u ",
"r r u y x x x g c _ ...._ _     o o o 7 7 7 7 7 7 7   7 7 7 7 7 7 7 7 7 7 7 7 7 7 7 7 7 7   o o o 7 7 7 7 7 7 7 7 7 &.C x u r u ",
"r r u y x x 4 x Y ^ ` _ ^ / 4   o o o o o 7 7 7 7 7   7 7 7 7 7 7 7 7 7 7 7 7 7 7 7 7 7 7   o o o o 7 7 7 7 7 7 7 7 F b x u u u ",
"r r u y x x 2 x / ..o.o.O.[ 4   o o o o o 7 7 7 7 7   7 7 7 7 7 7 7 7 7 7 7 7 7 7 7 7 7 7   o o o o 7 7 7 7 7 7 7 7 c x m u u u ",
"r r u y x x g 4 c C F F C c 4 o   o o o o 7 7 7 7 7   7 7 7 7 7 7 7 7 7 7 7 7 7 7 7 7 7 7   o o o 7 7 7 7 7 7 7 7 x x x m u u u ",
"r u i y h g g 2 > 4 g g 4 < < o 7     o o 7 7 7 7   7 7 7 7 7 7 7 7 7 7 7 7 7 7 7 7 7 7 7   o o o 7 7 7 7 7 7 7 7 m h x m u u u ",
"r t y y 4 b U h 4 < , : , < o o o 7 7   o 7 7 7 7   7 7 7 7 7 7 7 7 7 7 7 7 7 7 7 7 7 7   o o o 7 7 7 7 7 7 7   4 b 5 5 N u u u ",
"r t y x m ' ..b g m b b ..;.o o o o 7 7   o 7 7   7 7 7 7 7 7 7 7 7 7 7 7 7 7 7 7 7 7 7   o o o 7 7 7 7 7 7     4 N 4 h N i u u ",
"r t y h m ..;.C g E *.@.;.$.o o o o 7 7 7         7 7 7 7 7 7 7 7 7 7 7 7 7 7 7 7 7 7 7   o o o 7 7 7 7 7   7 7 h N h h F u u u ",
"r u y g 4 b K b h b N b N C o o o o o 7 7 7 7 7 7 7 7 7 7 7 7 7 7 7 7 7 7 7 7 7 7 7 7 7 7   o 7 7 7       7 7 7 C b R b C u u u ",
"r u y x g g x x g h h 4 z x o o o o o 7 7 7 7 7 7 7 7 7 7 7 7 7 7 7 7 7 7 7 7 7 7 7 7 7 7           7 7 7 7 7 7 K b | C N u u u ",
"r u t h x x g b *.q.8.8.L g o o o o o o 7 7 7 7 7 7 7 7 7 7 7 7 7 7 7 7 7 7 7 7 7 7 7 7 7 7 7 7 7 7 7 7 7 7 7 7 F b Y B N i u u ",
"r t i x x 4 g b L _ { { | q.o o o o 7 o 7 7 7 7 7 7 7 7 7 7 7 7 7 7 7 7 7 7 7 7 7 7 7 7 7 7 7 7 7 7 7 7 7 7 7 7 c c N h b u u u ",
"r u u 5 < 4 B Z K L F B K 1.o o o o o o o 7 7 7 7 7 7 7 7 7 7 7 7 7 7 7 7 7 7 7 7 7 7 7 7 7 7 7 7 7 7 7 7 7 7 7 x x b h c u u u ",
"u u u 4 , c ^ ` ...._ _ K o o o o o o o o 7 7 7 7 7 7 7 7 7 7 7 7 7 7 7 7 7 7 7 7 7 7 7 7 7 7 7 7 7 7 7 7 7 7 7 h c h g c u u u ",
"u r u 4 , c } } ....} o.K o o o o o o o o 7 7 7 7 7 7 7 7 7 7 7 7 7 7 7 7 7 7 7 7 7 7 7 7 7 7 7 7 7 7 7 7 7 7 7 4 m g 4 m u u u ",
"u r u 4 , c ` } ....} ..G o o o 7 7 7 o o o 7 7 7 7 7 7 7 7 7 7 7 7 7 7 7 7 7 7 7 7 7 7 7 7 7 7 7 7 7 7 7 7 7 < 4 m 4 4 m u u u ",
"u r u w , g Z K ^ } o._ F o o o 7 7 7 7 o o 7 7 7 7 7 7 7 7 7 7 7 7 7 7 7 7 7 7 7 7 7 7 7 7 7 7 7 7 7 7 7 7 7 r y m i y m u u u ",
"u u r t < > h B G Y U I c o o o 7 7 7 7 7 7 7 7 7 7 7 7 7 7 7 7 7 7 7 7 7 7 7 7 7 7 7 7 7 7 7 7 7 7 7 7 7 7 7 h g x x g x u u u ",
"u u r q y < , 4 h b c g > o o 7 7 7 7 7 7 7 7 7 7 7 7 7 7 7 7 7 7 7 7 7 7 7 7 7 7 7 7 7 7 7 7 7 7 7 7 7 7 7 7 } o.C K +.b u u u ",
"u u u 0 # 1 w : : , : , 4 o o 7 7 7 7 7 7 7 7 7 7 7 7 7 7 7 7 7 7 7 7 7 7 7 7 7 7 7 7 7 7 7 o 7 7 7 7 7 7 7 7 L } F S +.N u u u ",
"u u u 0 @ + y n y 4 < z x o 7 7 7 7 7 7 o o o o o o o o o o o 7 7 7 7 7 7 7 7 7 o o o o o o o o 7 7 7 7 7 7 7 K U b F U b u u u ",
"u u r r r 8 + + * y x x x o 7 7 7 7 7 o o o o o 4 4 4 4 4 4 4 o o o o o o o o o o o o o o o o o 7 7 7 7 7 7 7 h b c h N c u u u ",
"u u r r u r 6 + . . - w n o 7 7 7 7 7 o o o o o : : , , < 2 , x x 1 , , , , , > : 4 g x x o o o 7 7 7 7 7 7 7 4 4 x 4 4 x u u u ",
"u u u r u u r 0 8 $ @ X X o 7 7 7 o o o o o o o c c m m m c c c x c m m n y w w q w y c m c o o o 7 7 7 7 7 7 : < x 4 < c u u u ",
"u u u u u u u u u u 9 8 = o 7 7 7 o o o o o O O X X X . X X + & & + X . X X o @ @ @ @ o + + o o 7 7 7 7 7 7 7 p y ; q y - u u u ",
"u u u u u u u u u u r r 9 o o 7 7 7 o o o X O O O O O O O O O X X . X X O @ $ 6 6 6 6 $ = @ o o o 7 7 7 7 7 O + + O o + X 0 u u ",
"u u u u u u u u u u u u u u o o o o o u u r u u s s s s u r r 9 9 9 9 9 0 s s u u u u u u u u o o 7 7 7 7 7 = 8 r u r u u u u u ",
"u u u u u u u u u u u u u u u u u u u u u u u u r r r r r r r r r r r r r r r u u u u u u u u o o 7 7 7 7 7 r r r r r r u u u u ",
"u u u u u u u u u u u u u u u u u u u u u u u u u u u u u u u u u u u u u u u u u u u u u u u u u o o o o u u u u u u u u u u u "
};
