/* XPM */
static char *a43c05f8793f47cace50c135ada814e1r6kyIvgpcrc6brDY[] = {
/* columns rows colors chars-per-pixel */
"64 64 134 2 ",
"   c #100D0D",
".  c #15140F",
"X  c #18160F",
"o  c #151612",
"O  c #1B1616",
"+  c #161914",
"@  c #1C1B15",
"#  c #1B1B19",
"$  c #201B14",
"%  c #1F211E",
"&  c #2C210E",
"*  c #39240F",
"=  c #262117",
"-  c #2B2017",
";  c #24241B",
":  c #2D241A",
">  c #2E291C",
",  c #352515",
"<  c #392616",
"1  c #362816",
"2  c #3A2916",
"3  c #35261A",
"4  c #39271A",
"5  c #36291A",
"6  c #3C2C1B",
"7  c #3E301F",
"8  c #232523",
"9  c #2D2727",
"0  c #262924",
"q  c #2A2C26",
"w  c #2C2E2B",
"e  c #342E24",
"r  c #3C2E22",
"t  c #322F29",
"y  c #2E322D",
"u  c #353225",
"i  c #3D3224",
"p  c #31322C",
"a  c #39332A",
"s  c #3C382A",
"d  c #2F3230",
"f  c #303330",
"g  c #591010",
"h  c #412E1D",
"j  c #43311E",
"k  c #4A351E",
"l  c #4B381A",
"z  c #422F21",
"x  c #443322",
"c  c #493623",
"v  c #4C3A25",
"b  c #423328",
"n  c #433628",
"m  c #473A28",
"M  c #4B3828",
"N  c #4B3B29",
"B  c #4D3B29",
"V  c #4B3D29",
"C  c #4A392C",
"Z  c #523D25",
"A  c #583D24",
"S  c #503B29",
"D  c #523E29",
"F  c #573F29",
"G  c #533D2F",
"H  c #583E29",
"J  c #4F4029",
"K  c #554126",
"L  c #584027",
"P  c #52402A",
"I  c #54402B",
"U  c #50402E",
"Y  c #55412F",
"T  c #57452D",
"R  c #584129",
"E  c #5B452D",
"W  c #5B462D",
"Q  c #5F492E",
"!  c #544130",
"~  c #574431",
"^  c #5A4731",
"/  c #5C4733",
"(  c #5E4933",
")  c #5F4C31",
"_  c #5A4834",
"`  c #5E4A35",
"'  c #5E4A39",
"]  c #60452F",
"[  c #61492E",
"{  c #624735",
"}  c #624D37",
"|  c #644D34",
" . c #654D36",
".. c #694F35",
"X. c #624E38",
"o. c #664F39",
"O. c #665034",
"+. c #6A5136",
"@. c #63523A",
"#. c #65503B",
"$. c #66503A",
"%. c #695039",
"&. c #6A5239",
"*. c #6B533A",
"=. c #6D553A",
"-. c #6D523C",
";. c #6E543C",
":. c #6E593B",
">. c #725037",
",. c #71553D",
"<. c #78553A",
"1. c #72593F",
"2. c #795D3D",
"3. c #6D5740",
"4. c #6E5A41",
"5. c #735843",
"6. c #745C43",
"7. c #785D44",
"8. c #7F6041",
"9. c #7B6046",
"0. c #7D6145",
"q. c #7C644C",
"w. c #BC1313",
"e. c #81654B",
"r. c #826B4B",
"t. c #816B4E",
"y. c #896B4C",
"u. c #836A52",
"i. c #897155",
"p. c #8D7458",
"a. c #92755B",
"s. c #917A5E",
"d. c #DBCDCD",
"f. c #F0EAEA",
/* pixels */
"p p p e u a a a a a a a a a a a a a a a a a a a a a a a a a t a a a a a a a a a a a a e e a a a a p t t t a a a a p y p p p p p ",
"y p i y y y y y y y y w w w w w y y y y y y y y y y y w y y y y y y y y y y y y y y y O O O O O O O O y p y y y y y y y p p p p ",
"y a x 2 v W ^ N x 7 _ $. .o.o.$.L R / ! U c h Y X.^ ( @.C b 3 S I ) ( G N j h O O O O O 9 O O O O O 9 9 9 6 v P I s y y y p p p ",
"y a x c 5.%.I x x 3 x { -.%.;.;.;.;.H 6 1 6 6 , x v h 2 * j 1 ^ $.I k 6 6 c O O O O O O O O O O 9 9 9 9 9 9 9 4 c T j v T p p p ",
"y a j 1 m 6 3 3 r x , & , 4 4 2 5 5 3 : 3 i i r 5 , 6 4 1 x x 4 2 4 6 4 4 O O O O O O O O 9 9 9 9 9 9 9 9 9 9 9 9 V h 6 J p p p ",
"y a x 1 2 4 4 z j j x 4 1 4 6 r 6 4 3 4 r x x x 4 3 4 , 2 j x 1 6 6 6 4 O O O O O O O 9 9 9 9 9 9 9 9 9 9 9 9 9 9 9 6 1 v p p p ",
"d a x z < h F 0.y.8.r.} x h 2 2 6 h l =.i.s.i.%.k h 6 6 x x x x h 2 O O O O O O O O O 9 9 9 9 9 9 9 9 9 9 9 9 9 9 9 6 6 j p p p ",
"y a h x j D 9.6. . .=.u.W c x x z x O.p.7...+.7.+.k j h j } / N x O O O O O 9 O 9 9 9 9 9     9 9 9 9 9 9 9 9 9 9 9 9 6 j p p p ",
"y a x ~ c W ..W I I F F e.a.k x x N :.L [ %...W 1.7.v 6 ,.>.<.D O O O O O O 9 9 9 9 9 9         9 9 9 9 9 9 9 9 9 9 9 9 j p p p ",
"y i j h B } [ +.%.%.+.] A  .%.c x h I  .=.%. .W Z v N h v ' O O O O O O O O 9 9 9 9 9       f.  9 9 9 9 9 9 9 9 9 9 9 9 O p p p ",
"y i x h x c W O.+.%.%. .R F q.~ x 6 S W { $./ D x 1 h h N O O O O O O O 9 9 9 9 9 9 9           9 9 9 9 9 9 9 9 9 9 9 9 9 p p p ",
"y i x h j j Z Q =.%.%.;.W D < 6 c 6 2 6 1 1 2 6 2 1 h x O O O O O O O O 9 9 9 9 9 9 9 9       9 9 9 9 9 9 9 9 9 9 9 9 9 9 9 p p ",
"y i x h v h c I  .%.%.%.^ v 6 1 x c 3 4 6 6 6 6 2 1 6 O O O O O O 9 9 9 9 9 9 9 9 9 9 9 9 9 9 9 9 9 9 9 9 9 9 9 9 9 9 9 9 9 p p ",
"y i 6 h X.v x h h D ^ T j 6 6 , x x 6 3 1 2 2 6 2 1 O O O O O O 9 9 9 9 9 9 9 9 9 9 9 9 9 9 9 9 9 9 9 9 9 9 9 9 9 9 9 9 9 9 9 p ",
"y i h 2 X.} h x 6 6 x 6 2 6 6 1 6 x x i 1 , , 4 O O O O O O O O 9 9 9 9 9 9 9 9 9 9 9 9 9 9 9 9 9 9 9 9 9 9 9 9 9 9 9 9 9 9 9 p ",
"y u j 6 ( } S x x 6 2 2 6 6 6 1 1 x x x x 4 1 O O O O O O 9 O 9 9 9 9 9 9 9 9 9 9 d.d.9 9 9 9 9 9 9 9 9 9 9 9     9 9 9 9 9 9 p ",
"y u x 6 v  .$.c x 6 , , 1 1 1 , 1 i j O O O O O O O O O O O O 9 9 9 9 9 9 9 9 9 9 d.d.      9 9 9 9 9 9 9 9         9 9 9 9 9 p ",
"y u i h h Y X.N x h 1 1 1 1 3 1 < O O O O O O O O 9 9 9 9 O 9 9 9 9 9 9 9 9 9 9 d.d.          9 9 9 9 9 9       f.  9 9 9 9 9 p ",
"y u u x 5 6 j x x v Y ~ x x x j O O O O 9 9 9 9 9 9 9 9 9 9 9 9 9 9 9 9 9 9 9 9 9 w.w.w.        9 9 9 9 9           9 9 9 9 9 p ",
"y a p x x 6 6 i 6 W e.a.W j O O O O O O O 9 9 9 9 9 9 9 9 9 9 9 9 9 9 9 9 9 9 9 w.w.w.w.          9 9 9 9 9       9 9 9 9 9 9 p ",
"y u p x x v B 7 1 D +.7. .O O O O O O O O 9 9 9 9 9 9 9 9 9 9 9 9 9 9 9 9 9 9 9 w.w.w.            9 9 9 9 9 9 9 9 9 9 9 9 9 9 p ",
"y u y i 6 T 5.j , v ` P O O O O O 9 9 9 9 9 9 9 9 9 9 9 9 9 9 9 9 9 9 9 9 9 9 9 w.w.w.            d.d.9 9 9 9 9 9 9 9 9 9 9 9 p ",
"y u p i 2 v 7.Y 1 1 6 O O O O O O 9 9 9 9 9 9 9 9 9 O O 9 9 9 9 9 9 9 9 9 9 9 w.w.w.g g g g g     d.d.9 9 9 9 9 9 9 9 9 9 9 9 p ",
"y u a i 6 c ,.( 6 6 6 O O O O 9 9 9 9 9 9 9 9 9 9 O O O 9 9 9 9 9 9 9 9 9 9 9 w.w.w.g g g g g g d.d.9 9 9 9 9 9 9 9 9 9 9 9 p p ",
"y u i r 6 j  .( c i O O O O O O 9 9 9 9 9 9 9 O O O O 9 9 9 9 9 9 9 9 9 9 9 9 w.w.g g g g g 9 9 d.9 9 9 9 9 9 9 9 9 9 9 9 9 p p ",
"y a i i 6 x } %.o.v O O O O 9 9 9 9 9 9 9 9 9 O O O     9 9 9 9 9 9 9 9 9 9 9 w.g g g 9 9 9 9 9 9 9 9 9 9 9 9 9 9 9 9 9 9 p p p ",
"y a x x 3 j ^ $.q.,.O O O O O O 9 9 9 9 O 9 O O O     9 9 9 9 9 9 9 9 9 9 9 w.w.g g 9 9 9 9 9 9 9 9 9 9 9 9 9 9 9 9 9 9 9 p p p ",
"y p x x 2 2 x ^ +.2.O O O O O 9 9 9 9 9 O O O O     9 9 9 9 9 9 9 9 9 9 9 9 w.g g g 9 9 9 9 9 9 9 9 9 9 9 9 9 9 9 9 9 9 c p p p ",
"p p x x z 6 6 c W [ O O O O O 9 9 O O O O O O     9 9 9 9 9 9 9 9 9 9 9 9 9 w.g g 9 9 9 9 9 9 9 9 9 9 9 9 9 9 9 9 9 9 x x p p p ",
"p p i j x 6 < 6 h D O O O O O 9 9 9 O O O O O   9 9 9 9 9 9 9 9 9 9 9 9 9 9 w.g 9 9 9 9 9 9 9 9 9 9 9 9 9 9 9 9 9 9 9 6 c p p p ",
"p p i c D N 4 2 2 6     O O O 9 9 9 9 O O O O   9 9 9 9 9 9 9 9 9 9 9 9 9 9 9 9 9 9 9 9 9 9 9 9 9 9 9 9 9 9 9 9 9 9 2 6 c p p p ",
"p p u x Y ( c 2 2 2 6   O 9 9 9 9 9 9 9 O O O     9 9 9 9 9 9 9 9 9 9 9 9 9 9 9 9 9 9 9 9 9 9 9 9 O 9 9 9 9 9 9 9 9 h x c p p p ",
"y y a i k %.$.c h 2 1     O O 9 9 9 9 9 O O O     9 9 9 9 9 9 9 9 9 9 9 9 9 9 9 9 9 9 9 9 9 9 9 O O 9 9 9 9 9 9 9 9 x x c p p p ",
"p y a i h D ^ N x j 2 ,     O O 9 9 9 9 9 O O     9 9 9 9 9 9 9 9 9 9 9 9 9 9 9 9 9 9 9 9 9   O O O 9 9 9 9 9 9 9 9 ^ B x p p p ",
"p p p i j h h h h ( ( / q.    O O 9 9 9 9 9 O O     9 9 9 9 9 9 9 9 9 9 9 9 9 9 9 9 9 9     O O O 9 9 9 9 9 9 9 9 9 6.~ x p p p ",
"y y p i x x x h c  .%.%. .O   O O 9 9 9 9 9 O O     9 9 9 9 9 9 9 9 9 9 9 9 9 9 9 9 9     O O O 9 9 9 9 9 9 9 9 9 9 3.G x p p p ",
"y y p i x x 6 x (  ... . .O O   O O O 9 9 9 9 O     9 9 9 9 9 9 9 9 9 9 9 9 9 9 9 9     O O O 9 9 9 9 9 9 9 9 9 9 9 Y v x p p p ",
"y y p i x x 4 x } %.=.=.-.O O       O O 9 9 9 O O   9 9 9 9 9 9 9 9 9 9 9 9 9 9 9     O O O O 9 9 9 9 9 9 9 9 9 9 x c x x p p p ",
"y y p i x x h 6 c D Y I D O O O O     O 9 9 9 9     9 9 9 9 9 9 9 9 9 9 9 9 9 9 9   O O O O 9 9 9 9 9 9 9 9 9 9 9 x x x x p p p ",
"y p a i j h h 4 < 6 h h 6 O O O O 9               9 9 9 9 9 9 9 9 9 9 9 9 9 9 9   O O O O 9 9 9 9 9 9 9 9 9 9 9 O x j x x p p p ",
"y u i i 6 v / j 6 2 1 , O O O O 9 9 9 9 9 9 9 9 9 9 9 9 9 9 9 9 9 9 9 9 9 9 9     O O O 9 9 9 9 9 9 9 9 9 9 9 9   v j j N p p p ",
"y u i x x X.=.v h x v v O O O O O 9 9 9 9 9 9 9 9 9 9 9 9 9 9 9 9 9 9 9 9 9 9   O O O O 9 9 9 9 9 9 9 9 9 9 9   6 B 6 j B a p p ",
"y u i j x =.6.G h ' 4.:.O O O O O O 9 9 9 9 9 9 9 9 9 9 9 9 9 9 9 9 9 9 9 9 9   O O O 9 9 9 9 9 9 9 9 9 9 9 9   j B j j P p p p ",
"y p i h 6 v W v j v B v O O O O O O 9 9 9 9 9 9 9 9 9 9 9 9 9 9 9 9 9 9 9 9 9   O O 9 9 9 9 9 9 9 9 9 9 9 9   X.D v ` v D p p p ",
"y p i x h h x x h j j 6 O O O O O 9 9 9 9 9 9 9 9 9 9 9 9 9 9 9 9 9 9 9 9 9 9   O O 9 9 9 9 9 9 9 9 9 9     %.4.T c $.D B p p p ",
"y p u j x x h v 4.u.t.t.O O O O O O 9 9 9 9 9 9 9 9 9 9 9 9 9 9 9 9 9 9 9 9 9       9 9 9 9 9 9 9 9     9 9 W  .I c ( Z B a p p ",
"y u a x x 6 h c Q  .O.O.O O O O O O O 9 9 9 9 9 9 9 9 9 9 9 9 9 9 9 9 9 9 9 9 9 9                     9 9 9 I Z c c B j v p p p ",
"y p p 7 2 6 Z F W Q I Z O O O O O 9 O 9 9 9 9 9 9 9 9 9 9 9 9 9 9 9 9 9 9 9 9 9 9 9 9 9 9 9 9 9 9 9 9 9 9 9 I c x x v j c p p p ",
"p p p 6 1 c  ...%.%. . .O O O O O 9 9 9 9 9 9 9 9 9 9 9 9 9 9 9 9 9 9 9 9 9 9 9 9 9 9 9 9 9 9 9 9 9 9 9 9 9 v h j c j h c p p p ",
"p y p 6 1 N +.+.%.%.+.=.O O O O 9 9 9 9 9 9 9 9 9 9 9 9 9 9 9 9 9 9 9 9 9 9 9 9 9 9 9 9 9 9 9 9 9 9 9 9 9 9 h 1 6 x h 6 x p p p ",
"p y p 6 1 c ..+.%.%.+.%.O O 9 O O 9 9 9 9 9 9 9 9 9 9 9 9 9 9 9 9 9 9 9 9 9 9 9 9 9 9 9 9 9 9 9 9 9 9 9 9 9 1 1 6 x 6 6 x p p p ",
"p y p r 1 h F W  .+.=. .O O 9 9 O 9 9 9 9 9 9 9 9 9 9 9 9 9 9 9 9 9 9 9 9 9 9 9 9 9 9 9 9 9 9 9 9 9 9 9 9 9 u y i x a i x p p p ",
"p p y u 2 < j Z R ( / ^ O O O O 9 9 9 9 9 9 9 9 9 9 9 9 9 9 9 9 9 9 9 9 9 9 9 9 9 9 9 9 9 9 9 9 9 9 9 9 9 9 x j h x x h x p p p ",
"p p y e i 2 1 6 j v c h O O O 9 9 9 9 9 9 9 9 9 9 9 9 9 9 9 9 9 9 9 9 9 9 9 9 9 9 9 9 9 9 9 9 9 9 9 9 9 9 9 5.+.=.D W ;.v p p p ",
"p p p w $ 3 r , , 1 , 1 O O O O 9 9 9 9 9 9 9 9 9 9 9 9 9 9 9 9 9 9 9 9 9 9 9 9 9 9 9 9 9 9 9 9 9 9 9 9 9 9  .Q +.U K ;.B p p p ",
"p p p w # @ i n i 6 2 z O O O O O 9 9 9 9 9 O O O O O 9 9 9 9 9 9 9 9 9 9 9 9 9 9 9 9 9 9 9 9 9 9 9 9 9 9 9 ( W / v I / v p p p ",
"p p y y y 0 @ @ - i x x O O O O O 9 9 9 9 9 x 4 6 6 O O O O O O O O O O O O O O O O O O O O 9 9 9 9 9 9 9 9 c j v N j B N p p p ",
"p p y y p y 8 @ . X : r O O O O O 9 9 9 9 x r 1 , , 1 1 2 4 1 x x 3 1 1 1 1 1 < , 6 h O O O O 9 9 9 9 9 9 9 6 6 6 x 6 6 x p p p ",
"p p p y p p y w 0 % # o O O O O 9 9 9 9 9 x x x N N x x x N N N x N x x n i r r e r i O O O O O 9 9 9 9 9 9 < , 1 x 6 2 c p p p ",
"p p p p p p p p p p q 0 O O O 9 9 9 9 9 9 X + + o o o X o o @ = = @ o . o o O # # # # O O O O O 9 9 9 9 9 9 i s i > e i : p p p ",
"p p p p p p p p p p y y O O O O 9 9 9 9 + o + + + + + + + + + o o . o o + # % 8 8 8 8 % O O O O O 9 9 9 9 9 + @ @ + O @ o w p p ",
"p p p p p p p p p p p p O O O O 9 9 9 O p y p p f f f f p y y q q q q q w f f p p p p p p O O O O 9 9 9 O O ; 0 y p y p p p p p ",
"p p p p p p p p p p p p p O O O 9 O O p p p p p y y y y y y y y y y y y y d y p p p p p p p O O 9 9 9 O O y y y y y y y p p p p ",
"p p p p p p p p p p p p p p O O O O p p p p p p p p p p p p p p p p p p p p p p p p p p p p p O O O O O p p p p p p p p p p p p "
};
