/* XPM */
static char *e438390fab204822e941f3caa302a132neE3wpNgj29ksOur[] = {
/* columns rows colors chars-per-pixel */
"64 54 224 2 ",
"   c #16140E",
".  c #131313",
"X  c #1A1514",
"o  c #1D1A15",
"O  c #1B1B1B",
"+  c #221517",
"@  c #231C15",
"#  c #251518",
"$  c #241D1A",
"%  c #2C1B18",
"&  c #38181C",
"*  c #1F211E",
"=  c #2B2115",
"-  c #24211B",
";  c #2C231A",
":  c #352515",
">  c #392616",
",  c #362916",
"<  c #3A2916",
"1  c #352619",
"2  c #39261A",
"3  c #35291C",
"4  c #3C2C1B",
"5  c #3E301D",
"6  c #371D21",
"7  c #242524",
"8  c #2B2522",
"9  c #2A2A26",
"0  c #2C2C2B",
"q  c #302022",
"w  c #352C21",
"e  c #3C2E21",
"r  c #2E322C",
"t  c #343226",
"y  c #3C3124",
"u  c #31322C",
"i  c #3B322C",
"p  c #2F3230",
"a  c #333332",
"s  c #3E3832",
"d  c #3D3D3D",
"f  c #41171C",
"g  c #40181E",
"h  c #5C1A1F",
"j  c #42251D",
"k  c #412E1D",
"l  c #49281B",
"z  c #55231F",
"x  c #55291E",
"c  c #483A17",
"v  c #43311E",
"b  c #49341E",
"n  c #4C381D",
"m  c #65241F",
"M  c #62321F",
"N  c #663A1E",
"B  c #441A22",
"V  c #4B1B24",
"C  c #571C27",
"Z  c #591C26",
"A  c #5D1D28",
"S  c #631A23",
"D  c #691B25",
"F  c #641D28",
"G  c #6C1D29",
"H  c #751C27",
"J  c #741D29",
"K  c #7C1D2A",
"L  c #402523",
"P  c #4B2321",
"I  c #432E21",
"U  c #4B2A22",
"Y  c #422D2B",
"T  c #532426",
"R  c #5C2323",
"E  c #532B24",
"W  c #5A2329",
"Q  c #562929",
"!  c #5B2B2B",
"~  c #443322",
"^  c #493523",
"/  c #463824",
"(  c #4C3A25",
")  c #423529",
"_  c #4A3329",
"`  c #45392C",
"'  c #4D3B29",
"]  c #543224",
"[  c #523C25",
"{  c #583C25",
"}  c #5A332C",
"|  c #533D2A",
" . c #593C2B",
".. c #423C35",
"X. c #5D3631",
"o. c #642524",
"O. c #6A242A",
"+. c #682828",
"@. c #732326",
"#. c #7A2C26",
"$. c #752329",
"%. c #78282A",
"&. c #653228",
"*. c #61352E",
"=. c #753424",
"-. c #75312D",
";. c #7D322E",
":. c #712C33",
">. c #623D31",
",. c #773B31",
"<. c #534418",
"1. c #6C461A",
"2. c #74571C",
"3. c #7C651D",
"4. c #7F691F",
"5. c #574126",
"6. c #5B4126",
"7. c #55412C",
"8. c #5B442C",
"9. c #5F492F",
"0. c #585227",
"q. c #4D433A",
"w. c #564532",
"e. c #5B4631",
"r. c #5E4932",
"t. c #5D4B39",
"y. c #61462D",
"u. c #62492E",
"i. c #695C24",
"p. c #614631",
"a. c #6F4533",
"s. c #644C34",
"d. c #694D35",
"f. c #634D39",
"g. c #6A4E39",
"h. c #754533",
"j. c #665135",
"k. c #695135",
"l. c #6B5136",
"z. c #66513A",
"x. c #6C533B",
"c. c #6E593D",
"v. c #755339",
"b. c #70543A",
"n. c #735A3D",
"m. c #6D5740",
"M. c #6E5941",
"N. c #745D43",
"B. c #765945",
"V. c #776346",
"C. c #796146",
"Z. c #75614A",
"A. c #7D644A",
"S. c #871E27",
"D. c #841E2B",
"F. c #891E2B",
"G. c #941F2C",
"H. c #852826",
"J. c #84222B",
"K. c #8C222A",
"L. c #95212B",
"P. c #9C212C",
"I. c #94282A",
"U. c #8C352D",
"Y. c #992B32",
"T. c #873636",
"R. c #A3222D",
"E. c #AC222E",
"W. c #A8292F",
"Q. c #B4222F",
"!. c #BA232F",
"~. c #BF2330",
"^. c #AA3133",
"/. c #C42430",
"(. c #8E5916",
"). c #99581B",
"_. c #A7581F",
"`. c #8B6C1D",
"'. c #B77614",
"]. c #8D4622",
"[. c #954921",
"{. c #944C20",
"}. c #9F5020",
"|. c #A25220",
" X c #836D20",
".X c #C4731B",
"XX c #80654C",
"oX c #866B4E",
"OX c #856C53",
"+X c #866B54",
"@X c #897155",
"#X c #8C7458",
"$X c #90775B",
"%X c #AF8B1F",
"&X c #A18424",
"*X c #BB9825",
"=X c #A59335",
"-X c #BCAA3E",
";X c #D18C19",
":X c #E68E17",
">X c #EEA61E",
",X c #FFA415",
"<X c #F9AB1B",
"1X c #FDB31C",
"2X c #FFBB1F",
"3X c #C39228",
"4X c #D0A928",
"5X c #FFAF20",
"6X c #E6B523",
"7X c #FFBA22",
"8X c #FFC624",
"9X c #FFCE2E",
"0X c #E4C137",
"qX c #F9CC3B",
"wX c #FCD337",
"eX c #FFD63B",
"rX c #FFDA3E",
"tX c #C8B744",
"yX c #E3D04D",
"uX c #FFDD43",
"iX c #FFE047",
"pX c #FFE34C",
"aX c #FFE752",
"sX c #FFEB57",
/* pixels */
"r i ~ > < 2 2 I k o . 1 : 1 4 e 4 2 1 4 e ~ ~ ~ 4 1 3 : < v ~ @ . ; 4 2 < ~ ~ ~ v ~ ~ ~ ~ e. .y.p.8.6.g.s.~ 4 : > / 4 > ( u u u ",
"p i ~ I > k  .N.t . M.s.~ 4 < < 4 k n x.@X$X@Xx.n k 4 4 ~ ~ ~ ~ @ . ; ~ ^ 5.N.#XOXr.v ~ e ' r.c.x.x.s. .k < y 4 4 v 4 4 v u u u ",
"r i k ~ v | c.t 0 8 s.OX8.^ ~ ~ I ~ j.#XN.g.k.N.k.b v k v f.e.^ ; 9 7 1 8.#XN.u.k.s.( ~ y | 7.x.x.k.p.[ , < ~ < 4 5 4 4 v u u u ",
"r i ~ w.^ ' 3 0 7 ^ {  .XX$Xb ~ ~ ^ c.6.u.x.g.9.n.N.( 4 b.v.v.| v $ a O ` u.k.k.b.9.k 4 ~ ~ ' | ^ v 4 4 < < ~ 4 4 5 5 4 v u u u ",
"r t v k ' y O a 7 7.k.y.{ d.x.^ ~ k 7.s.x.x.s.8.[ ( ^ k ( t.~ 4 ^ - a 9 . s.k.k.k.9.b 4 ~ 4 > < < 4 4 4 : < ~ ~ 4 4 ~ < v u u u ",
"r y ~ k 4 @ 9 d i r.x.s.6.{ A.w.~ 4 [ 8.p.z.e.| ~ : k k ^ ~ < v ~ 3 a d O 3 s.j.s.7.v 4 ~ ~ 4 4 4 4 4 < : 4 ~ ~ 4 4 ~ 4 v u u u ",
"r y ~ k 1 . 9 d t.x.x.c.8. .> 4 ^ 4 < 4 > > 4 4 < : k ~ 4 ~ ^ ( ^ ^ s d O . ( ( v 4 4 e ~ ~ ~ v 5 : 1 < ~ ~ ~ ~ ~ v ~ ~ v u u u ",
"r y ~ 2 o . 9 d w.x.x.x.8.( 4 : ~ ^ 1 4 4 4 4 4 < : 4 ~ ~ [ [ C.N.p...d O . o 4 < 4 4 I ~ ~ ~ v ^ ' ' ' ' ~ ~ ~ ^ ( ~ ^ ( u u u ",
"r y 4 1 . . 9 d 7 ~ e.7.v 4 4 : ~ ~ 4 1 : < < 4 < : 4 ~ | c.b.u.y.e a d O . . 4 < : 4 ~ ~ ~ ~ 5 / B.oXoXA.s.b n x.Z.7.V.Z.u r u ",
"r t < . . . 9 d 7 1 ~ 4 < 4 4 : 4 ~ ~ y : : : 3 1 : I ~ ( 9.x.c.x.; a d O . . X v ^ 8.z.f.^ v : v m.g.{ k k 7.x.p.e.f.r.r.u u u ",
"r t 4 . . . 9 d d O : < 4 4 4 : : ~ ~ ~ ~ 3 , : 1 1 I 4 ^ s.k.k.y 0 d d O . . . ^ z.+X@X#Xk.[ > k z.f.7.I ~ ^ 7.e.f.e.p.z.u r u ",
"r t 4 . . . . 0 d 7 = : : , , : : y v v ^ ( ( ^ ~ I ~ : | x.x.g.e 0 d O . . . .  .r.6.6.[ @XA.~ 5 4 4 ~ ~ 5 4 ^ ( | ^ [ | u u u ",
"r t 3 . . . . 9 d d O : : : 1 : > ~ ' ' 8.g.s.y.8.| ^ < ~ f.g.~ 9 d d O . . . . b [ p.x.s.x.N.v v ^ 7.~ y < 5 ^ v 4 v v k u u u ",
"r t 3 o . . . . 0 d 7 ) ~ ~ ~ v  .e.M.s.s.g.g.x.A.oXe.~ < v ~ 3 0 d 7 . . . . $ ^ k ~ w.e.7.e.k ~ 7.A.[ 4 2 4 4 < < < > < u u u ",
"r t t 3 . . . . 7 d d 7 ~ v v [ N.p.{ 9.s.g.s. .{ s.j.( , : ; 0 d a O . . . . C.s.I ~ 4 : 5 ' 4 ~ 4 ( ^ ~ ~ < > 4 ~ 4 4 ~ u u u ",
"r t u 3 . . . . . a d d 7 1 ( N.u.8.s.x.x.x.s.6.[ [ | ^ 4 - 0 d d 7 . . . . . OXs.I ~ ^ v 4 v < 4 4 < 3 ~ ~ ~ v v ~ v v ^ u u u ",
"r t r w @ . . . . 7 d d d 9 w ~ s.d.*.*.*.*.} Q E 5 < ; ; 0 d d a O . . . . y s.( v b 7.8.[ k 4 < ^ e.e.e.[ I ~ v v ~ v v u u u ",
"r t u t ; . . . . . a d d d 0 0 w L C C C C C C C P @ 0 a d d d 7 . . . . . s.| 4 v b s.N.c.( ~ ~ | @XOXoXN.e.8.[ v 7.n b u u u ",
"u t t t 3 ; . . . . O d d d d a + Z K K K F C C C C . d d d d 0 O . . . . S.^.[ 4 4 b u.s.z.^ ~ k s.b.d.k.n.N.n.u.~ s.8.^ u u u ",
"u t t e 4 ; . . . . . O d d d $ Z D.F.F.F.D.K K Z C V 7 d d a . . . . . . !./.R.$.O.( z.N.k 4 ~ 2  .x.k.k.u.5.6.s.' [ s.( u u u ",
"u i y y 4 ~ w . . . . . X d a + F F.R.!.!.P.F.F.D.D.C O d a . . . . . . 1  ././.Q.D.J.-.x.^ 4 ~ : ^ s.k.x.k.6.6.s.' { g.( u u u ",
"u t ~ ~ 1 #./.h . . . . . . X F F.P././././.G.F.F.F.D.V . . . . . . . 4 ~ > k /./.Q.F.F.F.R 4 ~ 2 < ~ 7.r.r.8.y.p.' { d.( u u u ",
"u u ~ ~ @.E.D.D.f . . . . . + F P././././././.G.F.F.D.C . . . . . . 1 ^ e.~ k { /./.Q.F.F.F.F.! I : 3 < v ( 7.6. .~ |  .^ u u u ",
"u u ~ #./.R.G G D.f $ . . . F P././././././././.F.F.F.D.V X . . X B P | x.^ &.h.G.Q./.E.F.F.F.F.F.x 1 3 3 4 ^ ^ ~ ~ ~ ~ ~ u r u ",
"u u ] /.E.H C C G D.&.& # # D.!./././././././.Q.F.K K K F C # # B C C | ,.o.Q.E.H G Q.Q.G.F.F.F.F.F.z , : 3 < < 4 ~ 4 4 ^ u u u ",
"u u ] ~.R.H C C C G H D.Z {.].D.Q./.!.!././.Q.F.K {.{.].K K F C C C J ;.R.E.H H C C G E.Q.G.F.F.F.F.F.E 4 1 1 > 4 ~ < k ^ u u u ",
"u i H.Q.D.F C C C C C D.Z ,X>X[.D.Q.E.P.!.Q.G.H ).,X1X:XF F.H C C F L.E.K J C C C C C D./.R.F.F.F.F.F.o.~ k 4 k ~ ~ k ~ ~ u u u ",
"u Y /.Q.$.! C C C C C D.Z ,XeX>X}.D.F.K P.K G _.1XqX8X:XF F.D.F C F D.H Z C C C C C C G R.Q.G.F.F.F.o.^ c.z.^ v ~ ~ ~ ~ ^ u u u ",
"u ) /.Q.@.E C T U C C D.Z ,XeXeX>X|.F F G _..X<XuXsX8X:XF F.F.J C C K F C C C C C C C C o.P.P.F.F.R ^ z.A.A.z.s.| y e.' ~ u u u ",
"u Y !.G.@.k I k k ! C D.Z ].<X7X,X.XC C C .X2XuXsXwX<XU.K F.F.J C C F H A Z C >.X.C C C U H.P.F.z k ^ z.x.x.C.+Xf.4 N.w.~ u u u ",
"r i !.$.U ~ ~ k ^ p.W D.D.Z =.=.=.#.D.D.D.#.:X1X5X,X=.D.F.F.F.D.G C C A Z Z C x.x.g.>.! d.x L.G.l 4 ^ ' x.g.c.A.r.4 m.| ~ u u u ",
"r i !.$.~ ~ 4 ~ r.s.d.J.F.D.D.D.D.D.F.F.F.D.O.o.o.o.D.F.F.F.F.F.G C C C C y.y.s.k.k.x.s.g.^ I.P.x b ~ ~ 7.z.p.9.[ ~ 7.^ ~ u u u ",
"r r Y $.~ ~ 2 ~ s.x.x.x.F.D.+ J & F.C C F.F.F.F.F.F.F.H . & F.F.G C C C C x.x.x.x.x.x.5.v k I.P.] [ 4 5 4 e.7.^ ~ ~ ^ ~ ~ u u u ",
"r r Y $.~ ~ k 4 ^ | 7.7.J., 6Xc *X& R z l o.K : = . H c ,X'.f D.G C C C | 8.e.r.e.8.| v 4 I K.P.a.9.N.s.2 ~ ' v ~ ~ ~ ~ ~ u u u ",
"r u Y O.v k k 2 > 4 k k 4 ,X6Xi.tX, 4. X&X4.o 4X9X. <.9X7X'.f J C C C C k v v ^ v v k 4 < ~ I Y.h.6.XXXX> k ^ 4 ~ ~ v ~ ~ u u u ",
"r t t y 4 ( e.v 4 < : : : ;X8X9XuX3X=X=X-XrX4.yXsX0.wXpX>X(.C J C C C C 2 4 4 4 4 4 4 4 < ~ 4 8.d.u.s.x.( k 4 < 4 ( v v ' u u u ",
"r t y v ~ f.x.( k ~ ( ( x.C.2X6X*XeXeXiXpXpXeXaXsXuXsXqX(.C D.F C C C I < > > 4 4 4 4 4 3 y 4 8.x.k.y.9. .k < : 4 ' 4 v ' u u u ",
"r t y v ~ x.N.| k t.M.c.N.n.3X;X<.4X3XrXrX*X0XrXrX`.wX XZ F.H C C C C I 4 > : : > > 4 > : y 2 p.c.x.y.9.^ k 4 < v ' v v 7.7 r u ",
"r u y k 4 ( 8.( v ( ' ( ' | 5.1.l 1.N *X%XM 2.3.3.C 2.Z F.D.F C C C C X.z.c.N.8.k 4 ~ I ~ 4 2 [ f.' v v ( z.x.f.| ( t.( w . 0 u ",
"r t t ~ k k ~ ~ k v v 4 I ~ I V C Z H M M K D S S F.S D.G F C C C C C C p.j.x.j.c.7.I ~ ~ : < k b 4 k 7.r.s.x.M.7./ z.3 - . 0 u ",
"r u t v ~ ~ k ( M.OXT.T.%.$.$.C C A H K K F.F.F.F.F F G P.K K L.E.E.J C W s.g.s.c.7.k ~ v : < 4 < k N.x.s.p.8.j.7.3 - - 7 . 0 u ",
"r t t ~ ~ 4 k ( -.W.!.!.!.!.F.D.H C Z A K F.F.F.Q.Q.D.Q./.E.P.~././.L.F C g.x.p.[ ~ ~ | ^ : 3 4 v A.k.s.k.s.7.[ 3 $ 7 7 7 . 0 u ",
"r u u y < 4 [ -.E./././././.!.F.K C C C Z Z Z E./././././.Q.R././.R.F.F C C s.( 4 4 k e.^ > : < ^ B.u.k.x.x.7.4 O 7 7 7 O . 0 u ",
"u u u 4 : #.R.E./.P.!./.F.F./.!.F.H C C C C K !./.F././.Q.F.P././.P.F.F Z C v 4 3 4 k 7.z.b 4 5 4 6.s.c.x.7.. O 7 7 7 O . . 0 u ",
"u r u 4 m /.K.L.P.D.!./.F.Z F.Q.F.K W >.e.4 R./.!.C /./.E.C D./.R.G H F D.F C k v ~ k ^ e.C.A.k < v 7.8.| . 7 7 7 7 7 7 O . 0 u ",
"u u u 4 m !.K.L.R.F R./.F.C A D.F.F.,.c.s., R./.F.: /./.E.C $.R.F.G Z C D.F.F j 4 ~ k ^ r.n.$Xv 4 4 v ~ 9 O 7 7 * . 7 7 . X 0 u ",
"u u u e l J.O.D.!.J %.Y.D T C F F.F.-.8.b , H.Y.D k P.Y.S.F T 8 g J F C H F.F.O.B. .k v t.x.b.Z.5 : e ; O 7 7 7 O O 7 O . 9 u u ",
"u u r y < 4 8 P T.C  .q.. 4 P F P.F.+.b 4 < 4 ` X N.XXq.% O.A Z D G ! W C D.F.D.G T U j X.d.k.Z.~ j j . O O . . . . . . @ 0 u u ",
"u u r w y < % : ) O 4 k @ : I +.Q.F.o., 3 5 ^ 8.e 8.k.p.` U H P.K +.d.>.W G J F.D.J J J J +.} U P G Z & . . . . . . . w ^ u r u ",
"u u u 0 @ 3 e : : = : : 4 ~ 4 } P.K R ~ ~ ~ ~ 7.z.k.x.x.p.E L.E.o.^ e.s.X.C C G F.F.F.F.F.K H H H G Z C . . . . . - 4 s.' u r u ",
"u u u 0 O o t ) y 4 < I ~ ~ i q O.a.g.~ ~ ~ ^ w.z.m.z.s.9._ :.D.T v ( ( [ ] C Z F F F F F F F F F Z C C & . . . ; ~ 7.e.( u u u ",
"u u r r r 9 o o = t ~ ~ ~ ~ y 1 k ( f.k ~ ~ y 4 4 4 4 4 e u 6 T ~ : 4 4 4 < j j C C C C C C C C C C C _ U 4 4 < ~ ^ v ' ~ u u u ",
"u u r r u r 7 o     ; e ) ` / ~ k > > ^ ^ ~ e : : : : 1 < 3 : I ~ 1 : , : : : > > 4 U C C C C C C j k 4 4 4 4 4 4 ~ 4 4 ~ u u u ",
"u u u r u u r 0 7 * O X X . X @ 3 y ~ / ~ ~ ~ ~ ^ ^ ~ ~ ~ ^ ^ ^ ~ ^ ~ ~ / y e e w e y ~ _ _ _ k k k ~ ~ k 4 > : > ~ 4 < ^ u u u "
};
