/* XPM */
static char *_c0eb472194a4f4582d1e4a76dcb683d7spop2LCpMJxguNg[] = {
/* columns rows colors chars-per-pixel */
"64 64 236 2 ",
"   c #0E100B",
".  c #14130F",
"X  c #18160F",
"o  c #141413",
"O  c #1A1514",
"+  c #161914",
"@  c #1B1A15",
"#  c #1C1C1B",
"$  c #211417",
"%  c #2A1517",
"&  c #231C15",
"*  c #251518",
"=  c #2D161A",
"-  c #211D1C",
";  c #2D1C19",
":  c #33171B",
">  c #3B171C",
",  c #331B1D",
"<  c #3B181E",
"1  c #1E211D",
"2  c #33230F",
"3  c #22221E",
"4  c #2D251A",
"5  c #2D241B",
"6  c #352515",
"7  c #392616",
"8  c #362916",
"9  c #3A2A16",
"0  c #35261A",
"q  c #39271A",
"w  c #36291A",
"e  c #3C2C1B",
"r  c #3E301D",
"t  c #2A1D20",
"y  c #351E21",
"u  c #3E1A21",
"i  c #242423",
"p  c #2A2522",
"a  c #282925",
"s  c #2B2A26",
"d  c #2C2C2B",
"f  c #342325",
"g  c #332D24",
"h  c #3C2D22",
"j  c #322E2B",
"k  c #3B2B2C",
"l  c #2E322D",
"z  c #343226",
"x  c #3D3224",
"c  c #31322C",
"v  c #39332A",
"b  c #3C382A",
"n  c #333433",
"m  c #3A3632",
"M  c #363833",
"N  c #3B3935",
"B  c #3B3B3B",
"V  c #40171C",
"C  c #44191D",
"Z  c #4A181E",
"A  c #51181F",
"S  c #462D17",
"D  c #412E1D",
"F  c #59221E",
"G  c #43311E",
"H  c #4A351E",
"J  c #4C391D",
"K  c #54391C",
"L  c #69371F",
"P  c #6F3B1F",
"I  c #441A21",
"U  c #4C1B24",
"Y  c #4C1F28",
"T  c #561C26",
"R  c #5B1B26",
"E  c #5E1C28",
"W  c #631C26",
"Q  c #6B1C25",
"!  c #651C28",
"~  c #6C1D28",
"^  c #741C27",
"/  c #7B1D27",
"(  c #731D29",
")  c #7C1D29",
"_  c #422E21",
"`  c #472328",
"'  c #4C2329",
"]  c #432C2B",
"[  c #4B2B2D",
"{  c #58252B",
"}  c #443222",
"|  c #493624",
" . c #463825",
".. c #4C3A25",
"X. c #433529",
"o. c #48362A",
"O. c #46392C",
"+. c #4C3B2B",
"@. c #523C25",
"#. c #583F27",
"$. c #533D2A",
"%. c #482E31",
"&. c #582E32",
"*. c #433333",
"=. c #4B3233",
"-. c #443C35",
";. c #4B3D32",
":. c #433E3A",
">. c #4C3D3B",
",. c #563735",
"<. c #672226",
"1. c #6F2B21",
"2. c #712424",
"3. c #772725",
"4. c #73232C",
"5. c #7D2229",
"6. c #793824",
"7. c #672A31",
"8. c #603B3B",
"9. c #5B441A",
"0. c #7B461B",
"q. c #754E1B",
"w. c #4F412B",
"e. c #584026",
"r. c #55422C",
"t. c #5C442C",
"y. c #5E492F",
"u. c #5C5120",
"i. c #4C4134",
"p. c #47433C",
"a. c #4D433D",
"s. c #554333",
"d. c #5B4631",
"f. c #5E4A33",
"g. c #52443C",
"h. c #58453D",
"j. c #5B4B3B",
"k. c #60462C",
"l. c #634A2E",
"z. c #695825",
"x. c #634934",
"c. c #644C34",
"v. c #694E35",
"b. c #634E39",
"n. c #665135",
"m. c #6B5236",
"M. c #65513B",
"N. c #6C533B",
"B. c #6E593D",
"V. c #71553A",
"C. c #73573C",
"Z. c #494643",
"A. c #4C4642",
"S. c #534441",
"D. c #554C45",
"F. c #5C4D41",
"G. c #554C49",
"H. c #5D4E49",
"J. c #5B5144",
"K. c #5C5249",
"L. c #535150",
"P. c #654C47",
"I. c #704D45",
"U. c #6C5641",
"Y. c #6C5943",
"T. c #66584A",
"R. c #775B45",
"E. c #745D44",
"W. c #7B6145",
"Q. c #766349",
"!. c #7D644A",
"~. c #6D6155",
"^. c #7D6A57",
"/. c #841E2A",
"(. c #8A1E2B",
"). c #901E27",
"_. c #941F2C",
"`. c #9B1F2C",
"'. c #822A27",
"]. c #83222A",
"[. c #87252A",
"{. c #96212C",
"}. c #9C202C",
"|. c #863425",
" X c #802C31",
".X c #A3212D",
"XX c #AC212D",
"oX c #B3222E",
"OX c #BC232F",
"+X c #AB2631",
"@X c #C1232F",
"#X c #C42430",
"$X c #894F19",
"%X c #845A1E",
"&X c #AA5E1E",
"*X c #93651C",
"=X c #AD671D",
"-X c #B4691B",
";X c #B67917",
":X c #A25621",
">X c #966F24",
",X c #837229",
"<X c #A86222",
"1X c #B66C21",
"2X c #AF7624",
"3X c #CA7719",
"4X c #85694C",
"5X c #846B4D",
"6X c #856B53",
"7X c #846D53",
"8X c #897155",
"9X c #8D7358",
"0X c #917A5E",
"qX c #AD861D",
"wX c #93802D",
"eX c #AD8C26",
"rX c #B7982A",
"tX c #BDA435",
"yX c #CF8C1B",
"uX c #EA9518",
"iX c #F7A91B",
"pX c #D88E21",
"aX c #CCAA2F",
"sX c #D6B737",
"dX c #F1AD23",
"fX c #EAB927",
"gX c #F8B725",
"hX c #E7BC32",
"jX c #DFC03B",
"kX c #FFC22C",
"lX c #F0C737",
"zX c #FDD63D",
"xX c #DCC746",
"cX c #EBD147",
"vX c #FBDA44",
"bX c #FAE554",
/* pixels */
"c c c g z v v v v v v v v v v v v v v v v v v v v v v v v v j v v v v v v v v v v v v g g v v v v c j j j v v v v c l c c c c c ",
"l c x l l l l l l l l d d d d d l l l l l l l l l l l d l l l l l l l l l l l l l l l l c l l l l l l l c l l l l l l l c c c c ",
"l v } 9 ..t.d.+.} r d.M.c.b.b.M.e.e.f.s.r.| D r.b.d.f.M.O.X.0 @.r.f.f.$.+.G D G ..| x 8 8 x x x x h 0 w w e ..r.r.b l l l c c c ",
"l v } | E.M.r.} } 0 } x.N.N.N.N.N.N.#.e 7 e e 6 } ..D 9 2 G 7 d.M.r.H e e | G e e e 0 e } G S R.8X9XC.@.} G 9 w | r.G ..r.v c c ",
"l v G 7 O.e 0 0 h } 6 2 6 w w 9 w w 0 5 0 x x h w 6 e w 6 } | q 9 e e e q D } } e 6 6 } e 7X!.K K @.n.E.@.G e 6 e +.D e w.c c c ",
"l v } 7 9 q q _ G G } e 6 q e h e q 0 e h } | } e 0 w 6 9 G } 8 e e e q 9 } } } G } } } | f.#.k.l.t.e.v.c.} e 6 7  .e 7 ..c c c ",
"l v } _ 7 D #.W.5XW.5Xc.} A.v e e D J N.8X0X8XM.H D e e } } } } O.m >.} | e.Q.9X7Xf.G } h ..f.N.N.N.c.#.D 9 x e e G e e G c c c ",
"l v D } G $.W.E.c.c.N.6XK.i # g _ } n.9XE.v.m.R.m.H G D G b.f...p # m +.t.9XE.l.m.c...} x $.r.N.M.m.x.@.6 9 } 9 e r e e G c c c ",
"l v } s.| t.v.t.r.r.#.j.j o # } } ..B.e.l.M.v.t.C.R...e V.V.C.$.v o # p.U.l.m.m.V.y.D e } } +.$.| G e e 9 9 } e e r r e G c c c ",
"l v G D ..c.l.m.M.M.T.m i # m ..} D r.c.N.N.c.t.@.....D ..j.} e i.i # a a.N.m.m.m.y.H e } e 7 9 9 e e e 6 9 } } e e } 9 G c c c ",
"l x } D } | t.n.m.U.:.i i # T.s.} e @.t.x.M.f.$.} 6 D D ..} 9 G X.N # i a J.n.n.c.r.G e } } e e e e e 9 6 e } } e e } e G c l c ",
"l x } D G G @.y.B.g.- a i # +.e | e 9 e 7 7 e e 9 6 D } e } ......i.# a # a s...G e e h } } | G r 6 6 9 } } } } } G } } G c c c ",
"l x } D ..D | r.b.m # n i N +.6 } | 0 9 e e e e 9 6 e } } @.@.W.E.F.j d i o a.e 9 e e h } } } G | +.+.+...| } } ....} ....c c c ",
"l x e D b...} D x - # N i D.D 6 } } e 6 6 9 9 e 9 6 e } $.N.V.l.k.M.A.n a o d e 9 6 e } } } } r  .R.5X5X!.c.H J N.Q.r.Q.Q.v l c ",
"l v D 9 b.c.D } p o # N i D.e 6 e } | x 0 6 6 w 0 6 _ } ..t.N.N.M.f.a.n a o o k G | t.M.b.| G 6 G U.v.#.D D r.N.x.d.b.f.f.c l c ",
"l z G e f.c.@.h # o # N i m X.6 6 } } } } w 8 6 0 0 _ e | c.m.m.N.M.v n a o o p } M.7X8X9Xm.@.7 D M.b.r._ } ..r.f.b.d.l.N.v l c ",
"l z } e ..c.M.5 o o # N i # ;.6 6 x G G | ....| } _ } 6 $.N.N.m.m.J.# n a o o O o.f.t.e.@.8X!.} r e e } } r e | ..$.| @.$.c l c ",
"l z x D D r.b.i o o # M n # v e 7 } ....t.v.c.k.t.$...9 } b.v.v.M.m i M i o o + g @.x.N.c.M.E.G G ..r.} x 9 r | G e G G D c l c ",
"l z z } w e } i o o # d B i i ;.#.d.Y.c.c.v.v.M.!.5Xd.} 9 G ..@.F.+ d M i o o o j O.;.j.F.j.F.O.;.j.^.s.;.X.} e 9 9 9 7 9 c l c ",
"l v c x } e e i o o o i N d i ;.R.x.#.t.c.v.c.#.#.c.n...8 6 9 e N # M d o o o : [ 8.h.>.>.>.a.>.>.>.a.>.>.>.;.X.O.} e e } c c c ",
"l z c X.} ..+.d o o o # n N # v f.t.x.N.N.N.c.e.@.@.$.| e w 9 x o a N i o % : Q Q Q W I u u u u u u u u u u %.S.S.O.O...| c c c ",
"l z l x e r.Y.Z.o o o o i N d d h.M.m.m.m.N.c.r...G 9 } D ..;.:.i M n # o Z Q W W ! Q R T T T T T T T T T T U I ' >.a.g.O.v c c ",
"l z c v x  .P.,.% o o o # M N a n s.M.m.M.d.$.| h w h ..f.b.A.# M N i o o % : $ $ : U U U T T T T T T T T T T T T U Y =.>.N c c ",
"l z v v ,.&.[.{.Q O o o o a N N a i Z.+.S.k k k k k k S.h.M i M B M # o o o o & O , I : = U U U T T T T T T T T T I I I u k j c ",
"l v >.] Q .X! R T : o o o o M B N i # O I E E R T T T , # # n B N a o o o o O e ; : I U T T * : T T T T T T T T ' @ @ - ; Y t d ",
"M >.8.(./.R T T T , O o o o d N B B d $ T /.(.( ! W R U f M B B N i o o o o j D h : = : T T T I > T T T T T T k a.+.#.v.i.M n c ",
"G.Z Q ! T T T T U < $ o o o # n B N a U /.`.`.`.`./.! T y n B N a o o o o # ;.D X.< U > U T T T < I T T R R =.s.x...#.c...c c c ",
"S.5.<.T T T T U > : = O o o o # M n , ( }.OX#X#X#X.X_.( U a N a o o o o # :...$.g.I T > u T T R T > I R W &.h.e.#.| $.#.| c c c ",
"M L.>.I T T T > I T I O o o o o # p I ) oX#X#X#X#X#XoX_.W y i o o o o o :.g...s.: T T > < T E ( ! T I ! Q h +.| } } | } } c c c ",
"c n g.H.[ T T I T E T : * o o o o $ W }.OX#X#X#X#X#XOX`.) < O o o o o n J._ ..H.^ T T U : U ) (.) ( R E { g.e 9 e X.e e | c c c ",
"c c z +.D.' T T ! ) Q < U $ o o o I (.OX#X#X#X#X#X#XoX(./.! * o o $ k D.r._ D : {.T T T = U /.(.(./.( T f >.0 7 e X.9 D | c c c ",
"c c z } d.A.U /./.) Z U T (.% o O U ~ _.oX#X#X#X#XOX(.~ E R T U U T Y S.s.A.j XX{.T T T = U /.(.(.(./.! Y *.X.D } X.D } | c c c ",
"c l v x G b.m = (.) V U T {.% V 2.3X3X( _.OXXXoXOX(.5.-XuX&X5.R T T U >.G.[.OXE R E ) ( = $ ) (.(.(.W O p T...G } X.} } | c c c ",
"c c v x D $.s.} ' ^ C U T ! }./.3.pXgX-X5.`.}.XX(.5.&XiXgX=X]./.T R Q T Q ( E T E ( (./.! = ) /.' j G.b.R.Q.M.c.#.} d...} c c c ",
"c c c x G D D _ h T W T T E {.(.3.pXzXdX:X].(./.|.:XdXzXkX=X].(.E R Q W R R W W ~ /.(.(.! : ^ 7.X.e ..M.M.M.W.7Xb.e E.s.} c l c ",
"l l c x } } } D _ Z E T T T ! /.2.-XgXkXpX|./.! yXdXvXvXdX:X].(.) T ! ( ! ! /././.(.(.(.( T { >.9 e ....N.v.N.!.f.e U.$.} c l c ",
"l l c x } } e } j.=.I T T T ! /.( 6.1X1X=X'./.( -XgXkXgX1X|./.(./.T R ( /./.(.(.(.(.(.(./.R ; } e H | } r.M.x.t.@.} r...} c c c ",
"l l c x } } q } b.T.H.f I T ! /./.) 5.'.'.].(./.'.<X<X:X|./.(.(./.! T ! /.(.(.(.(.) R Z Z u a.G ..@.e r e d.r.| } } | } | c c c ",
"l l c x } } D e | r.j.A.u T U /.(./ R W ~ ^ Q /./.'.'.'.].Q Z /./.( T E R C C (./.7.h.g.>.>.o.x.n.y.E.c.q } +.G } } } } X.c c c ",
"l c v x G D D q 7 e } O.>.I > /./.L %Xq.P R R A ) ^ > C R 0.-XC (.( T U >.O.X.Z 4.=.o.} } X._ M.v.t.5X5X7 D ..e } | G } | c c c ",
"l z v x e ..f.G e 9 6 6 x *., /.<.=XqX,Xz.K q.*XS K qX9.K yXiX& (.( T I a.X.} 0 ] h e e 9 } e t.c.l.x.N...D e 9 e ..r G +.c c c ",
"l z x } | b.N...D ......N.T.;.{ F yXfXsXtX,X,XtXrXu.cXwXeXlXiX; /.W T Y g.e 7 9 e e e e w x e t.N.M.k.k.#.} O.5 g s.e G +.v c c ",
"l z x G | N.E.$.D j.Y.B.E.C.f.' F ;XgXfXjXsXsXcXvXaXbXxXcXhX*XW ) T U =.;.9 7 6 7 7 e 7 6 x q x.N.N.k.t.s.;.g O # A.G G r.c c c ",
"l c x D e ..t...G ........$.w.,.Q 0.yXqXrXhXzXvXsXzXvXjXjX2X1./.! T ' H.Y.B.E.t.S e } _ } e q @.b.+.G i.:.a # o o Z.f...$.c c c ",
"l c v } D D } } D G G e _ } } ] R 2.$Xq.%X>XaXaX%XrXrX>X>X6./.) T T [ H.M.n.N.m.B.r._ } } 6 9 D H e +.A.i # i # o Z.M.$...c c c ",
"l c z G } } D ..Y.6X5X5Xy.D } v ` Q 2.1.1.1.%X%X2.P P 1.1.5.) W T T ' S.M.c.v.c.B.r.D } G 6 9 e 9 ..K.a i i i o o Z.f.$...v c c ",
"l z v } } e D ..y.c.n.n.M.7X..:.=.R ~ ( ) ) 1.2./.( ^ ) ) ( ! R T E T =.T.N.N.x.@.} } $.| 6 w e ..T.j # i i # o # A...G ..c c c ",
"l c c r 9 e @.#.t.y.r.@.y.T.X.&.<.~ ! ! ( ) /./.(./.) ) ~ ( ( ~ ( (./.{ K.U.c...e e D d.| 7 6 e X.j i i i i o o d +...G | c l c ",
"c c c e 6 | c.v.M.M.c.v.j.,.4.{.}.}./.~ W W ( ( ( ( /.(.) }..X(..XOXoXQ [ ;.G e w e D r.M.H e e 3 # i i i # o o n | G D | c c c ",
"c c c e 6 ..m.m.N.N.U.s.,.(.OX#X@XOX}.(.! T T T T ! oXOXoX@X@X(.#X#XXX/.V g.e D G } D | d.W.!.0 o i i i # o o o m | D e | c c c ",
"c l c e 6 | v.m.N.U.I.{ / oXoX#XoXXXoX_.( T I U T ].#XoXOX#XXX/.#XOX}./.T *.} e e } D | f.C.7Xp # i i # o o o # m | e e | c l c ",
"c l c h 6 D #.t.c.P. X{..XXX_.@X}.) .X.X/.T = ] I XXOX_.XX#X(.~ #XoX/.) ( : ^.^.^.d.D G f.Y.>.O # i # o o o o a v | v x | c c c ",
"c c l z 9 7 G @.d.,.).{.{.}./.OX}.! ( _./.Q = m , #XXX^ .X#X) T +X_.~ ( ) T H.H.P.j.+.X.j.P.` = # # o o o o # -.} } } D } c c c ",
"c c l g x 9 6 e  .;.4.5.(.XX~ {.].T R ( (.) < } ] }.[.Z ]..X( R 7.R ! ~ /.) T U [ S.A.a.S.{ ! U * o o o o a a.M.N.$.t.N...c c c ",
"c c c d & 0 h 6 6 ;.,.` R {.T I u = U ( (.) < X.T.&.` ; [ ' R T { Z ~ ! ) (.) ) Q U U U U Q W T , o o o c T.M.t.m.r.e.N...c c c ",
"c c c d # @ v X.x x i.j p *.$ # 3 3 ] ) {.( u O.M.~.a v D.d $ T (.( R U ! /.(.(./././.) ( W T T < O i p T.N.f.t.f...r.f...c c c ",
"c c l l l a @ @ 5 v X.S.G.:.# 5 b i.K.Q _.W ] } e } D.i.} b # R oX~ y , Y ( ) ) ) ) ) ~ R T Y > @ O a.r...| | G ....G ....c c c ",
"c c l l c l i @ . X 5 h X.O.-.O.D i.a { 4.' k w 6 6 6 6 9 9 a 4.XX{ -.O.%.' T T T T T T T ' p 5 6 e e e e e e e e } e e } c c c ",
"c c c l c c l d i 1 # O O o O & v N d y *.-.+.| | ..| | | s.m n ~ =.g.| A.N ' Y Y Y Y Y *.m ;.D e D } } D e 7 6 7 } e 9 | c c c ",
"c c c c c c c c c c a a 3 3 # + + d B B N X + + + + + X + c N # [ B O . + + Z.B B p.B B B @ & 5 5 5 & & 5 g x b x 5 g x 5 c c c ",
"c c c c c c c c c c l l a a a i 1 1 @ + o + + + + + + + + + B Z.Z.. + + + # 1 i i i i 1 3 # + + X + . .   . + @ @ + + @ + d c c ",
"c c c c c c c c c c c c c c c c c c l c c l c c l l l l c l l d d d d d d n c c c c c c c c c c c l a a i 3 3 a l c l c c c c c ",
"c c c c c c c c c c c c c c c c c c c c c c c c l l l l l l l l l l l l l l l c c c c c c c c c c l l l l l l l l l l l c c c c ",
"c c c c c c c c c c c c c c c c c c c c c c c c c c c c c c c c c c c c c c c c c c c c c c c c c c c c c c c c c c c c c c c c "
};
