/* XPM */
static char *d05e86a0f4de485b9745e3dc7f0c7de11O67SUbIytt6mfkX[] = {
/* columns rows colors chars-per-pixel */
"64 64 193 2 ",
"   c #000000",
".  c #0A0504",
"X  c #0B0904",
"o  c #0F0308",
"O  c #0B0B0B",
"+  c #100E05",
"@  c #100308",
"#  c #1B050E",
"$  c #0E100B",
"%  c #131107",
"&  c #14130D",
"*  c #19160B",
"=  c #1D190A",
"-  c #151512",
";  c #191612",
":  c #161914",
">  c #1B1A15",
",  c #1C1C1B",
"<  c #211D0B",
"1  c #220611",
"2  c #390B1D",
"3  c #231C14",
"4  c #1E211D",
"5  c #26220D",
"6  c #2C250F",
"7  c #39240F",
"8  c #2E2810",
"9  c #21231D",
"0  c #2A2319",
"q  c #2D231A",
"w  c #352515",
"e  c #392715",
"r  c #332B13",
"t  c #3A2A16",
"y  c #35261A",
"u  c #39271A",
"i  c #35291B",
"p  c #3C2C1B",
"a  c #3E3616",
"s  c #3F301E",
"d  c #242523",
"f  c #262924",
"g  c #292C26",
"h  c #2C2E2B",
"j  c #342E24",
"k  c #3C2E22",
"l  c #322F29",
"z  c #2E322D",
"x  c #353225",
"c  c #3D3224",
"v  c #31322C",
"b  c #39332A",
"n  c #3C382A",
"m  c #3B2D34",
"M  c #2F3230",
"N  c #313331",
"B  c #3C3C3C",
"V  c #442E13",
"C  c #412E1D",
"Z  c #413916",
"A  c #43311E",
"S  c #48341E",
"D  c #453D18",
"F  c #4A3B1C",
"G  c #523C1E",
"H  c #430C22",
"J  c #4C0E27",
"K  c #4F0F28",
"L  c #520F2A",
"P  c #56102C",
"I  c #5D112F",
"U  c #641334",
"Y  c #6C1437",
"T  c #78173D",
"R  c #422F21",
"E  c #443322",
"W  c #493523",
"Q  c #473825",
"!  c #4C3A25",
"~  c #433528",
"^  c #483428",
"/  c #473A2B",
"(  c #4D3B29",
")  c #533C25",
"_  c #583E27",
"`  c #533E2A",
"'  c #43333B",
"]  c #4D431B",
"[  c #544A1D",
"{  c #5A4F1F",
"}  c #4F4029",
"|  c #574127",
" . c #55412B",
".. c #5B442C",
"X. c #5F492D",
"o. c #5C5020",
"O. c #564332",
"+. c #5B4631",
"@. c #5E4A33",
"#. c #60452F",
"$. c #61492F",
"%. c #625522",
"&. c #655923",
"*. c #695C24",
"=. c #614733",
"-. c #644C34",
";. c #694E35",
":. c #634E39",
">. c #665033",
",. c #6A5237",
"<. c #65513A",
"1. c #6C533A",
"2. c #6F5B3C",
"3. c #72573C",
"4. c #6F6126",
"5. c #736528",
"6. c #756629",
"7. c #7E6E2C",
"8. c #434343",
"9. c #4A4A4A",
"0. c #5C4651",
"q. c #535353",
"w. c #5B5B5B",
"e. c #735B42",
"r. c #7A5D46",
"t. c #7D6044",
"y. c #736148",
"u. c #7D634A",
"i. c #7F6553",
"p. c #7C5F6E",
"a. c #616161",
"s. c #767676",
"d. c #7F7F7F",
"f. c #83722D",
"g. c #8D7B31",
"h. c #917F32",
"j. c #871945",
"k. c #8A1E4A",
"l. c #922954",
"z. c #99335D",
"x. c #84694B",
"c. c #856C54",
"v. c #8C7258",
"b. c #90755C",
"n. c #A4436C",
"m. c #846474",
"M. c #958234",
"N. c #9A8736",
"B. c #A08C37",
"V. c #A28E38",
"C. c #A7923A",
"Z. c #AC963C",
"A. c #AF993D",
"S. c #B59E3F",
"D. c #BDA542",
"F. c #C0A742",
"G. c #C3AA43",
"H. c #CBB246",
"J. c #D1B748",
"K. c #D5BA4A",
"L. c #DABE4C",
"P. c #DEC24D",
"I. c #E3C64F",
"U. c #E6C950",
"Y. c #EACC51",
"T. c #F4D554",
"R. c #F7D856",
"E. c #FBDB57",
"W. c #FEDE58",
"Q. c #B55C83",
"!. c #9F798D",
"~. c #A66A86",
"^. c #BE688E",
"/. c #C16C92",
"(. c #848484",
"). c #949494",
"_. c #999999",
"`. c #BB8EA6",
"'. c #B5B5B5",
"]. c gray74",
"[. c #C999B2",
"{. c #DC95B7",
"}. c #DDA0BE",
"|. c #E39FC0",
" X c #ECB3D1",
".X c #F4B7D6",
"XX c #F9BEDD",
"oX c #C5C5C5",
"OX c #CACACA",
"+X c gray83",
"@X c gray89",
"#X c #F3F3F3",
"$X c #FFFFFF",
/* pixels */
"v v v l x b b b b b b b b b b b b b b b b b b b b b b b b b l b b b b b b b b b b b b l l b b b b v l l l b b b b v z v v v v v ",
"z v c z z z z z z z z h h h h h z z z z z z z z z z z h z z z z z z z z z z z z z z z z v z z z z z z v v z z z z z z z v v v v ",
"z b E t ! ..+.( E s @.<.-.:.:.<.| | @.O. .W C  .:.+.@.<./ ~ y )  .@.@.` ( A C A W W c i i c c c c k y i u p Q  . .n z z z v v v ",
"z b E W e.,. .E E y W =.1.,.1.1.1.1._ t t p p e E ! C t 7 A t +.<. .S t t W A t p u y u E A V r.c.b.3.) E A t u W  .A )  .v v v ",
"z b A t / p y y k E w 6 w u u t i i y q y c c k i w p u B , O O : h 9.9.u C E E p w w E p c.u.G G ) >.e.) A p w p ( C p } v v v ",
"z b E t t u u R A A E u w u p k p u y u k E ^ E u                           d E A E E E ^ @._ #.=...| ;.-.E p w t Q p t Q v v v ",
"M b E R e C _ t.x.t.x.-.E C t t t C F 1.v.B           < a D 6.7.7.6.D <           > A E k ( @.1.1.1.-._ C t c u i A p i A v v v ",
"z b C E A ` t.e.-.-.1.c...W E E R E >.M       r [ D.T.W.W.W.W.W.W.W.W.W.E.Z.7.r         c `  .1.,.,.=.) i t E t i s p i A v v v ",
"z b E O.W ..;... . ._ _ x.b.S E E B       a D.W.W.W.W.W.W.W.W.W.W.W.W.W.W.W.W.W.K.7.      O ( ` W A t t t t E p p s s p A v v v ",
"z c A C ( -.$.,.,.,.,.#._ -.,.W       ] G.W.W.W.W.W.W.W.W.W.W.W.W.W.W.W.W.W.W.W.W.W.W.7.      t t p u p y t E E p p E t A v v v ",
"z c E C E W ..>.,.,.,.-.| _ q.    a D.W.W.W.W.W.W.W.W.W.W.W.W.W.W.W.W.W.W.W.W.W.W.W.W.W.Y.6.    N p p t w p E E p p E t A v v v ",
"z c E C A A ) X.1.,.,.1...B     6.W.W.W.W.W.W.W.W.W.W.W.W.W.W.W.W.W.W.W.W.W.W.W.W.W.W.W.W.W.7.    . w t E E E E E A E E A v v v ",
"z c E C ! C W  .-.,.,.,.h     g.W.W.W.W.W.W.W.W.W.W.W.W.W.W.W.W.W.W.W.W.W.W.W.W.W.W.W.W.W.W.W.Z.      ( ( ^ E E W Q E W Q v v v ",
"z c p C :.! E C C ` +.N     C.W.W.W.W.W.W.W.W.W.W.W.W.W.W.W.W.W.W.W.W.W.W.W.W.W.W.W.W.W.W.W.W.W.K.*     u.-.S F 1.y. .y.y.v z v ",
"z c C t :.-.C E p p E     B.W.W.W.W.W.W.W.W.W.W.W.W.W.W.W.W.W.W.W.W.W.W.W.W.W.W.W.W.W.W.W.W.W.W.W.K.%   d C  .1.=.+.:.@.@.v v v ",
"z x A t @.-.) E E t     f.W.W.W.W.W.W.W.W.W.W.W.W.W.W.W.W.W.W.W.W.W.W.W.W.W.W.W.W.W.W.W.W.W.W.W.W.W.G.    9.W  .@.:.+.=.1.v z v ",
"z x E t ! -.1.W E     7.W.W.W.W.W.W.W.W.W.W.W.W.W.W.W.W.W.W.W.W.W.W.W.W.W.W.W.R.W.W.W.W.W.W.W.W.W.W.W.B.    p W ! ` W ) ` v v v ",
"z x c C C  .:.W d   ] W.K.D 8     * 7.W.W.W.W.W.W.W.W.W.W.W.W.W.W.W.W.W.D.Z X     X 7.J.W.W.W.W.W.W.W.W.&.    W A p A A C v v v ",
"z x x E i p A E     F.Z.  d a.'.(.d.  + H.W.W.W.W.W.W.W.W.W.W.W.W.W.W.5.  B a.'.).d.O   7.W.W.W.W.W.E.E.R.=   9.t t t t t v v v ",
"z b v E E p p     7.Y.  w.$X$X$X$Xd.    . J.W.W.W.W.W.W.W.W.W.W.W.W.&.  (.$X$X$X$X#X>     %.W.W.W.W.W.W.W.C.    p E t p E v v v ",
"z x v E E Q (     W.6.- $X$X$X$X(.        a W.W.W.W.W.W.W.W.W.W.W.7.  ).$X$X$X$X$Xd.        7.W.W.W.W.W.W.W.a   9.E A A W v v v ",
"z x z c p  .-   7.G.  d.$X$X$X$X(.          D.W.W.W.W.W.W.W.W.W.K.  d.$X$X$X$X$X$X,           H.W.W.W.W.W.W.D.    A E A A v v v ",
"z x v c t !     L.7.  $X$X$X$X$X].          a W.W.W.W.W.W.W.W.W.7.  $X$X$X$X$X$X$X8.          *.W.W.W.W.W.W.W.*   A  .F A v v v ",
"z x b c p W   a W.6 d.$X$X$X$X$X$Xd.    B d.  Y.W.W.W.W.W.W.W.W.% d.$X$X$X$X$X$X$X+X>     s.q.r W.W.W.W.W.W.W.D   E -...W v v v ",
"z x c k t O   7.W.. d.$X$X$X$X$X$X$X@XOX$X+X  D.W.W.W.W.W.W.W.R.  _.$X$X$X$X$X$X$X$X$XOX+X$X].  R.W.W.W.W.W.W.D.    ) -.! v v v ",
"M b c c t     H.E.  _.$X$X$X$X$X$X$X$X$X$X$X  A.W.W.W.W.W.W.W.D.  oX$X$X$X$X$X$X$X$X$X$X$X$XoX  H.W.W.W.W.W.W.W.    _ ;.! v v v ",
"z b E E y     W.E.  _.$X$X$X$X$X$X$X$X$X$X$X  g.W.W.W.W.W.W.W.D.  oX$X$X$X$X$X$X$X$X$X$X$X$XoX  J.W.W.W.W.W.W.W.a   _ -.Q v v v ",
"z v E E t   D W.W.% d.$X$X$X$X$X$X$X$X$X$X$X  C.W.W.W.W.W.W.W.P.  ].$X$X$X$X$X$X$X$X$X$X$X$X'.  R.W.W.W.W.W.W.W.&.  B _ W v v v ",
"v v E E R   6.W.W.a 8.(.(.(.(.(.(.(.(.(.(.9.  Y.W.W.W.W.W.W.W.W.X w._._._._._._._._._._._._.w.. W.W.W.W.W.W.W.W.C.  g E E v v v ",
"v v c A E   7.W.W.D.                        % W.W.W.W.W.W.W.W.W.a                             7.W.W.W.W.W.W.W.W.D.    p W v v v ",
"v v c W `   f.W.W.W.W.W.W.W.W.W.W.W.W.W.W.W.W.W.W.W.W.W.W.W.W.W.W.W.W.W.W.W.W.W.W.W.W.W.W.W.W.W.W.W.W.W.W.W.W.W.D.    C W v v v ",
"v v x E  .  h.W.W.W.W.W.W.W.W.W.W.W.W.W.W.W.W.W.W.W.W.W.W.W.W.W.W.W.W.W.W.W.W.W.W.W.W.W.W.W.W.W.W.W.W.W.W.W.W.W.H.    E W v v v ",
"v v b c A   M.W.W.W.W.W.W.W.W.W.W.W.W.W.W.W.W.W.W.W.W.W.W.W.W.W.W.W.W.W.W.W.W.W.W.W.W.W.W.W.W.W.W.W.W.W.W.W.W.W.H.    E W v v v ",
"v z b c C   f.W.W.W.W.W.W.W.W.W.W.W.W.W.W.W.W.W.W.W.W.W.W.W.W.W.W.W.W.W.W.W.W.W.W.W.W.W.W.W.W.W.W.W.W.W.W.W.W.W.D.    ( E v v v ",
"v v v c A   5.W.W.W.R.S.S.S.S.S.S.S.S.S.S.S.S.S.S.S.S.S.S.S.S.S.S.S.S.S.S.S.S.S.S.S.S.S.S.S.S.W.W.W.W.W.W.W.W.W.V.  . O.E v z v ",
"z z v c E   D W.W.W.D.                                                                        T.W.W.W.W.W.W.W.W.f.  h ` E v z v ",
"z z v c E   a W.W.W.W.W.g.  J P P P P P P P L L L L L L L L L L L K K K K K K J J J J J J H   D.W.W.W.W.W.W.W.W.6.   .! E v v v ",
"z z v c E     R.W.W.W.W.D.  Y j.j.j.j.j.j.j.j.j.j.j.j.j.j.j.j.j.j.j.j.j.j.j.j.j.j.j.j.j.j.j.@ D W.W.W.W.W.W.W.W.6   W E ^ v v v ",
"z z v c E     D.W.W.W.W.Y.  U j.j.j.j.j.j.j.j.j.j.j.j.j.j.j.j.j.j.j.j.j.j.j.j.j.j.j.j.j.j.j.1 a W.W.W.W.W.W.W.R.    E E ^ v v v ",
"z v b c A B   D W.W.W.W.W.a 2 j.j.j.j.j.j.j.j.j.j.j.j.j.j.j.j.j.j.j.j.j.j.j.j.j.j.j.j.j.j.j.1 r W.W.W.W.W.W.W.7.    A E ^ v v v ",
"z x c c p !   < W.W.W.W.W.%.1 j.j.j.j.j.j.j.j.j.j.j.j.j.j.j.j.j.j.j.j.j.j.j.j.j.j.j.j.j.j.j.1 r W.W.W.W.W.W.W.4.  Q s A ( v v v ",
"z x c E ^ :.    D.W.W.W.W.D.  U j.j.j.j.j.j.j.j.j.j.j.j.j.j.j.j.j.j.j.j.j.j.j.j.j.j.j.j.j.j.# D W.W.W.W.W.W.R.    ( p A ( b v v ",
"z x c A ^ 1.8.  a W.W.W.W.W.a 1 j.j.j.j.j.j.j.j.j.j.j.j.j.j.j.j.j.j.j.j.j.j.j.j.j.j.j.j.j.j.  7.W.W.W.W.W.W.7.  . ( A A  .v v v ",
"z v c C p ! ..    D.W.W.W.W.S.  U j.j.j.j.j.j.j.j.j.j.j.j.j.j.j.j.j.j.j.j.j.j.j.j.j.j.j.j.H   N.W.W.W.W.W.W.    ` Q @.Q ` v v v ",
"z v c E C C E B   a W.W.W.W.W.r # j.j.j.j.j.j.j.j.j.j.j.j.j.j.j.l.n.n.n.j.j.j.j.j.j.j.j.j.2 . W.W.W.W.W.W.7.    ..! <.` ( v v v ",
"z v x A E E C !     h.W.W.W.W.D.  H j.j.j.j.j.j.j.j.j.j.j.j.n.{.XXXXXXXXXX/.Q.j.j.j.j.j.H   7.W.W.W.W.W.C.    -. .Q @.) ( b v v ",
"z x b E E p C ! X.    H.W.W.W.W.[   I j.j.j.j.j.j.j.j.j.z.{.XXXXXXXXXXXXXXXXXX/.j.j.j.T   { W.W.W.W.W.W.6   B ) W W ( A ! v v v ",
"z v v s t t ) _ ..,   Z W.W.W.W.R.6   Y j.j.j.j.j.j.j.z..XXXXXXXXXXXXXXXXXXXXXXX{.k.j.1 X Y.W.W.W.W.W.7.     .W E E ! A W v v v ",
"v v v p w W -.;.,.,.    *.W.W.W.W.G.. o T j.j.j.j.j.j.|.XXXXXXXXXXXXXXXXXXXXXXXXXX~.# X G.W.W.W.W.W.7.    -.! C A W A C W v v v ",
"v z v p w W ,.,.,.,.,.    7.W.W.W.W.G.  . U j.j.j.j./.XXXXXXXXXXXXXXXXXXXXXXXXXX!.. 8 H.W.W.W.W.W.f.    ..) C t p ^ C p ^ v v v ",
"v z v p w W ;.,.,.,.,.1.    7.W.W.W.W.U.a   H j.j.j.XXXXXXXXXXXXXXXXXXXXXXXX`.'   ] R.W.W.W.W.W.7.    E b C t t p ^ p p ^ v v v ",
"v z v k w C  ...-.,.1.-. .    *.E.W.W.W.W.7.  o H ^.XXXXXXXXXXXXXXXXXXXX`.'   . N.W.W.W.W.W.W.6.    9.p i t x z c ^ b c ^ v v v ",
"v v z x t e A ) | @.@.+.W t     + M.W.W.W.W.L.7.    p.m.}..X.X X[.`.0.m   X o.I.W.W.W.W.W.H.Z     w y w w i E A C E E C E v v v ",
"v v z j c t w p A Q W C e w E       7.W.W.W.W.W.R.7.]               8 Z D.R.W.W.W.W.W.W.f.      t E t t A +.e.,.1.` ..1.! v v v ",
"v v v h 3 y k w w w w w p E p C q.      7.W.W.W.W.W.W.W.H.D.D.D.H.T.W.W.W.W.W.W.W.W.Z.6     d e t W i.u.-.<.-.X.,. .| 1.( v v v ",
"v v v h , , c ~ c p t R E ^ u p <.2.        7.M.W.W.W.W.W.W.W.W.W.W.W.W.W.W.W.D.{ %       u t e E C e.,.1.1.@...@.Q  .@.Q v v v ",
"v v z z z f > > 0 c E E E E E t A ! :.C           6.7.S.Y.W.W.W.W.W.U.G.Z.a 5         8.E R C ^ p t W ! W W W A Q W A ( W v v v ",
"v v z z v z d > & & q k ~ / ~ ^ C t t W W E 9.                X X               w t A E E E E C w p p p t t p i t E p t E v v v ",
"v v v z v v z h d 4 > ; ; - ; 3 y x E Q W ^ ^ ^ W W ,                   , 8.k k j k c W ^ W W C p C E E C p e e t E t t W v v v ",
"v v v v v v v v v v g f 9 9 , : : : - - : * : : - - - & - ; , 0 0 > ; & - - : > , , , > > > 3 0 q 0 3 3 q j c n c q j c q v v v ",
"v v v v v v v v v v z z g g f d 4 4 > : : - : : : : : : : : - - - & - - : > 4 d d d d 4 9 , : : * - & & $ & : > , : : , - h v v ",
"v v v v v v v v v v v v v v v v v v z v v z v v N N N N v z z g g g g g h N N v v v v v v v v v v z g g d 9 9 f z v z v v v v v ",
"v v v v v v v v v v v v v v v v v v v v v v v v z z z z z z z z z z z z z M z v v v v v v v v v v z z z z z z z z z z z v v v v ",
"v v v v v v v v v v v v v v v v v v v v v v v v v v v v v v v v v v v v v v v v v v v v v v v v v v v v v v v v v v v v v v v v "
};
