/* XPM */
static char *a6726d0d22344362a9a6d5144f04f56bvBNbgT1plceiVeGi[] = {
/* columns rows colors chars-per-pixel */
"64 64 192 2 ",
"   c #000000",
".  c #0A0504",
"X  c #0B0904",
"o  c #0F0308",
"O  c #0B0B0B",
"+  c #100E05",
"@  c #100308",
"#  c #1B050E",
"$  c #0E100B",
"%  c #131107",
"&  c #14130D",
"*  c #19160B",
"=  c #1D190A",
"-  c #151512",
";  c #1A1613",
":  c #161914",
">  c #1B1A15",
",  c #1C1C1B",
"<  c #211D0B",
"1  c #220611",
"2  c #390B1D",
"3  c #231C14",
"4  c #1E211D",
"5  c #26220D",
"6  c #2C250F",
"7  c #39240F",
"8  c #2E2810",
"9  c #20231D",
"0  c #2D231A",
"q  c #2D251A",
"w  c #352515",
"e  c #392715",
"r  c #332B13",
"t  c #3A2A16",
"y  c #35261A",
"u  c #39271B",
"i  c #35291B",
"p  c #3C2C1B",
"a  c #3E3616",
"s  c #3E301D",
"d  c #242523",
"f  c #262924",
"g  c #292C26",
"h  c #2C2E2B",
"j  c #342E24",
"k  c #3C2E22",
"l  c #322F29",
"z  c #2E322D",
"x  c #353225",
"c  c #3D3224",
"v  c #31322C",
"b  c #39332A",
"n  c #3C382A",
"m  c #3B2D34",
"M  c #2F3230",
"N  c #313331",
"B  c #3C3C3C",
"V  c #442E13",
"C  c #412E1D",
"Z  c #413916",
"A  c #43311E",
"S  c #48341E",
"D  c #453D18",
"F  c #4A3B1C",
"G  c #523C1E",
"H  c #430C22",
"J  c #4C0E27",
"K  c #4F0F28",
"L  c #520F2A",
"P  c #56102C",
"I  c #5D112F",
"U  c #641334",
"Y  c #6C1437",
"T  c #78173D",
"R  c #412F21",
"E  c #443322",
"W  c #493523",
"Q  c #473825",
"!  c #4C3A25",
"~  c #433528",
"^  c #483428",
"/  c #473A2B",
"(  c #4D3B29",
")  c #533C25",
"_  c #583E27",
"`  c #533E2A",
"'  c #43333B",
"]  c #4D431B",
"[  c #544A1D",
"{  c #5A4F1F",
"}  c #4F4029",
"|  c #574127",
" . c #55422B",
".. c #5B442C",
"X. c #5F492D",
"o. c #5C5020",
"O. c #564332",
"+. c #5B4631",
"@. c #5E4933",
"#. c #60452F",
"$. c #61492F",
"%. c #625522",
"&. c #655923",
"*. c #695C24",
"=. c #614733",
"-. c #644C34",
";. c #694E35",
":. c #634E39",
">. c #665033",
",. c #6A5237",
"<. c #65513A",
"1. c #6C533A",
"2. c #72573C",
"3. c #6F6126",
"4. c #736528",
"5. c #756629",
"6. c #7E6E2C",
"7. c #434343",
"8. c #4A4A4A",
"9. c #5C4651",
"0. c #535353",
"q. c #5B5B5B",
"w. c #6D5740",
"e. c #735B43",
"r. c #7A5D46",
"t. c #7D6044",
"y. c #736148",
"u. c #7C634A",
"i. c #7F6553",
"p. c #7C5F6E",
"a. c #616161",
"s. c #767676",
"d. c #7F7F7F",
"f. c #83722D",
"g. c #8D7B31",
"h. c #917F32",
"j. c #871945",
"k. c #8A1E4A",
"l. c #922954",
"z. c #99335D",
"x. c #856A4C",
"c. c #856C54",
"v. c #897156",
"b. c #8F735A",
"n. c #91785D",
"m. c #A4436C",
"M. c #846474",
"N. c #958234",
"B. c #9A8736",
"V. c #A08C37",
"C. c #A28E38",
"Z. c #AA943B",
"A. c #AC963C",
"S. c #B59E3F",
"D. c #BDA542",
"F. c #C0A742",
"G. c #C3AA43",
"H. c #CBB246",
"J. c #D1B748",
"K. c #D5BA4A",
"L. c #DABE4C",
"P. c #DEC24D",
"I. c #E3C64F",
"U. c #E6C950",
"Y. c #EACC51",
"T. c #F4D554",
"R. c #F7D856",
"E. c #FEDE58",
"W. c #B55C83",
"Q. c #9F798D",
"!. c #A66A86",
"~. c #BE688E",
"^. c #C16C92",
"/. c #848484",
"(. c #949494",
"). c #999999",
"_. c #BB8EA6",
"`. c #B5B5B5",
"'. c gray74",
"]. c #C999B2",
"[. c #DC95B7",
"{. c #DDA0BE",
"}. c #E39FC0",
"|. c #ECB3D1",
" X c #F4B7D6",
".X c #F9BEDD",
"XX c #C5C5C5",
"oX c #CACACA",
"OX c gray83",
"+X c gray89",
"@X c #F3F3F3",
"#X c #FFFFFF",
/* pixels */
"v v v l x b b b b b b b b b b b b b b b b b b b b b b b b b l b b b b b b b b b b b b l l b b b b v l l l b b b b v z v v v v v ",
"z v c z z z z z z z z h h h h h z z z z z z z z z z z h z z z z z z z z z z z z z z z z v z z z z z z v v z z z z z z z v v v v ",
"z b E t ! ..+.( E s +.<.-.:.:.<.| | +.O. .W C  .:.+.@.<./ ~ y )  .@.@.` ( A C A W W c i i c c c c k y i u p Q  . .n z z z v v v ",
"z b E W e.,. .E E y W =.1.,.1.1.1.1._ t t p p e E ! C t 7 A t +.<. .S t t W A t p u y u E A V r.c.b.2.) E A t u W  .A `  .v v v ",
"z b A t / p y y k E w 6 w u u t i i y 0 y c c k i w p u w E ^ u t u p u u C E E p w w E p c.u.G G ) >.e.) A p w p ( C p } v v v ",
"z b E t t u u R A A E u w u p k p u y u k E ^ E u 7.,                   , E E E A E E E ^ @._ #.=...| ;.-.E p w t Q p t Q v v v ",
"M b E R e C _ t.x.t.x.-.E C t t t C F 1.v.n.v.              X X                 7.@.A E k ( @.1.1.1.-._ C t c u i A p i A v v v ",
"z b C E A ` t.e.-.-.1.c...W E E R E >.7.        5 a A.F.U.E.E.E.E.E.Y.S.6.5.          E c `  .1.,.,.=.` i t E t i s p i A v v v ",
"z b E O.W ..;... . ._ _ x.n.S E E W       % { D.E.E.E.E.E.E.E.E.E.E.E.E.E.E.E.N.6.        E ( ` W A t t t t E p p s s p A v v v ",
"z c A C ( -.$.,.,.,.,.#._ -.,.W d     6 A.E.E.E.E.E.E.E.E.T.H.D.D.D.H.E.E.E.E.E.E.E.6.      0.t t p u p w t E E p p E t A v v v ",
"z c E C E W ..>.,.,.,.-.| _ u.      f.E.E.E.E.E.E.R.D.Z 8               ] 6.R.E.E.E.E.E.6.      p p p t w p E E p p E t A v v v ",
"z c E C A A ` X.1.,.,.1...`     Z H.E.E.E.E.E.I.o.X   m 9._.].|. X X{.M.p.    6.L.E.E.E.E.N.+     w w t E E E E E A E E A v v v ",
"z c E C ! C W  .-.,.,.,.8.    5.E.E.E.E.E.E.B.    ' _..X.X.X.X.X.X.X.X.X.X~.H o   6.E.E.E.E.E.*.    ( ( ( ^ E E W Q E W Q v v v ",
"z c p C :.! E C C ` +. .    6.E.E.E.E.E.R.]   ' _..X.X.X.X.X.X.X.X.X.X.X.Xj.j.j.H   a U.E.E.E.E.6.    c.u.-.S F 1.y. .y.y.v z v ",
"z c C t :.-.C E p p E     f.E.E.E.E.E.H.8   Q..X.X.X.X.X.X.X.X.X.X.X.X.X^.j.j.j.j.U     G.E.E.E.E.6.    C C  .1.=.+.:.@.@.v v v ",
"z x A t @.-.) E E t     6.E.E.E.E.E.G.X # !..X.X.X.X.X.X.X.X.X.X.X.X.X}.j.j.j.j.j.j.T o . F.E.E.E.E.*.    E W  .+.:.+.=.1.v z v ",
"z x E t ! -.1.W E     6.E.E.E.E.E.Y.X 1 j.k.[..X.X.X.X.X.X.X.X.X.X.X Xz.j.j.j.j.j.j.j.Y   6 R.E.E.E.E.Z   , p W ! ` W ) ` v v v ",
"z x c C C  .:.W B   6 E.E.E.E.E.E.{   T j.j.j.^..X.X.X.X.X.X.X.X.X[.z.j.j.j.j.j.j.j.j.j.I   [ E.E.E.E.H.    s W A p A A C v v v ",
"z x x E i p A E     Z.E.E.E.E.E.6.  H j.j.j.j.j.W.^..X.X.X.X.X[.m.j.j.j.j.j.j.j.j.j.j.j.j.H   D.E.E.E.E.h.    t t t t t t v v v ",
"z b v E E p p     6.E.E.E.E.E.E.  2 j.j.j.j.j.j.j.j.j.m.m.m.l.j.j.j.j.j.j.j.j.j.j.j.j.j.j.j.# r E.E.E.E.E.a   B p E t p E v v v ",
"z x v E E Q (     E.E.E.E.E.E.B.  H j.j.j.j.j.j.j.j.j.j.j.j.j.j.j.j.j.j.j.j.j.j.j.j.j.j.j.j.U   S.E.E.E.E.D.    A E A A W v v v ",
"z x z c p  ..   6.E.E.E.E.E.E.6.  j.j.j.j.j.j.j.j.j.j.j.j.j.j.j.j.j.j.j.j.j.j.j.j.j.j.j.j.j.j.1 a E.E.E.E.E.a   7.A E A A v v v ",
"z x v c t !     R.E.E.E.E.E.E.D # j.j.j.j.j.j.j.j.j.j.j.j.j.j.j.j.j.j.j.j.j.j.j.j.j.j.j.j.j.j.U   D.E.E.E.E.D.    A  .F A v v v ",
"z x b c p W   3.E.E.E.E.E.E.E.r 1 j.j.j.j.j.j.j.j.j.j.j.j.j.j.j.j.j.j.j.j.j.j.j.j.j.j.j.j.j.j.j.1 %.E.E.E.E.E.<   E -...W v v v ",
"z x c k t     6.E.E.E.E.E.E.E.r 1 j.j.j.j.j.j.j.j.j.j.j.j.j.j.j.j.j.j.j.j.j.j.j.j.j.j.j.j.j.j.j.2 a E.E.E.E.E.D   B ) -.! v v v ",
"M b c c t     R.E.E.E.E.E.E.E.a 1 j.j.j.j.j.j.j.j.j.j.j.j.j.j.j.j.j.j.j.j.j.j.j.j.j.j.j.j.j.j.j.U   Y.E.E.E.E.D.    _ ;.! v v v ",
"z b E E y   6 E.E.E.E.E.E.E.E.D @ j.j.j.j.j.j.j.j.j.j.j.j.j.j.j.j.j.j.j.j.j.j.j.j.j.j.j.j.j.j.j.Y   D.E.E.E.E.R.    _ -.Q v v v ",
"z v E E t   5.E.E.E.E.E.E.E.E.D.  H J J J J J J K K K K K K L L L L L L L L L L L P P P P P P P J   g.E.E.E.E.E.a   ` _ W v v v ",
"v v E E h   f.E.E.E.E.E.E.E.E.T.                                                                        D.E.E.E.D   ^ E E v v v ",
"v v c A .   C.E.E.E.E.E.E.E.E.E.S.S.S.S.S.S.S.S.S.S.S.S.S.S.S.S.S.S.S.S.S.S.S.S.S.S.S.S.S.S.S.S.S.S.S.S.R.E.E.E.4.  p p W v v v ",
"v v c W     D.E.E.E.E.E.E.E.E.E.E.E.E.E.E.E.E.E.E.E.E.E.E.E.E.E.E.E.E.E.E.E.E.E.E.E.E.E.E.E.E.E.E.E.E.E.E.E.E.E.f.  t p W v v v ",
"v v x E     H.E.E.E.E.E.E.E.E.E.E.E.E.E.E.E.E.E.E.E.E.E.E.E.E.E.E.E.E.E.E.E.E.E.E.E.E.E.E.E.E.E.E.E.E.E.E.E.E.E.N.  C E W v v v ",
"z v b c     H.E.E.E.E.E.E.E.E.E.E.E.E.E.E.E.E.E.E.E.E.E.E.E.E.E.E.E.E.E.E.E.E.E.E.E.E.E.E.E.E.E.E.E.E.E.E.E.E.E.h.  E E W v v v ",
"v z b c     D.E.E.E.E.E.E.E.E.E.E.E.E.E.E.E.E.E.E.E.E.E.E.E.E.E.E.E.E.E.E.E.E.E.E.E.E.E.E.E.E.E.E.E.E.E.E.E.E.E.f.  +.( E v v v ",
"v v v c     D.E.E.E.E.E.E.E.E.6.                            a E.E.E.E.E.E.E.E.E.%                         D.E.E.6.  e.O.E v v v ",
"z z v c g   Z.E.E.E.E.E.E.E.E.  q.).).).).).).).).).).).).q.X E.E.E.E.E.E.E.E.Y.  7././././././././././.7.a E.E.5.  w.` E v z v ",
"z z v c B   &.E.E.E.E.E.E.E.R.  `.#X#X#X#X#X#X#X#X#X#X#X#X'.  P.E.E.E.E.E.E.E.Z.  #X#X#X#X#X#X#X#X#X#X#Xd.% E.E.D    .! E v v v ",
"z z v c E   a E.E.E.E.E.E.E.J.  XX#X#X#X#X#X#X#X#X#X#X#X#XXX  D.E.E.E.E.E.E.E.g.  #X#X#X#X#X#X#X#X#X#X#X).  E.E.    W E ^ v v v ",
"z z v c E     E.E.E.E.E.E.E.H.  XX#X#X#X#X#X#X#X#X#X#X#X#XXX  D.E.E.E.E.E.E.E.A.  #X#X#X#X#X#X#X#X#X#X#X).  E.H.    E E ^ v v v ",
"z v b c A     D.E.E.E.E.E.E.R.  '.#XOXoX#X#X#X#X#X#X#X#X#X).  R.E.E.E.E.E.E.E.D.  OX#XoX+X#X#X#X#X#X#X#Xd.. E.6.  O A E ^ v v v ",
"z x c c p !   D E.E.E.E.E.E.E.r 0.s.    > OX#X#X#X#X#X#X#Xd.% E.E.E.E.E.E.E.E.Y.  d.B     d.#X#X#X#X#X#Xd.6 E.a   Q s A ( v v v ",
"z x c E ^ :.  * E.E.E.E.E.E.E.*.          7.#X#X#X#X#X#X#X  6.E.E.E.E.E.E.E.E.E.a           '.#X#X#X#X#X  6.L.    ( p A ( b v v ",
"z x c A ^ 1.    D.E.E.E.E.E.E.H.          , #X#X#X#X#X#Xd.  K.E.E.E.E.E.E.E.E.E.D.          /.#X#X#X#Xd.  F.6.  - ( A A  .v v v ",
"z v c C p ! 7.  a E.E.E.E.E.E.E.6.        d.#X#X#X#X#X(.  6.E.E.E.E.E.E.E.E.E.E.E.a         /.#X#X#X#X- 5.E.    ` Q @.Q ` v v v ",
"z v c E C C E     Z.E.E.E.E.E.E.E.%.    > @X#X#X#X#X/.  &.E.E.E.E.E.E.E.E.E.E.E.E.J.      d.#X#X#X#Xq.  Y.6.    ..! <.` ( v v v ",
"z v x A E E C 7.  = R.E.E.E.E.E.E.E.6.  O d.(.`.a.B   4.E.E.E.E.E.E.E.E.E.E.E.E.E.E.H.+   d./.`.a.d   A.F.    -. .Q @.` ( b v v ",
"z x b E E p C !     &.E.E.E.E.E.E.E.E.J.6.X     X Z D.E.E.E.E.E.E.E.E.E.E.E.E.E.E.E.E.E.6.*     8 D K.E.]   d ` W W ( A ! v v v ",
"z v v s t t ) _ ..    V.E.E.E.E.E.E.E.E.E.E.E.R.E.E.E.E.E.E.E.E.E.E.E.E.E.E.E.E.E.E.E.E.E.E.E.E.E.E.E.6.     .W E E ! A W v v v ",
"v v v p w W -.;.,.7.    F.E.E.E.E.E.E.E.E.E.E.E.E.E.E.E.E.E.E.E.E.E.E.E.E.E.E.E.E.E.E.E.E.E.E.E.E.E.f.    -.! C A W A C W v v v ",
"v z v p w W ,.,.,.,.d   % K.E.E.E.E.E.E.E.E.E.E.E.E.E.E.E.E.E.E.E.E.E.E.E.E.E.E.E.E.E.E.E.E.E.E.E.V.    ..) C t p ^ C p ^ v v v ",
"v z v p w W ;.,.,.,.,.    = K.E.E.E.E.E.E.E.E.E.E.E.E.E.E.E.E.E.E.E.E.E.E.E.E.E.E.E.E.E.E.E.E.E.Z.    N b C t t p ^ p p ^ v v v ",
"v z v k w C  ...-.,.1.-.      A.E.E.E.E.E.E.E.E.E.E.E.E.E.E.E.E.E.E.E.E.E.E.E.E.E.E.E.E.E.E.E.g.    h p i t x z c ^ b c ^ v v v ",
"v v z x t e A ` | @.+.+.W .     6.E.E.E.E.E.E.E.E.E.E.E.E.E.E.E.E.E.E.E.E.E.E.E.E.E.E.E.E.E.5.    B y w w i E A C E E C E v v v ",
"v v z j c t w p A Q W C e w N     5.Y.E.E.E.E.E.E.E.E.E.E.E.E.E.E.E.E.E.E.E.E.E.E.E.E.E.D.a     0.E t t A +.e.,.1.` ..1.! v v v ",
"v v v h 3 y k w w w w w p E p C       6.E.E.E.E.E.E.E.E.E.E.E.E.E.E.E.E.E.E.E.E.E.E.G.]       e t W i.u.-.<.-.X.,. .| 1.( v v v ",
"v v v h , , c ~ c p t R E ^ u p <.O       6.K.E.E.E.E.E.E.E.E.E.E.E.E.E.E.E.E.E.D.a       B t e E C e.,.1.1.@...+.Q  .+.Q v v v ",
"v v z z z f > > 0 c E E E E E t A ! :.        r 6.A.E.E.E.E.E.E.E.E.E.E.T.D.[ r       h E R C ^ p t W ! W W W A Q W A ( W v v v ",
"v v z z v z d > & & q k ~ / Q ^ C t t W W >           = D 5.6.6.5.D a <           B A E E E E C w p p p t t p i t E p t E v v v ",
"v v v z v v z h d 4 > ; ; - ; 3 y x E Q W ^ ^ ^ d                           k k j k c W ^ W W C p C E E C p e e t E t t W v v v ",
"v v v v v v v v v v g f 9 9 , : : : - - > * > > - - - 8.7.h : O O , B & - - : > , , , > > > 3 0 q 0 3 3 q j c n c q j c q v v v ",
"v v v v v v v v v v z z g g f d 4 4 > : : - : : : : : : : : - - - & - : : > 4 d d d d 4 9 , : > * - & & $ & > > , : : , - h v v ",
"v v v v v v v v v v v v v v v v v v z v v z v v N N N N v z z g g g g g h N N v v v v v v v v v v z g g d 9 9 f z v z v v v v v ",
"v v v v v v v v v v v v v v v v v v v v v v v v z z z z z z z z z z z M z z z v v v v v v v v v v z z z z z z z z z z z v v v v ",
"v v v v v v v v v v v v v v v v v v v v v v v v v v v v v v v v v v v v v v v v v v v v v v v v v v v v v v v v v v v v v v v v "
};
