/* XPM */
static char *_459ad0c05794914faad7f3e0e082d0fR0MuGvSp8fgW33Td[] = {
/* columns rows colors chars-per-pixel */
"64 64 195 2 ",
"   c #000000",
".  c #0A0504",
"X  c #0B0904",
"o  c #0F0308",
"O  c #0B0B0B",
"+  c #100E05",
"@  c #100308",
"#  c #1B050E",
"$  c #0E100B",
"%  c #131107",
"&  c #14130D",
"*  c #19160B",
"=  c #1D190A",
"-  c #151512",
";  c #191612",
":  c #161914",
">  c #1B1A15",
",  c #1C1C1B",
"<  c #211D0B",
"1  c #220611",
"2  c #390B1D",
"3  c #231C14",
"4  c #1E211D",
"5  c #26220D",
"6  c #2C250F",
"7  c #2E2810",
"8  c #21231D",
"9  c #2A2319",
"0  c #2D231A",
"q  c #352515",
"w  c #392616",
"e  c #342A13",
"r  c #3A2A17",
"t  c #35261A",
"y  c #39271B",
"u  c #35291B",
"i  c #3C2C1B",
"p  c #3E3616",
"a  c #3F301D",
"s  c #242523",
"d  c #262924",
"f  c #292C26",
"g  c #2C2E2B",
"h  c #342E24",
"j  c #3C2E22",
"k  c #322F29",
"l  c #2E322D",
"z  c #353225",
"x  c #3C3224",
"c  c #31322C",
"v  c #39332A",
"b  c #3C382A",
"n  c #3B2D34",
"m  c #2F3230",
"M  c #313331",
"N  c #3C3C3C",
"B  c #442E13",
"V  c #412E1D",
"C  c #413916",
"Z  c #43311E",
"A  c #48341E",
"S  c #453D18",
"D  c #4A3C1C",
"F  c #523C1E",
"G  c #430C22",
"H  c #4C0E27",
"J  c #4F0F28",
"K  c #520F2A",
"L  c #56102C",
"P  c #5D112F",
"I  c #641334",
"U  c #6C1437",
"Y  c #78173D",
"T  c #412F21",
"R  c #443322",
"E  c #493524",
"W  c #473825",
"Q  c #4C3A25",
"!  c #433528",
"~  c #483428",
"^  c #473A2B",
"/  c #4C3B29",
"(  c #533C25",
")  c #583E27",
"_  c #533E2A",
"`  c #43333B",
"'  c #533F31",
"]  c #4D431B",
"[  c #544A1D",
"{  c #5A4F1F",
"}  c #4F4029",
"|  c #574127",
" . c #55412B",
".. c #5B442D",
"X. c #5F492D",
"o. c #5C5020",
"O. c #564332",
"+. c #5B4631",
"@. c #5E4933",
"#. c #60452F",
"$. c #61492F",
"%. c #625522",
"&. c #655923",
"*. c #695C24",
"=. c #614733",
"-. c #644D35",
";. c #694E35",
":. c #634E39",
">. c #694F38",
",. c #665134",
"<. c #6A5237",
"1. c #65513A",
"2. c #6C533A",
"3. c #6E5A3E",
"4. c #72573C",
"5. c #6F6126",
"6. c #736528",
"7. c #756629",
"8. c #7E6E2C",
"9. c #434343",
"0. c #4A4A4A",
"q. c #5C4651",
"w. c #535353",
"e. c #5B5B5B",
"r. c #6D5740",
"t. c #6D5941",
"y. c #735B43",
"u. c #7A5D46",
"i. c #726043",
"p. c #7D6044",
"a. c #75624A",
"s. c #7D634A",
"d. c #7F6553",
"f. c #7C5F6E",
"g. c #616161",
"h. c #767676",
"j. c #7F7F7F",
"k. c #83722D",
"l. c #8D7B31",
"z. c #917F32",
"x. c #871945",
"c. c #8A1E4A",
"v. c #922954",
"b. c #99335D",
"n. c #84694B",
"m. c #856C54",
"M. c #8F735A",
"N. c #90755C",
"B. c #A4436C",
"V. c #846474",
"C. c #958234",
"Z. c #9A8736",
"A. c #A08C37",
"S. c #A28E38",
"D. c #AA943B",
"F. c #AC963C",
"G. c #B59E3F",
"H. c #BDA542",
"J. c #C0A742",
"K. c #C3AA43",
"L. c #CBB246",
"P. c #D1B748",
"I. c #D5BA4A",
"U. c #DABE4C",
"Y. c #DEC24D",
"T. c #E3C64F",
"R. c #E6C950",
"E. c #EACC51",
"W. c #F4D554",
"Q. c #F7D856",
"!. c #FEDE58",
"~. c #B55C83",
"^. c #9F798D",
"/. c #A66A86",
"(. c #BE688E",
"). c #C16C92",
"_. c #848484",
"`. c #949494",
"'. c #999999",
"]. c #BB8EA6",
"[. c #B5B5B5",
"{. c gray74",
"}. c #C999B2",
"|. c #DC95B7",
" X c #DDA0BE",
".X c #E39FC0",
"XX c #ECB3D1",
"oX c #F4B7D6",
"OX c #F9BEDD",
"+X c #C5C5C5",
"@X c #CACACA",
"#X c gray83",
"$X c gray89",
"%X c #F3F3F3",
"&X c #FFFFFF",
/* pixels */
"c c c k z v v v v v v v v v v v v v v v v v v v v v v v v v k v v v v v v v v v v v v k k v v v v c k k k v v v v c l c c c c c ",
"l c x l l l l l l l l g g g g g l l l l l l l l l l l g l l l l l l l l l l l l l l l l c c l l l l l c c l l l l l l l c c c c ",
"l v R r Q ..+./ R a +.1.-.:.:.1.| | +.O. .E V  .:.+.@.1.^ ! t (  .@.@._ / Z V Z E E x w w x x x x j t u u i Q  . .b l l l c c c ",
"l v R E y.<. .R R t E =.2.<.2.2.2.2.) i r i i q R Q N f           . g i i E Z i i y t y R Z B u.m.M.4.( R Z r u E  .Z Q  .c c c ",
"l v Z r ^ i t t j R q 6 q u u r u u t 0 t x x                                 R i q q R i m.s.F F ( ,.y.( Z i q i / V i } c c c ",
"l v R r r y y T Z Z R y q y i j i y t 0.          p &.D.H.H.L.L.H.S.k.6.6         . R R E @.) #.=...| ;.-.R i q r W i r Q c c c ",
"m v R T w V ) p.n.p.n.-.R V r r i 0.      % S H.!.!.!.!.!.!.!.!.!.!.!.!.!.Q.8.5.        j / +.2.2.2.-.) V r x y i Z i i Z c c c ",
"l v V R Z _ p.y.-.-.2.m...E R R       p H.!.!.!.!.!.!.!.!.!.!.!.!.!.!.!.!.!.!.!.Q.8.      N  .2.<.<.=.( q r R r i a i i Z c c c ",
"l v R O.E ..;... . .) ) n.N.0.    = D.!.!.!.!.!.!.!.!.!.!.!.!.!.!.!.!.!.!.!.!.!.!.!.!.8.      _ E Z i i r r R i i a a i Z c c c ",
"l x Z V / -.$.<.<.<.<.#.) s     &.Q.!.!.!.!.!.!.!.!.!.!.!.!.!.!.!.!.!.!.!.!.!.!.!.!.!.!.D.6     r i y i q r R R i i R r Z c c c ",
"l x R V R E ..,.<.<.<.-.      A.!.!.!.!.!.!.!.!.!.!.!.!.!.!.!.!.!.!.!.!.!.!.!.!.!.!.!.!.!.!.8.    i i r q i R R i i R i Z c c c ",
"l x R V Z Z ( X.2.<.<.    % K.!.!.!.!.!.!.!.!.!.!.!.!.!.!.!.!.!.!.!.!.!.!.!.!.!.!.!.!.!.!.!.!.8.    0.r R R R R R Z R R Z c c c ",
"l x R V Q V E  .-.<..   = I.!.!.!.!.!.!.!.!.!.!.!.!.!.!.!.!.!.!.!.!.!.!.!.!.!.!.!.!.!.!.!.!.!.!.k.    / / E R R E Q R E Q c c c ",
"l x i V :.Q R V V M     I.!.!.!.!.!.!.!.!.!.!.Q.L.P.Q.!.!.!.!.!.!.!.!.!.!.!.!.!.!.!.!.!.!.!.!.!.!.8.    s.-.A D 2.a. .i.a.c l c ",
"l x V r :.-.V R i     F.!.!.!.!.!.!.!.!.L.*.e           8.!.!.!.!.!.W.H.S p e e S 8.Z.!.!.!.!.!.!.!.7.    V  .2.=.+.:.+.+.c c c ",
"l z Z i @.-.( R     8.!.!.!.!.!.!.!.!.8.    w.{.+X+X[.e.  !.!.!.!.G.    @ 1 1 1 #     . 8.!.!.!.!.!.!.C   s E  .+.:.+.=.2.c l c ",
"l z R i Q -.2.O   7.!.!.!.!.!.!.!.!.%.      h.&X&X&X&X'.  !.!.!.!.G.  G x.x.x.x.x.x.G 2   { E.!.!.!.!.L.    i E Q _ E ( _ c c c ",
"l z x V V  .:.    E.!.!.!.!.!.!.!.8.          #X&X&X&X'.  !.!.!.!.G.  H x.x.x.x.x.x.x.x.G   X K.!.!.!.!.k.    E Z i Z Z V c c c ",
"l z z R u i     8.!.!.!.!.!.!.!.P.            @X&X&X&X'.  !.!.!.!.G.  H x.x.x.x.x.x.x.x.x.Y 1 X L.!.!.!.!.6   9.r r r r r c c c ",
"l v v R R i     !.!.!.!.!.!.!.!.8.O :       : &X&X&X&X'.  !.!.!.!.G.  H x.x.x.x.x.x.x.x.x.x.x.# 7 Q.!.!.!.F.    i R i i R c c c ",
"l z c R R :   8.!.!.!.!.!.!.!.!.X j.%Xj., 9.#X&X&X&X&X'.  !.!.!.!.G.  H x.x.x.x.x.x.x.x.x.x.c./.  ] !.!.!.!.%   Z R Z Z E c c c ",
"l z l x i     I.!.!.!.!.!.!.!.!.  `.&X&X&X&X&X&X&X&X&X'.  !.!.!.!.G.  H x.x.x.x.x.x.x.x.x.x.|.OX^.  Z.!.!.!.{   Z Z R Z Z c c c ",
"l z c x r   e !.!.!.!.!.!.!.!.Q.  [.&X&X&X&X&X&X&X&X&X'.  !.!.!.!.G.  H x.x.x.x.x.x.x.x.x.).OXOXOX` . T.!.!.H.    Z  .D Z c c c ",
"l z v x s   8.!.!.!.!.!.!.!.!.!.X g.&X&X&X&X&X&X&X&X&X'.  !.!.!.!.G.  J x.x.x.x.x.x.x.x.~.OXOXOXOX].  o.!.!.!.5   R -...E c c c ",
"l z x j     F.!.!.!.!.!.!.!.!.!.C N &X&X&X&X&X&X&X&X&X'.  !.!.!.!.G.  J x.x.x.x.x.x.x.x.).OXOXOXOXOX` X Q.!.!.p   9.( -.E c c c ",
"l v x x     !.!.!.!.!.!.!.!.!.!.H.  _.&X&X&X&X&X&X&X&X'.  !.!.!.!.G.  J x.x.x.x.x.x.x.x.OXOXOXOXOXOX].  H.!.!.F.  , ) ;.E c c c ",
"l v R 0.  < !.!.!.!.!.!.!.!.!.!.!.6.  `.&X&X&X&X&X&X&X'.  !.!.!.!.G.  J x.x.x.x.x.x.x.B.OXOXOXOXOXOXOXn C !.!.K.    ) -.Q c c c ",
"l c R 0.  S !.!.!.!.!.!.!.!.!.!.!.!.&.  j.&X&X&X&X&X&X'.  !.!.!.!.G.  J x.x.x.x.x.x.x.B.OXOXOXOXOXOXOXq.7 !.!.R.    _ ) E c c c ",
"c c R g   6.!.!.!.!.!.!.!.!.!.!.!.!.!.8.    j.'.+X+X{.e.  !.!.!.!.G.  J x.x.x.x.x.x.x.B.OXOXOXOXOXOXOX].  W.!.!.    E R R c c c ",
"c c x -   8.!.!.!.!.!.!.!.!.!.!.!.!.!.!.I.8.%         X p !.!.!.!.G.  K x.x.x.x.x.x.x.v.OXOXOXOXOXOXOX}.  L.!.!.X   i i E c c c ",
"c c x O   8.!.!.!.!.!.!.!.!.!.!.!.!.!.!.!.!.!.Q.H.H.Y.!.!.!.!.!.!.G.  K x.x.x.x.x.x.x.x.|.OXOXOXOXOXOXXX  H.!.!.X   r V E c c c ",
"c c z O   6.!.!.!.!.!.!.!.!.!.!.!.!.!.!.!.!.!.!.!.!.!.!.!.!.!.!.!.G.  K x.x.x.x.x.x.x.x.B.OXOXOXOXOXOXoX  H.!.!.    V R E c c c ",
"c c v ,   S !.!.!.!.!.!.!.!.!.!.!.!.!.!.!.!.!.!.!.!.!.!.!.!.!.!.!.G.  K x.x.x.x.x.x.x.x.x.|.OXOXOXOXOXoX  H.!.!.    R R E c c c ",
"c c v N   p !.!.!.!.!.!.!.!.!.!.!.!.!.!.!.!.!.!.!.!.!.!.!.!.!.!.!.G.  K x.x.x.x.x.x.x.x.x.b.oXOXOXOXOX X  L.!.E.    +./ R c c c ",
"c c c x   < !.!.!.!.!.!.!.!.!.!.!.!.!.!.!.!.!.!.!.!.!.!.!.!.!.!.!.G.  K x.x.x.x.x.x.x.x.x.x.b..XOXOXOXV.  !.!.G.    y.O.R c l c ",
"l l c x     W.!.!.!.!.!.!.!.!.!.!.!.!.!.!.!.!.!.!.!.!.!.!.!.!.!.!.G.  K x.x.x.x.x.x.x.x.x.x.x.x.).OXOXf.] !.!.8.  , r._ R c l c ",
"l l c x     H.!.!.!.!.!.!.!.!.!.!.!.!.!.!.!.!.!.!.!.!.!.!.!.!.!.!.G.  K x.x.x.x.x.x.x.x.x.x.x.x.x.x.(.  8.!.!.7.  R  .Q R c c c ",
"l l c x R   [ !.!.!.!.!.!.!.!.!.!.!.!.!.!.!.!.!.!.!.!.!.!.!.!.!.!.G.  K x.x.x.x.x.x.x.x.x.x.x.x.x.x.G   Q.!.!.    R E R E c c c ",
"l l c x R   e !.!.!.!.!.!.!.!.!.!.!.!.!.!.!.E.H.F.l.D.E.!.!.!.!.!.G.  K x.x.x.x.x.x.x.x.x.x.x.x.x.x.o 8.!.!.C.    R R R R c c c ",
"l c v x Z     H.!.!.!.!.!.!.!.!.!.!.!.!.H.p             % !.!.!.!.G.  K x.x.x.x.x.x.x.x.x.x.x.x.x.G   U.!.!.8.  0.E Z R E c c c ",
"l z x x i N   p !.!.!.!.!.!.!.!.!.!.P.p     j.#X&X&X&X0.  !.!.!.!.G.  L x.x.x.x.x.x.x.x.x.x.x.x.I   8.!.!.!.    i Q a Z / c c c ",
"l z x R E :.    K.!.!.!.!.!.!.!.!.L..       N &X&X&X&X_.  !.!.!.!.G.  L x.x.x.x.x.x.x.x.x.x.x.Y   p !.!.!.8.    i / i Z / v c c ",
"l z x Z E 2.g   ] !.!.!.!.!.!.!.!.+           @X&X&X&X_.  !.!.!.!.G.  L x.x.x.x.x.x.x.x.x.x.U o   R.!.!.!.    r Z / Z Z  .c c c ",
"l c x V i Q ..    H.!.!.!.!.!.!.8.            $X&X&X&X_.  !.!.!.!.G.  L x.x.x.x.x.x.x.x.x.P   . K.!.!.!.8.    :._ Q @.Q _ c c c ",
"l c x R V V R N   p !.!.!.!.!.!.= j.j.      j.&X&X&X&X_.  !.!.!.!.G.  L x.x.x.x.x.x.x.x.G   6 K.!.!.!.C.    <.t...E 1._ / c c c ",
"l c z Z R R V Q     6.!.!.!.!.!.  _.&X_._.{.&X&X&X&X&X_.  !.!.!.!.G.  L x.x.x.x.x.x.I #   [ Q.!.!.!.!.+   w...-. .W +._ / v c c ",
"l z v R R i V Q X.    l.!.!.!.!.  [.&X&X&X&X&X&X&X&X&X_.  !.!.!.!.G.  L x.x.x.x.I 1   e H.!.!.!.!.!.*.    -. .( E E / Z E c c c ",
"l c c a r i ( ) ..w.    D.!.!.!.7 g.&X&X&X&X&X&X&X&X&X_.  !.!.!.!.G.  H U I 2 1   p G.!.!.!.!.!.!.8.    <.>. .E R R E Z E c l c ",
"c c c i q E -.;.<.<.N     A.!.!.S s &X&X&X&X&X&X&X&X&X_.  !.!.!.!.G.        p %.H.!.!.!.!.!.!.!.8.    2.2.-.Q V Z E Z V E c c c ",
"c l c i q E <.<.<.<.<.g     k.!.I.  e.&X&X&X&X&X&X&X&X_.  !.!.!.!.G.  l.H.E.!.!.!.!.!.!.!.!.!.*.     .....( V r i E V i E c c c ",
"c l c i q E ;.<.<.<.<.2.M     8.!.F.  - j.&X&X&X&X&X&X_.  !.!.!.!.G.  !.!.!.!.!.!.!.!.!.!.L.C     i Z R v V r r i E i i E c c c ",
"c l c j q V  ...-.<.2.-. .R     ] J.E.7.    j.j.'.'.j.9.  !.!.!.!.Q.H.!.!.!.!.!.!.!.!.!.z.      a q j i u r z l x E v x E c c c ",
"c c l z r w Z ( | +.+.+.E i r       8.!.K.8.6 .     % p H.!.!.!.!.!.!.!.!.!.!.!.!.!.H.p     , a.R q t q q i R Z V R R V R c c c ",
"c c l h x r q i Z Q E V w q R ' s       8.U.!.!.!.!.!.!.!.!.!.!.!.!.!.!.!.!.!.!.H.p       @.@.Z i R i r Z +.y.<.2._ ..2.Q c c c ",
"c c c g 3 u j q q q q q i R i V t.a.        p 8.L.!.!.!.!.!.!.!.!.!.!.!.Q.H.S <       N w i i w i E d.s.-.1.-.X.<. .| 2./ c c c ",
"c c c g , , x ! x i r T R E y i 1.3.3.Z -           S 6.8.k.z.C.k.6.S p           9.a r q y i w R V y.<.2.2.+...+.Q  .+.Q c c c ",
"c c l l l d > > 9 x R R R R R i Z Q :.V R R x O                             N r u u i R R T V E i i E Q E E E Z Q E Z / E c c c ",
"c c l l c l s > & & 0 j ! ^ ! E V r r E E R j q q q q q r y q R R t q w q q q y q i Z R R R R V q i i i i i i i i R i i R c c c ",
"c c c l c c l g s 4 : ; ; - ; 3 t z R W E E E E E E E E E E E E R E E E ! x j j h j x E ~ E E V i V R R V i w q r R i r E c c c ",
"c c c c c c c c c c f d 8 8 , : : : - - > * > > - - - & - ; , 9 9 > ; & - - : : , , , > > > 3 9 0 9 3 3 0 h x b x 0 h x 0 c c c ",
"c c c c c c c c c c l l f f d s 4 4 > : - - : : : : : : : : - - - & - - : : 4 s s s s 4 8 , : > * - & & $ & > > , > : , - g c c ",
"c c c c c c c c c c c c c c c c c c l c c l c c M M M M c l l f f f f f g M M c c c c c c c c c c l f f s 8 8 d l c l c c c c c ",
"c c c c c c c c c c c c c c c c c c c c c c c c l l l l l l l l l l l l l m l c c c c c c c c c c l l l l l l l l l l l c c c c ",
"c c c c c c c c c c c c c c c c c c c c c c c c c c c c c c c c c c c c c c c c c c c c c c c c c c c c c c c c c c c c c c c c "
};
