/* XPM */
static char *_90c15f5879a4cc7de6b2ab7e996cdf2aGM5gobYgo5UGUrn[] = {
/* columns rows colors chars-per-pixel */
"64 64 193 2 ",
"   c #000000",
".  c #0A0504",
"X  c #0B0904",
"o  c #0F0308",
"O  c #0B0B0B",
"+  c #100E05",
"@  c #100308",
"#  c #1B050E",
"$  c #0E100B",
"%  c #131107",
"&  c #14130D",
"*  c #19160B",
"=  c #1D190A",
"-  c #151512",
";  c #191612",
":  c #161914",
">  c #1B1A15",
",  c #1C1C1B",
"<  c #211D0B",
"1  c #220611",
"2  c #390B1D",
"3  c #231C14",
"4  c #1E211D",
"5  c #26220D",
"6  c #2C250F",
"7  c #39240F",
"8  c #2E2810",
"9  c #21231D",
"0  c #2A2319",
"q  c #2D231A",
"w  c #352515",
"e  c #392615",
"r  c #332B13",
"t  c #3A2A16",
"y  c #35261A",
"u  c #39271B",
"i  c #35291B",
"p  c #3C2C1B",
"a  c #3E3616",
"s  c #3F301E",
"d  c #242523",
"f  c #262924",
"g  c #292C26",
"h  c #2C2E2B",
"j  c #342E24",
"k  c #3C2E22",
"l  c #322F29",
"z  c #2E322D",
"x  c #353225",
"c  c #3D3224",
"v  c #31322C",
"b  c #39332A",
"n  c #3C382A",
"m  c #3B2D34",
"M  c #2F3230",
"N  c #313331",
"B  c #3C3C3C",
"V  c #442E13",
"C  c #422E1D",
"Z  c #413916",
"A  c #43311E",
"S  c #48341E",
"D  c #453D18",
"F  c #4A3B1C",
"G  c #523C1E",
"H  c #430C22",
"J  c #4C0E27",
"K  c #4F0F28",
"L  c #520F2A",
"P  c #56102C",
"I  c #5D112F",
"U  c #641334",
"Y  c #6C1437",
"T  c #78173D",
"R  c #422F21",
"E  c #443322",
"W  c #493524",
"Q  c #473825",
"!  c #4C3A25",
"~  c #433528",
"^  c #483428",
"/  c #473A2B",
"(  c #4C3B29",
")  c #523C25",
"_  c #583E27",
"`  c #533E2A",
"'  c #43333B",
"]  c #533F31",
"[  c #4D431B",
"{  c #544A1D",
"}  c #5A4F1F",
"|  c #4F4029",
" . c #574127",
".. c #55422B",
"X. c #5B442C",
"o. c #5F492E",
"O. c #5C5020",
"+. c #564332",
"@. c #5B4631",
"#. c #5E4A33",
"$. c #60452F",
"%. c #61492F",
"&. c #625522",
"*. c #655923",
"=. c #695C24",
"-. c #614733",
";. c #644D34",
":. c #694E35",
">. c #634E39",
",. c #665134",
"<. c #6A5237",
"1. c #65513A",
"2. c #6C533A",
"3. c #6E5A3E",
"4. c #72573C",
"5. c #6F6126",
"6. c #756629",
"7. c #7E6E2C",
"8. c #434343",
"9. c #4A4A4A",
"0. c #5C4651",
"q. c #535353",
"w. c #5B5B5B",
"e. c #6E5A41",
"r. c #735B43",
"t. c #7A5D46",
"y. c #786147",
"u. c #7D6044",
"i. c #74634A",
"p. c #7F6553",
"a. c #7C5F6E",
"s. c #616161",
"d. c #767676",
"f. c #7F7F7F",
"g. c #83722D",
"h. c #8D7B31",
"j. c #917F32",
"k. c #871945",
"l. c #8A1E4A",
"z. c #922954",
"x. c #99335D",
"c. c #84694B",
"v. c #856C54",
"b. c #8F735A",
"n. c #90755C",
"m. c #A4436C",
"M. c #846474",
"N. c #958234",
"B. c #9A8736",
"V. c #A08C37",
"C. c #A28E38",
"Z. c #AA943B",
"A. c #AC963C",
"S. c #B59E3F",
"D. c #BDA542",
"F. c #C0A742",
"G. c #C3AA43",
"H. c #CBB246",
"J. c #D1B748",
"K. c #D5BA4A",
"L. c #DABE4C",
"P. c #DEC24D",
"I. c #E3C64F",
"U. c #E6C950",
"Y. c #EACC51",
"T. c #F4D554",
"R. c #F7D856",
"E. c #FBDB57",
"W. c #FEDE58",
"Q. c #B55C83",
"!. c #9F798D",
"~. c #A66A86",
"^. c #BE688E",
"/. c #C16C92",
"(. c #848484",
"). c #949494",
"_. c #999999",
"`. c #BB8EA6",
"'. c #B5B5B5",
"]. c gray74",
"[. c #C999B2",
"{. c #DC95B7",
"}. c #DDA0BE",
"|. c #E39FC0",
" X c #ECB3D1",
".X c #F4B7D6",
"XX c #F9BEDD",
"oX c #C5C5C5",
"OX c #CACACA",
"+X c gray83",
"@X c gray89",
"#X c #F3F3F3",
"$X c #FFFFFF",
/* pixels */
"v v v l x b b b b b b b b b b b b b b b b b b b b b b b b b l b b b b b b b b b b b b l l b b b b v l l l b b b b v z v v v v v ",
"z v c z z z z z z z z h h h h h z z z z z z z z z z z h z z z z z z z z z z z z z z z z v z z z z z z v v z z z z z z z v v v v ",
"z b E t ! X.@.( E s @.1.;.>.>.1. . .@.+...W C ..>.@.#.1./ ~ y ) ..#.#.` ( A C A W W c i i c c c c k y i i p Q ....n z z z v v v ",
"z b E W r.<...E E y W -.2.<.2.2.2.2._ p e p p w E ! C t 7 A e @.1...S p p W A p p u y u E A V t.v.b.4.) E A t i W ..A ! ..v v v ",
"z b A e / p y y k E w 6 w i i t i i y q y c c k B                             O p w w E p v.y.G G ) ,.r.) A p w p ( C p | v v v ",
"z b E e t u u R A A E u w u p k p u y u k 8.          a D 5.g.N.j.g.7.6.D           - E W #._ $.-.X. .:.;.E p w e Q p e Q v v v ",
"M b E R e C _ u.c.u.c.;.E C t t p C F B       < D D.T.W.W.W.W.W.W.W.W.W.W.W.H.7.a         ( #.2.2.2.;._ C t c u p A p p A v v v ",
"z b C E A ` y.r.;.;.2.v.X.W E E R E       a D.W.W.W.W.W.W.W.W.W.W.W.W.W.W.E.E.W.W.L.7.      d 2.<.<.-.) i t E t p s p p A v v v ",
"z b E +.W X.:.X....._ _ c.n.S E ,     a D.W.W.W.W.W.W.W.W.W.W.W.W.W.D.a %     . 6 7.G.W.7.      W A p p t t E p p s s p A v v v ",
"z c A C ( ;.%.<.<.<.<.$._ ;.<.      j.W.W.W.W.W.W.W.W.W.D.R.W.W.W.W.  8.f._._.f.f.    6.Y.F.[     p u p w t E E p p E t A v v v ",
"z c E C E W X.,.<.<.<.;. ._     Z H.W.W.W.W.W.W.W.W.W.W.  S.W.W.W.W.  (.$X$X$X$X$X$Xf.-   A.W.7.    N t w p E E p p E p A v v v ",
"z c E C A A ) o.2.<.<.2.X.    =.W.W.W.W.W.W.W.W.W.Y.D.h.  S.W.W.W.W.  (.$X$X$X$X$X$X$X$Xw.  K.W.g.    h E E E E E A E E A v v v ",
"z c E C ! C W ..;.<.<.<.    7.W.W.W.W.W.W.W.D.&.a         S.W.W.W.W.  (.$X$X$X$X$X$X$X$X$Xd D W.W.V.    B W E E W Q E W Q v v v ",
"z c p C >.! E C C ` @.    7.W.W.W.W.W.W.S.a   1 2 U Y J   S.W.W.W.W.  (.$X$X$X$X$X$X$X$X$Xs.8 W.W.W.Z.    q.S F 2.i...i.i.v z v ",
"z c C t >.;.C E p p     =.W.W.W.W.W.D.r   1 U k.k.k.k.P   S.W.W.W.W.  (.$X$X$X$X$X$X$X$X$X'.  W.W.W.W.h.    ..2.-.@.>.#.#.v v v ",
"z x A p #.;.) E E q.  + E.W.W.W.T.{   # U k.k.k.k.k.k.P   S.W.W.W.W.  (.$X$X$X$X$X].(.(.$X(.  W.W.W.W.W.6.    ..@.>.@.-.2.v z v ",
"z x E p ! ;.2.W E     N.W.W.W.G.6   H k.k.k.k.k.k.k.k.P   S.W.W.W.W.  (.$X$X$X$Xf.      f.f.= W.W.W.W.W.W.a   B ! ` W ) ` v v v ",
"z x c C C ..>.W     7.W.W.W.G..   I k.k.k.k.k.k.k.k.k.P   S.W.W.W.W.  (.$X$X$X@X            7.W.W.W.W.W.W.D.    A p A A C v v v ",
"z x x E i p A E     W.W.W.I.  o Y k.k.k.k.k.k.k.k.k.k.P   S.W.W.W.W.  (.$X$X$XOX          + W.W.W.W.W.W.W.W.[   h t t e t v v v ",
"z b v E E p p     7.W.W.W.a . T k.k.k.k.k.k.k.k.k.k.k.P   S.W.W.W.W.  (.$X$X$X$XB         H.W.W.W.W.W.W.W.W.G.    E p p E v v v ",
"z x v E E Q (     W.W.W.7.  U k.k.k.k.k.k.k.k.k.k.k.k.P   S.W.W.W.W.  8.$X$X$X+Xf.    a J.W.W.W.W.W.W.W.W.W.W.a   B A A W v v v ",
"z x z c p ..8.  7.W.W.L.  H k.k.k.k.k.k.k.k.k.k.k.k.k.L   S.W.W.W.W.%             a D.W.W.W.W.W.W.W.W.W.W.W.W.D.    E A A v v v ",
"z x v c t !     N.W.W.7.o k.k.k.k.k.k.k.k.k.k.k.k.k.k.L   S.W.W.W.W.W.Y.A.h.A.D.Y.W.W.W.W.W.W.W.W.W.W.W.W.W.W.W.r   ..F A v v v ",
"z x b c p W     W.W.R.  H k.k.k.k.k.k.k.k.k.k.k.k.k.k.L   S.W.W.W.W.W.W.W.W.W.W.W.W.W.W.W.W.W.W.W.W.W.W.W.W.W.W.{   ;.X.W v v v ",
"z x c k p A   6.W.W.7.  ^.k.k.k.k.k.k.k.k.k.k.k.k.k.k.L   S.W.W.W.W.W.W.W.W.W.W.W.W.W.W.W.W.W.W.W.W.W.W.W.W.W.W.D.    ;.! v v v ",
"M b c c p ,   7.W.W.[ a.XXXX/.k.k.k.k.k.k.k.k.k.k.k.k.L   S.W.W.W.W.W.W.W.W.W.W.W.W.W.W.W.W.W.W.W.W.W.W.W.W.W.W.T.    :.! v v v ",
"z b E E y     S.W.W.  M.XXXXXX|.x.k.k.k.k.k.k.k.k.k.k.L   S.W.W.W.W.W.W.W.W.W.W.W.W.W.W.W.W.W.W.W.W.W.W.W.W.W.W.W.<   ;.Q v v v ",
"z v E E t     Y.W.H.  }.XXXXXXXX.Xx.k.k.k.k.k.k.k.k.k.L   S.W.W.W.W.W.W.W.W.W.W.W.W.W.W.W.W.W.W.W.W.W.W.W.W.W.W.W.a   B W v v v ",
"v v E E R     W.W.D.  .XXXXXXXXXXX{.k.k.k.k.k.k.k.k.k.L   S.W.W.W.W.W.W.W.W.W.W.W.W.W.W.W.W.W.W.W.W.W.W.W.W.W.W.W.D   , E v v v ",
"v v c A E     W.W.D.  .XXXXXXXXXXXXXm.k.k.k.k.k.k.k.k.L   S.W.W.W.W.W.W.W.W.W.W.W.W.W.W.W.W.W.W.W.W.W.W.W.W.W.W.W.6.  O W v v v ",
"v v c W `   X W.W.D.   XXXXXXXXXXXXX{.k.k.k.k.k.k.k.k.L   S.W.W.W.W.W.W.P.D.D.T.W.W.W.W.W.W.W.W.W.W.W.W.W.W.W.W.W.7.  O W v v v ",
"v v x E ..  X W.W.H.  [.XXXXXXXXXXXXXXz.k.k.k.k.k.k.k.L   S.W.W.W.W.a X         % 7.K.W.W.W.W.W.W.W.W.W.W.W.W.W.W.7.  : W v v v ",
"v v b c A     W.W.T.  `.XXXXXXXXXXXXXXm.k.k.k.k.k.k.k.K   S.W.W.W.W.  w.].oXoX_.f.    7.W.W.W.W.W.W.W.W.W.W.W.W.W.6.  h W v v v ",
"v z b c C     U.W.W.8 0.XXXXXXXXXXXXXXm.k.k.k.k.k.k.k.K   S.W.W.W.W.  _.$X$X$X$X$X$Xf.  *.W.W.W.W.W.W.W.W.W.W.W.W.D   8.E v v v ",
"v v v c A     D.W.W.Z m XXXXXXXXXXXXXXm.k.k.k.k.k.k.k.K   S.W.W.W.W.  _.$X$X$X$X$X$X$X).  5.W.W.W.W.W.W.W.W.W.W.W.<   9.E v z v ",
"z z v c E ,   A.W.W.D.  `.XXXXXXXXXXXXk.k.k.k.k.k.k.k.K   S.W.W.W.W.  _.$X$X$X$X$X$X$X$X(.  D.W.W.W.W.W.W.W.W.W.E.    ` E v z v ",
"z z v c E 8.  a W.W.R.X ' XXXXXXXXXX/.k.k.k.k.k.k.k.k.K   S.W.W.W.W.  _.$X$X$X$X$X$X$X$X$XB Z W.W.W.W.W.W.W.W.W.A.    ! E v v v ",
"z z v c E E   5 W.W.W.O.  `.XXXXXXXXQ.k.k.k.k.k.k.k.k.K   S.W.W.W.W.  _.$X$X$X$X$X$X$X$X$Xs.X W.W.W.W.W.W.W.W.W.7.  d E W v v v ",
"z z v c E E     D.W.W.I.  ' XXXXXX/.k.k.k.k.k.k.k.k.k.J   S.W.W.W.W.  _.$X$X$X$X$X$X$X$X$X'.  T.W.W.W.W.W.W.W.W.r   E E W v v v ",
"z v b c A C C   } W.W.W.B.  !.XX{.k.k.k.k.k.k.k.k.k.k.J   S.W.W.W.W.  _.$X$X$X$X$X$X$X$X$X).  W.W.W.W.W.W.W.W.K.    A E W v v v ",
"z x c c p ! @.  % W.W.W.W.[ . ~.l.k.k.k.k.k.k.k.k.k.k.J   S.W.W.W.W.  _.$X$X$X$X+X8., f.#Xf.X W.W.W.W.W.W.W.W.7.  > A A ( v v v ",
"z x c E W >.2.    A.W.W.W.R.8 # k.k.k.k.k.k.k.k.k.k.k.J   S.W.W.W.W.  _.$X$X$X$X>       > O 7.W.W.W.W.W.W.W.W.    ( p A ( b v v ",
"z x c A W 2.r.8.  6 W.W.W.W.H.X 1 T k.k.k.k.k.k.k.k.k.J   S.W.W.W.W.  _.$X$X$XOX            J.W.W.W.W.W.W.W.7.    ( A A ..v v v ",
"z v c C p ! X.Q     g.W.W.W.W.G.X   H k.k.k.k.k.k.k.k.J   S.W.W.W.W.  _.$X$X$X+X          7.W.W.W.W.W.W.W.Y.    ` Q #.Q ` v v v ",
"z v c E C C E E C     H.W.W.W.W.Y.}   2 H k.k.k.k.k.k.H   S.W.W.W.W.  _.$X$X$X$Xd.      &.W.W.W.W.W.W.W.W.6.  O X.Q 1.` ( v v v ",
"z v x A E E C ! e.d   Z W.W.W.W.W.W.7.      # 1 1 1 @     S.W.W.W.W.  w.'.oXoX].q.    7.W.W.W.W.W.W.W.W.7.    ;...Q #.) ( b v v ",
"z x b E E p C ! o.;.    6.W.W.W.W.W.W.W.B.7.D r r a D D.T.W.W.W.W.W.7..         r =.H.W.W.W.W.W.W.W.W.A.    ..) W W ( A ! v v v ",
"z v v s t p ) _ X.o...    7.W.W.W.W.W.W.W.W.W.W.W.W.W.W.W.W.W.W.W.W.W.W.R.J.H.T.W.W.W.W.W.W.W.W.W.W.K.    N ..W E E ! A W v z v ",
"v v v p w W ;.:.<.<.;.;.    g.W.W.W.W.W.W.W.W.W.W.W.W.W.W.W.W.W.W.W.W.W.W.W.W.W.W.W.W.W.W.W.W.W.W.K.=   . ;.! C A W A C W v v v ",
"v z v p w W <.<.<.<.<.2.9.    7.W.W.W.W.W.W.W.W.W.W.W.W.W.W.W.W.W.W.W.W.W.W.W.W.W.W.W.W.W.W.W.W.G.%     X.) C e p W C p W v v v ",
"v z v p w W :.<.<.<.<.2.X. .    7.W.W.W.W.W.W.W.W.W.W.W.W.W.W.W.W.W.W.W.W.W.W.W.W.W.W.W.W.W.W.V.      E b C e e p W p p W v v v ",
"v z v k w C ..X.;.<.2.;...E t     6 Z.W.W.W.W.W.W.W.W.W.W.W.W.W.W.W.W.W.W.W.W.W.W.W.W.W.W.R.*.    d k p i t x z c W b c W v v v ",
"v v z x t e A )  .#.@.@.W p t E       7.W.W.W.W.W.W.W.W.W.W.W.W.W.W.W.W.W.W.W.W.W.W.W.W.A.=     8.w y w w p E A C E E C E v v v ",
"v v z j c t w p A Q W C e w E ] E B       7.R.W.W.W.W.W.W.W.W.W.W.W.W.W.W.W.W.W.W.W.D.a       A p E p t A @.r.<.2.` X.2.! v v v ",
"v v v h 3 i k w w w w w p E p C e.i.t         5.7.R.W.W.W.W.W.W.W.W.W.W.W.W.W.D.D *       8.p e p W p.y.;.1.;.o.<... .2.( v v v ",
"v v v h , , c ~ c p t R E W u p 1.3.3.A E .         6 6.g.C.D.H.H.D.D.A.*.a           8.w u p e E C r.<.2.2.#.X.@.Q ..@.Q v v v ",
"v v z z z f > > 0 c E E E E E p A ! >.C E E E u                                 i i p E E R C W p p W ! W W W A Q W A ( W v v v ",
"v v z z v z d > & & q k ~ / ~ W C e e W W E k w w w w w h .           g B w w e w p A E E E E C w p p p p p p p p E p p E v v v ",
"v v v z v v z h d 4 > ; ; - ; 3 y x E Q W W W W W W W W W W W W E W W W ~ c k k j k c W ^ W W C p C E E C p e w e E p t W v v v ",
"v v v v v v v v v v g f 9 9 , : : : - - : * : : - - - & - ; , 0 0 > ; & - - : > , , , > > > 3 0 q 0 3 3 q j c n c q j c q v v v ",
"v v v v v v v v v v z z g g f d 4 4 > : : - : : : : : : : : - - - & - - : > 4 d d d d 4 9 , : : * - & & $ & : > , : : , - h v v ",
"v v v v v v v v v v v v v v v v v v z v v z v v N N N N v z z g g g g g h N N v v v v v v v v v v z g g d 9 9 f z v z v v v v v ",
"v v v v v v v v v v v v v v v v v v v v v v v v z z z z z z z z z z z z z M z v v v v v v v v v v z z z z z z z z z z z v v v v ",
"v v v v v v v v v v v v v v v v v v v v v v v v v v v v v v v v v v v v v v v v v v v v v v v v v v v v v v v v v v v v v v v v "
};
