/* XPM */
static char *_d61f26c02ec47eea0e8cd6c9321bf05ZJEvHNcMGaS3r0lz[] = {
/* columns rows colors chars-per-pixel */
"64 64 142 2 ",
"   c #080F17",
".  c #0C1414",
"X  c #0E151B",
"o  c #111817",
"O  c #11171E",
"+  c #151D1C",
"@  c #161C23",
"#  c #181F27",
"$  c #1A2126",
"%  c #1C232B",
"&  c #20272F",
"*  c #232B2D",
"=  c #242B33",
"-  c #282F36",
";  c #2A3136",
":  c #2D343A",
">  c #313737",
",  c #31373E",
"<  c #343A3D",
"1  c #353B43",
"2  c #383F47",
"3  c #3A4245",
"4  c #3C434B",
"5  c #40474F",
"6  c #434A4E",
"7  c #454B53",
"8  c #484F55",
"9  c #4A5156",
"0  c #4D535A",
"q  c #51565E",
"w  c #53595E",
"e  c #525761",
"r  c #555B63",
"t  c #585F66",
"y  c #595F68",
"u  c #596166",
"i  c #5C636A",
"p  c #606867",
"a  c #60676F",
"s  c #62696E",
"d  c #616771",
"f  c #656B73",
"g  c #686F76",
"h  c #696F78",
"j  c #697077",
"k  c #6D737A",
"l  c #71767E",
"z  c #72787F",
"x  c #727781",
"c  c #737880",
"v  c #747981",
"b  c #747A82",
"n  c #747B82",
"m  c #747B83",
"M  c #757C80",
"N  c #777E82",
"B  c #757C84",
"V  c #767C84",
"C  c #767D84",
"Z  c #777D85",
"A  c #747A82",
"S  c #787F83",
"D  c #787F87",
"F  c #798087",
"G  c #7C8387",
"H  c #798086",
"J  c #798088",
"K  c #7A8188",
"L  c #7B8189",
"P  c #7B8289",
"I  c #7C838A",
"U  c #7C838B",
"Y  c #7D838B",
"T  c #7D848C",
"R  c #7E858C",
"E  c #7F858D",
"W  c #7F868D",
"Q  c #7C838B",
"!  c #80868E",
"~  c #80878E",
"^  c #80878F",
"/  c #81878F",
"(  c #80868E",
")  c #80888B",
"_  c #82898E",
"`  c #828890",
"'  c #828991",
"]  c #838A92",
"[  c #848B92",
"{  c #848B93",
"}  c #858D90",
"|  c #868C93",
" . c #868D93",
".. c #868D94",
"X. c #878E94",
"o. c #878E95",
"O. c #848B92",
"+. c #888F96",
"@. c #898F96",
"#. c #888F96",
"$. c #889093",
"%. c #8B9295",
"&. c #8B9395",
"*. c #899096",
"=. c #899097",
"-. c #8A9097",
";. c #8A9197",
":. c #8C9396",
">. c #8D9396",
",. c #8A9196",
"<. c #8A9198",
"1. c #8B9198",
"2. c #8B9299",
"3. c #8C9299",
"4. c #8C939A",
"5. c #8D939A",
"6. c #8D939B",
"7. c #8F9599",
"8. c #8F9699",
"9. c #8E949B",
"0. c #8E949C",
"q. c #8F959C",
"w. c #8F959D",
"e. c #8D939A",
"r. c #909699",
"t. c #90969A",
"y. c #91979A",
"u. c #90969D",
"i. c #91979F",
"p. c #90969E",
"a. c #93999D",
"s. c #939A9D",
"d. c #92989F",
"f. c #93999E",
"g. c #939AA1",
"h. c #949BA2",
"j. c #949BA3",
"k. c #959CA4",
"l. c #949AA1",
"z. c #989FA5",
"x. c #9AA1A5",
"c. c #9CA3AB",
/* pixels */
"9 7 4 4 , r ; * * % * < < < 6 9 t u a g z P Y B g r : : f j P g i a f f z z c c c k k j k c ' -.r : & = = : e e i a c ^ 4.@.[ a.",
"c P ' | 4.-.| $.>.t.t.t.t.9.-.$.j.i.N k g t i [ o.o.-.<.; % 4 w r e q q e e t i f j c z k k k k v ' 1 0 ^ q.4.q.g.-.<.o.W Y P z ",
"q.k.9.| j.Y a.a.a.t.9.-.>.-.) H s f v k i 0 9 i v o.4.' W 4 X e 0 0 7 7 q r e e r u f j j j f f f e 4 v q.| q.W z P k k k j f k ",
"<.Y Y Y P P k l z N N G N k j l j k k f r 0 e 7 7 u ' <.W j.i : 2 5 7 7 4 0 8 5 4 e 8 r t i t r 8 4 2 k z ^ F k c B k k k k k k ",
"k j j j j j j j j k k j k k k j k f q 0 0 0 q e 0 8 7 0 i 9 4 : 2 q q q 1 2 : : : = # ; , : 2 , - = 9 g k z B z k k z z k k k z ",
"j k k k k k k k k k k z k j f s u r 0 9 0 t u e q e r r 0 : 4 9 k @.9.-.v P j g f 9 5 1 ; @ @ @ r 4 3 r f k c j j k j j j j j g ",
"k k k k k k z z z k k k f u q e q q r t t u t r i i r 0 : , 8 ^ <.' ' W o.| -.q.i.^ Y f 0 2 2 2 q 0 & 1 r s a r u i u u u u u u ",
"k k k k k k k k j f f r r r u u r r e q 0 9 7 8 7 4 % 1 W | q.j z k j j f g k k j P W 4.4.q.<.9.4.4.' B r 0 t r e q 7 7 7 7 7 r ",
"f f f f f f g j j i r e e r u u r r q 9 7 7 7 7 : % 4 f j.^ g t t f g k j k k k j j k v D Y W W v f <.g.o.; 7 9 8 7 7 8 7 8 q 9 ",
"u r r r r r r r r y u t t r e q 0 9 7 7 7 9 5 : , t [ z 7 0 t q r r t i j j k k z c k j f f u i 0 q e f Y j % O % , 7 4 1 , - ; ",
"q r r r t u t i f i r e q 0 7 5 7 8 q 0 7 1 = : 7 f u r w q 9 4 9 r u i u f g j k c j f i u e r t f q t k P 0 = & @ # $ @ # % = ",
"7 9 9 9 9 0 9 0 e q 9 8 8 9 9 9 7 7 5 2 : % = 4 , 4 e i r q 0 9 8 q e r r i i f f g a u t r w 0 r u r t i f q = ; 1 : - = % = , ",
"7 7 7 7 7 7 7 7 8 5 4 ; - = = = = = 4 4 4 1 1 0 , & : : 4 4 4 7 7 7 7 8 9 0 0 0 0 9 0 9 7 7 4 4 , ; ; = $ : 7 r i u q i z P q.i.",
"% = = ; , 1 1 , 1 = = ; = : 9 5 1 2 4 4 1 : : 9 e r e 8 ; % $ = % : , 2 4 2 7 7 8 7 5 1 - = = % = = 4 % = f ^ g.i.o.q.i.g.i.i.4.",
"i 2 : = = = = = : 1 1 , : 2 u 0 1 2 9 r i j z P ' @.@.^ Y z i 4 1 2 4 4 7 7 7 7 4 = % % = : : 7 = % w f ' 4.i.q.<.@.-.@.o.| | P ",
"<.i.i.i.9.4.D j t 2 r q.i.q.' ' g.g.o.' Y v z k k k f f W @.@.' @.o.o.o.o.' <.4.q.-.| i.k.-.7 , 1 a g.i.^ D k k B P k k j j j v ",
"' 4.o.' @.i.4.s 7 u ' o.-.4.-.' k k j j g c B z k j j k k z B ' -.<.4.q.i.g.j.j.g.q.<.-.| v 2 , 4 8 i P ^ k j k z v k j j g g k ",
"e 9 q r e 9 0 0 7 , 0 f f k c k j j k k z k j k z z v v k k k z z k k k k k k k k z f j q 0 4 2 ; 4 0 w k k j j k z z z k k k j ",
"q 9 0 q r r 9 q 7 2 0 f j k j j k k k k k k k k k k k k g f f g f j k k z k k k k k j c r r 7 1 1 7 0 r f i u i f g z z k k j i ",
"0 0 0 9 q r w r 7 4 q i f k g g k k j f f a i a f f f f u r r u i f f g k k k k k k z k r 0 7 2 4 9 0 q r r r t u u f f f f i r ",
"r r r t u u u i 0 3 0 0 r u u i i i i u u t t t t t e 0 r t t r t t t t r i i u t r r f t 0 7 4 7 e 0 9 0 0 0 0 0 0 r r r e q t ",
"9 r r t q 9 r e 4 1 7 9 q r 9 8 8 8 0 e r r e e q q q r u u t e t r r r r t r r r e i q 9 q 4 1 4 9 7 7 7 5 5 7 7 7 7 8 e t u r ",
"r r r e 0 0 e 4 : 2 1 7 9 0 8 7 8 8 7 7 7 9 0 9 8 7 0 r e 0 8 7 9 9 9 9 0 7 7 8 8 9 9 r 0 7 , , 2 7 9 0 0 9 9 9 0 0 9 9 0 0 q 7 ",
"7 7 4 2 % @ % 1 9 8 7 1 1 : = % # # = : 2 5 7 2 2 1 : = % % % % % % = = - : : 1 2 4 : @ & , 4 4 : - # % = : : : : : = ; 1 4 7 8 ",
": = = ; 9 u W ' -.<.@.-.B i u q 4 1 2 : % : : % # % = = : 5 8 7 7 5 4 4 3 1 , : - = ; 2 7 r j f e 8 , - = = : , : = = - = % = ; ",
"W 4.4.i.q.4.-.o.[ @.q.| @.-.q.q.^ k B k i f k v r 4 2 , 0 j [ [ o.-.-.<.4.j.a.q.4.-.4.4.4.4.4.q.q.q.4.4.4.9.a.i.<.@.[ z 9 1 2 i ",
"i.q.q.4.W B P B c T @.@.<.4.| ' @.o.g.g.q.4.q.r 7 0 2 1 7 7 u 4.4.<.<.@.o.9.4.<.-.o.' ' ' ' ' ^ ^ ' | o.o.-.4.i.q.4.q.4.r 1 4 u ",
"' W P N z z z k k B ' g.i.i.4.4.<.q.<.4.q.F z q 0 e 1 1 t 9 8 c Y D v c k D D D B B v z k k j k z z z z z v B P P D c j 9 1 1 9 ",
"z k j f g j z k j f g B k c F z z j g g j k k D j r 9 7 r q 9 j g j j j k g j j j j z z k j g k x z k k k k k z c v f e e 4 7 q ",
"k k k k z c z c v z j j j j k k f g j v B f f f f i 7 7 r r 0 a f z v c k k z z z z g k c c k j g j k k k k k k k z j r r 3 7 9 ",
"u a f f j k g j k k g g j j j j z c j f f i u e r q : 1 r 0 f j j f f f j k j j g f f k z z j f f g k k k k j f f s f i r 4 9 0 ",
"9 9 0 q r u f a i u u r r t t u i i 0 e t 0 7 4 7 4 ; = w i u r i r r e q q e r r u u u t r r r e e q q 0 0 q r r t i t r 7 8 r ",
"7 7 7 8 0 0 u r r 0 0 r r r r r 7 9 8 q q 2 , & : 2 2 = 9 e 8 e q r r e 8 7 9 0 q r r q 0 0 0 0 0 0 7 7 7 8 9 0 0 0 e r r 4 1 9 ",
"4 2 2 1 , : : ; : 2 4 4 4 4 4 4 4 : : % % f B g.i.4.g.Y - 7 0 0 8 7 7 8 0 9 8 8 7 7 4 : = * & = = - , 1 2 4 4 7 7 8 5 7 4 7 7 : ",
"@ @ @ # % % @ @ @ # # @ @ # % % % * = & e <.@.' P B T ' = = = : & = = : , 2 2 1 1 : # # = % # % - 1 & = % $ # # % % # % = : 1 ; ",
"t t u u i a f f f f f s 7 = O % , i 1 f -.j j j k k j i - = % 1 = % % # @ # X     O % = 1 : = = 9 e = # % : 7 r q 9 e r i i f r ",
"' W Y Y P D z z k j g f k z ' D : # <.P i f k f f a w 7 7 ; @ P ' @.4.i.k.-.o.@.4.j.4.i.j.g.q.' 1 = 9 @.-.-.@.@.<.<.<.-.o.| [ q.",
"f k k k j j z k k f f g a e 0 7 % 9 j q r r r r e q 7 4 % = 0 k.g.i.q.4.<.g.q.4.-.| o.<.-.-.| v 4 # B -.q.4.<.[ / ^ W W W W W @.",
"0 i i i a s i u r q 0 0 7 2 : ; % a 5 7 e q 9 7 4 3 , = 1 f <.4.[ @.<.4.i.o.[ ^ P c v B v P P i 5 = k [ | | W k j j j k k k k k ",
"% = = = 4 7 : : = = @ % % % = = - = 4 1 : % % = 7 , 4 k g.-.W k f j k k z k k k k k k k j k k a q % e 0 t f k k k z k k k k k k ",
"k u q 4 : & $ $ # & 4 a f f k c v v W ' Y f i # , 1 T <.^ v j k k k k k k k j j j j j j j j k i r = q w q f z k k k k k k k k k ",
"<.q.g.g.i.W 0 : 5 -.i.i.q.4.o.[ P P v k z @.c.f * 7 0 0 k z k j z k j g f k j j j j k k z z z a q = q 0 0 a k z k k z z z z z z ",
"Y P ^ ^ P f 0 5 1 t i B v c j f j k j i r r i i : 8 0 w s s s k j f s i u u u u t r u i i i i r 0 = q 0 0 f z k k k z z z z z k ",
"k k z k g r u 0 ; q 0 f f f g j k z k s r 0 e r 0 4 u r u u u s i u r r w r r r r r r r r t t r 0 = e 9 q f g f f g j j j j j f ",
"k j k k k i 0 0 7 0 e k k z k j v k f j g t r q i 4 5 6 w u r i w w r r w w w 0 0 w 0 w w w w 0 7 * e 0 r u r 0 q r r t t r r 0 ",
"k k k c k u e r q 4 r u f k f f u r r i i u r r t 4 1 7 r u r w 0 7 w r w w 9 9 9 w w r r r 9 8 , % q q q r e 0 0 9 0 q e 0 9 7 ",
"z j k k a r e r r 1 9 9 q u i u e 0 e r r 0 0 r 7 ; : 4 6 0 r 9 w 6 6 9 0 0 7 0 w u w w w 0 6 7 = = 1 4 7 9 0 0 0 9 7 7 7 7 7 4 ",
"a g j f w r r t 0 : 2 0 0 0 0 7 8 7 9 7 4 = % & # = = % ; > < 4 3 4 9 6 w 8 0 8 6 8 6 4 3 < > ; = , # # @ % : 1 1 , : = & % % % ",
"i f a u 0 q r 0 : 7 4 : : , 7 9 4 7 4 & @ O $ f P 4./ p o . o * $ $ o o + + * * * + $ + + + + @ q z / Y c j i , % O X % = & % r ",
"9 0 8 7 4 1 = 1 f i.[ i.[ k : % X , 7 & : / 9.k z z s s _ y.$.6 - 3 5 : < 3 + < s y.t.>.>.>.s.a.<.' | D Y [ [ -.4.4.<.i.i.-.[ g.",
"4 7 4 4 = % 4 r g f g v c D W u % % : * 4 s u w u s f s i D Y z i 1 7 = r r % = 4 / N F Y Y N B z z N k j z v T / ' ' ' ' ' / B ",
"& ; = = : 7 e r r q r i r t a e - < * * * > : < 4 6 7 9 9 w r 9 3 * = = 8 4 % % = 2 7 0 e r r u f j j f g k k k k k k k j g g k ",
"' r 1 1 7 : = = = : % % % % = 2 i H X.-./ z j w 8 3 = = = = = q c ' [ -.j.-.-.o.W u 4 % % = 4 5 q e 0 r t u i i i i i f f g g k ",
"j v u 4 r 7 4 2 2 9 0 q r r j P | >.x.>.t.k.k.>.$.T r = = = % i | i.[ [ @.i.<.<.4.4.' u 4 = ; ; 4 7 9 0 0 q q e e e e r r r r g ",
"q r r 4 9 z ^ W ^ @.o.-.| / [ @.z.j.$.T | s.a.| | / j 1 & : ; r f -.o.4.j.| 4.4.<.| <.4.-.P 3 = % = , , : ; : 1 1 2 7 8 0 e r u ",
"# & : u k.q.<.<.-.-.-.^ ' [ 4.q.@.4.j.9.Y r q q r i c i = % 4 r 9 k v f c k k k k k g Y -.i.q.i.<.P r q 0 0 4 = % X = % % , 4 0 ",
"2 f T o.| 4.<.o.W z j z c B ' o.g.4.D z k y q 0 0 r g f : $ 0 r q z c j k k k k k k z k z B <.q.<.q.x.g.q.g.4.@.| P z k & @ ; 7 ",
"g k Y W k c k k k z z c z k j g g g j k k f a r 0 0 u f = 7 0 q i c k z j k k k k k f j k k g k Y [ o.o.@.q.q.q.q.q.-.i.D 9 = : ",
"q r f c j j c z k j f k k k k k j j k k k j h d r e r i = r q e i k k z j k k k k k j z z k f k k k z j j z v v v B P c z r = : ",
"0 e r f k j j j j j j j j k z c x x k k k k k f i r r r : r r r u f j k k k k k k k x z k k k z k f q r r 0 r r r u u r t r 4 : ",
"4 0 e r r i k k k z z k k k k k k k z z z B x u y r 9 5 1 r q i r r r f c f j c B g j j j j g z a q 0 w r e q 9 9 9 q r u u u r ",
"2 w q q r t i f j k j k k k k k z k j f f f a u a u 7 7 : 9 r 7 r 0 0 e i g s g z c k j k k k j u r q e e 0 q r r t q 0 0 0 0 0 ",
"7 9 9 q i r w r u a f f f f f f f f d i u q q u u r 7 7 % 1 5 4 0 9 q 9 e s e r u a j f a u e r r r t t r q q 0 0 0 q e r r r 0 ",
"2 0 0 9 9 r u r 0 9 0 r r r r r r r r r r q 0 q 0 7 1 , 2 4 : : 4 9 0 0 7 7 7 7 7 9 7 7 8 9 q q 9 7 7 0 0 9 9 0 q q 0 0 0 9 9 7 "
};